<svg viewBox="103.359 110.681 425.654 135.455" fill="none" stroke-linecap="square" stroke-miterlimit="10" xmlns="http://www.w3.org/2000/svg"><clipPath id="a"><path d="M0 0h1024v768H0V0z"/></clipPath><g clip-path="url(#a)"><path fill="none" d="M0 0h1024v768H0z"/><path fill="none" d="M94.814 110.583h171.905v42.015H94.814z"/><path fill="#666" d="M118.378 137.503v-5.657l-5.156-7.703h2.156l2.64 4.032q.72 1.125 1.344 2.265.61-1.047 1.469-2.36l2.578-3.937h2.063l-5.329 7.703v5.657h-1.765zm6.152-4.844q0-2.688 1.484-3.969 1.25-1.078 3.047-1.078 2 0 3.266 1.313 1.265 1.296 1.265 3.609 0 1.86-.562 2.937-.563 1.063-1.64 1.657-1.063.593-2.329.593-2.031 0-3.281-1.296-1.25-1.313-1.25-3.766zm1.687 0q0 1.86.797 2.797.813.922 2.047.922 1.219 0 2.031-.922.813-.938.813-2.844 0-1.797-.813-2.719-.812-.922-2.031-.922-1.234 0-2.047.922-.797.907-.797 2.766zm15.626 4.844v-1.422q-1.125 1.64-3.063 1.64-.859 0-1.609-.328-.734-.328-1.094-.828-.359-.5-.5-1.219-.109-.468-.109-1.53v-5.985h1.64v5.36q0 1.28.11 1.734.156.64.656 1.015.5.375 1.235.375.734 0 1.375-.375.656-.39.921-1.031.266-.656.266-1.89v-5.188h1.64v9.672h-1.468zm4.032 0v-9.672h1.469v1.469q.562-1.032 1.03-1.36.485-.328 1.063-.328.829 0 1.688.531l-.563 1.516q-.609-.36-1.203-.36-.547 0-.968.329-.422.328-.61.89-.281.875-.281 1.922v5.063h-1.625zm11.568 0v-13.36h2.656l3.156 9.453q.438 1.329.64 1.985.235-.735.704-2.14l3.203-9.298h2.375v13.36h-1.703V126.33l-3.875 11.172h-1.594l-3.86-11.375v11.375h-1.702zm14.775-4.844q0-2.688 1.484-3.969 1.25-1.078 3.047-1.078 2 0 3.266 1.313 1.265 1.296 1.265 3.609 0 1.86-.562 2.937-.563 1.063-1.64 1.657-1.063.593-2.329.593-2.031 0-3.281-1.296-1.25-1.313-1.25-3.766zm1.687 0q0 1.86.797 2.797.813.922 2.047.922 1.219 0 2.031-.922.813-.938.813-2.844 0-1.797-.813-2.719-.812-.922-2.03-.922-1.235 0-2.048.922-.797.907-.797 2.766zm10.798 4.844h-1.516v-13.36h1.641v4.766q1.047-1.297 2.656-1.297.89 0 1.688.36.797.359 1.312 1.015.516.64.797 1.563.297.921.297 1.968 0 2.485-1.234 3.844-1.22 1.36-2.953 1.36-1.704 0-2.688-1.438v1.219zm-.016-4.907q0 1.735.485 2.516.765 1.266 2.094 1.266 1.078 0 1.859-.938.781-.937.781-2.781 0-1.89-.75-2.797-.75-.906-1.828-.906-1.062 0-1.86.937-.78.938-.78 2.703zm8.892-6.562v-1.89h1.64v1.89h-1.64zm0 11.469v-9.672h1.64v9.672h-1.64zm4.098 0v-13.36h1.64v13.36h-1.64zm10.816-3.11l1.688.203q-.406 1.485-1.484 2.313-1.079.812-2.766.812-2.125 0-3.375-1.296-1.234-1.313-1.234-3.672 0-2.453 1.25-3.797 1.265-1.344 3.265-1.344 1.938 0 3.156 1.328 1.235 1.313 1.235 3.703v.438h-7.219q.094 1.594.906 2.453.813.844 2.016.844.906 0 1.547-.47.64-.483 1.015-1.515zm-5.39-2.656h5.406q-.11-1.219-.625-1.828-.781-.953-2.031-.953-1.125 0-1.906.765-.766.75-.844 2.016zm12.029 5.766l5.125-13.36h1.906l5.469 13.36h-2.016l-1.547-4.047h-5.593l-1.47 4.047h-1.874zm3.86-5.485h4.53l-1.406-3.703q-.625-1.687-.937-2.765-.266 1.28-.719 2.546l-1.469 3.922zm9.85 9.188V127.83h1.483v1.25q.532-.735 1.188-1.094.672-.375 1.625-.375 1.234 0 2.172.64.953.626 1.437 1.798.485 1.156.485 2.546 0 1.485-.532 2.672-.53 1.188-1.546 1.828-1.016.625-2.141.625-.813 0-1.469-.343-.656-.344-1.062-.875v4.703h-1.64zm1.483-8.485q0 1.86.75 2.766.766.89 1.829.89 1.093 0 1.875-.921.78-.938.78-2.875 0-1.844-.765-2.766-.75-.922-1.812-.922-1.047 0-1.86.985-.797.968-.797 2.843zm8.892 8.485V127.83h1.484v1.25q.531-.735 1.188-1.094.672-.375 1.625-.375 1.234 0 2.172.64.953.626 1.437 1.798.484 1.156.484 2.546 0 1.485-.53 2.672-.532 1.188-1.548 1.828-1.015.625-2.14.625-.813 0-1.47-.343-.655-.344-1.062-.875v4.703h-1.64zm1.484-8.485q0 1.86.75 2.766.766.89 1.828.89 1.094 0 1.875-.921.782-.938.782-2.875 0-1.844-.766-2.766-.75-.922-1.813-.922-1.046 0-1.859.985-.797.968-.797 2.843z"/><path fill="#cfe2f3" d="M148.399 200.974c0-17.847 14.468-32.315 32.315-32.315 17.847 0 32.315 14.468 32.315 32.315 0 17.847-14.468 32.315-32.315 32.315-17.847 0-32.315-14.468-32.315-32.315z" fill-rule="evenodd"/><path fill="#a5b4c2" d="M166.995 191.31a3.366 3.366 0 116.732 0 3.366 3.366 0 01-6.732 0m20.706 0a3.366 3.366 0 116.732 0 3.366 3.366 0 01-6.732 0" fill-rule="evenodd"/><path fill="none" d="M163.199 215.067q17.515 12.028 34.989 0M148.399 200.974c0-17.847 14.468-32.315 32.315-32.315 17.847 0 32.315 14.468 32.315 32.315 0 17.847-14.468 32.315-32.315 32.315-17.847 0-32.315-14.468-32.315-32.315z"/><path stroke="#000" stroke-linejoin="round" stroke-linecap="butt" d="M166.995 191.31a3.366 3.366 0 116.732 0 3.366 3.366 0 01-6.732 0m20.706 0a3.366 3.366 0 116.732 0 3.366 3.366 0 01-6.732 0M163.199 215.067q17.515 12.028 34.989 0"/><path stroke="#000" stroke-linejoin="round" stroke-linecap="butt" d="M148.399 200.974h0c0-17.847 14.468-32.315 32.315-32.315 17.847 0 32.315 14.468 32.315 32.315 0 17.847-14.468 32.315-32.315 32.315-17.847 0-32.315-14.468-32.315-32.315z"/><path fill="#cfe2f3" d="M353.053 163.966h116.44v64.63h-116.44z" fill-rule="evenodd"/><path stroke="#000" stroke-linejoin="round" stroke-linecap="butt" d="M353.053 163.966h116.44v64.63h-116.44z"/><path fill="none" d="M228.895 195.955h116.472"/><path stroke="#000" stroke-linejoin="round" stroke-linecap="butt" d="M228.895 195.955h110.472"/><path fill="#000" stroke="#000" stroke-linecap="butt" d="M339.367 197.607l4.539-1.652-4.539-1.651z" fill-rule="evenodd"/><path fill="none" d="M223.753 142.814h116.473v54.929H223.752z"/><path fill="#000" d="M238.206 165.894h-1.281v-8.203q-.469.437-1.219.89-.75.438-1.36.656v-1.25q1.079-.5 1.891-1.218.813-.735 1.141-1.407h.828v10.532zm4.026 0v-1.47h1.469v1.47h-1.469zm8.175 0v-10.485h1.391v10.485h-1.39zm3.682 0V158.3h1.156v1.062q.344-.562.938-.89.609-.344 1.359-.344.844 0 1.375.344.547.344.766.984.906-1.328 2.359-1.328 1.125 0 1.734.625.61.625.61 1.922v5.219h-1.282v-4.782q0-.78-.125-1.109-.125-.344-.453-.547-.328-.219-.78-.219-.798 0-1.329.532-.531.53-.531 1.703v4.422h-1.282v-4.938q0-.86-.312-1.281-.313-.438-1.031-.438-.547 0-1.016.297-.453.282-.672.828-.203.547-.203 1.594v3.938h-1.281zm12.209 2.906v-10.5h1.171v.984q.422-.578.938-.86.516-.296 1.266-.296.968 0 1.718.5t1.125 1.422q.375.906.375 1.984 0 1.172-.422 2.11-.406.922-1.218 1.422-.797.5-1.672.5-.64 0-1.156-.266-.516-.281-.844-.688v3.688h-1.281zm1.156-6.656q0 1.453.594 2.156.609.703 1.453.703.86 0 1.468-.719.61-.734.61-2.25 0-1.453-.61-2.172-.593-.734-1.421-.734-.813 0-1.454.781-.64.766-.64 2.235zm6.98 3.75V158.3h1.155v1.14q.453-.796.828-1.046.375-.266.813-.266.656 0 1.328.406l-.437 1.203q-.47-.28-.954-.28-.421 0-.765.25-.328.25-.469.702-.219.688-.219 1.5v3.985h-1.28zm10.098-2.453l1.329.171q-.313 1.172-1.172 1.813-.844.64-2.172.64-1.672 0-2.656-1.015-.97-1.031-.97-2.89 0-1.923.985-2.97 1-1.062 2.578-1.062 1.516 0 2.485 1.031.968 1.032.968 2.922 0 .11-.015.344h-5.656q.062 1.25.703 1.922.64.656 1.593.656.704 0 1.204-.36.5-.374.796-1.202zm-4.234-2.079h4.25q-.094-.953-.484-1.437-.625-.75-1.61-.75-.875 0-1.484.594-.61.593-.672 1.593zm6.667 2.266l1.265-.203q.11.766.594 1.172.5.406 1.375.406.89 0 1.313-.36.437-.359.437-.843 0-.438-.375-.688-.265-.171-1.312-.437-1.422-.36-1.969-.61-.547-.265-.828-.734-.281-.469-.281-1.015 0-.516.218-.938.235-.437.641-.734.297-.22.812-.36.532-.156 1.125-.156.891 0 1.563.266.672.25 1 .687.328.438.437 1.172l-1.25.172q-.093-.578-.5-.906-.406-.344-1.156-.344-.89 0-1.281.297-.375.297-.375.687 0 .25.156.453.156.204.5.344.188.078 1.14.328 1.36.36 1.891.594.547.234.86.688.312.437.312 1.093 0 .64-.375 1.219-.375.563-1.093.875-.704.313-1.594.313-1.485 0-2.266-.61-.765-.625-.984-1.828zm7.328 0l1.266-.203q.109.766.593 1.172.5.406 1.375.406.891 0 1.313-.36.437-.359.437-.843 0-.438-.375-.688-.265-.171-1.312-.437-1.422-.36-1.969-.61-.547-.265-.828-.734-.281-.469-.281-1.015 0-.516.218-.938.235-.437.641-.734.297-.22.813-.36.53-.156 1.125-.156.89 0 1.562.266.672.25 1 .687.328.438.438 1.172l-1.25.172q-.094-.578-.5-.906-.407-.344-1.157-.344-.89 0-1.28.297-.376.297-.376.687 0 .25.156.453.157.204.5.344.188.078 1.141.328 1.36.36 1.89.594.547.234.86.688.312.437.312 1.093 0 .64-.375 1.219-.375.563-1.093.875-.703.313-1.594.313-1.484 0-2.266-.61-.765-.625-.984-1.828zm7.844-6.75v-1.469h1.297v1.469h-1.297zm0 9.016V158.3h1.297v7.594h-1.297zm2.771-3.797q0-2.11 1.172-3.125.985-.844 2.391-.844 1.578 0 2.562 1.031 1 1.016 1 2.828 0 1.47-.437 2.313-.438.828-1.281 1.297-.844.469-1.844.469-1.594 0-2.578-1.016-.985-1.031-.985-2.953zm1.329 0q0 1.453.625 2.187.64.719 1.609.719t1.594-.719q.64-.734.64-2.234 0-1.406-.64-2.125-.64-.734-1.594-.734-.969 0-1.61.718-.624.719-.624 2.188zm7.307 3.797V158.3h1.156v1.078q.844-1.25 2.422-1.25.688 0 1.266.25.578.234.86.64.28.407.405.954.063.36.063 1.25v4.672h-1.281v-4.625q0-.782-.157-1.172-.156-.39-.547-.625-.375-.235-.89-.235-.813 0-1.422.532-.594.515-.594 1.968v4.157h-1.281zm7.635-2.266l1.266-.203q.11.766.594 1.172.5.406 1.375.406.89 0 1.312-.36.438-.359.438-.843 0-.438-.375-.688-.266-.171-1.313-.437-1.422-.36-1.968-.61-.547-.265-.829-.734-.28-.469-.28-1.015 0-.516.218-.938.234-.437.64-.734.297-.22.813-.36.531-.156 1.125-.156.89 0 1.563.266.671.25 1 .687.328.438.437 1.172l-1.25.172q-.094-.578-.5-.906-.406-.344-1.156-.344-.89 0-1.281.297-.375.297-.375.687 0 .25.156.453.156.204.5.344.187.078 1.14.328 1.36.36 1.891.594.547.234.86.688.312.437.312 1.093 0 .64-.375 1.219-.375.563-1.094.875-.703.313-1.594.313-1.484 0-2.265-.61-.766-.625-.985-1.828zM238.675 182.556q-.719.61-1.375.86t-1.422.25q-1.25 0-1.922-.61-.672-.61-.672-1.562 0-.563.25-1.016.25-.469.657-.75.421-.281.937-.422.375-.094 1.14-.187 1.563-.188 2.298-.453.015-.266.015-.329 0-.796-.375-1.109-.484-.437-1.453-.437-.922 0-1.36.328-.421.312-.624 1.109l-1.266-.172q.172-.797.563-1.297.39-.5 1.14-.765.75-.266 1.719-.266.984 0 1.594.234.609.22.89.563.282.344.407.875.062.328.062 1.187v1.72q0 1.796.078 2.28.078.47.328.907h-1.343q-.204-.407-.266-.938zm-.11-2.875q-.703.281-2.093.485-.797.109-1.125.265-.328.14-.516.422-.172.266-.172.594 0 .515.39.86.392.343 1.142.343.734 0 1.312-.313.594-.328.86-.89.203-.438.203-1.297v-.469zm3.308 3.813V175.9h1.156v1.078q.844-1.25 2.422-1.25.688 0 1.266.25.578.234.859.64.281.407.406.954.063.36.063 1.25v4.672h-1.281v-4.625q0-.782-.157-1.172-.156-.39-.547-.625-.375-.235-.89-.235-.813 0-1.422.532-.594.515-.594 1.968v4.157h-1.281zm13.073 0v-.953q-.719 1.125-2.125 1.125-.906 0-1.672-.5-.75-.5-1.172-1.391-.422-.906-.422-2.078 0-1.14.375-2.063.39-.922 1.14-1.406.767-.5 1.704-.5.688 0 1.219.297.531.281.875.734v-3.75h1.281v10.485h-1.203zm-4.063-3.797q0 1.469.61 2.187.625.719 1.453.719.844 0 1.437-.687.594-.688.594-2.11 0-1.562-.61-2.281-.593-.734-1.484-.734-.843 0-1.421.703-.579.703-.579 2.203zm9.57 3.797l4.016-10.485h1.5l4.297 10.485h-1.578l-1.235-3.172h-4.375l-1.156 3.172h-1.469zm3.016-4.313h3.563l-1.094-2.906q-.5-1.313-.75-2.172-.203 1.016-.563 2l-1.156 3.078zm12.698 1.531l1.265.157q-.203 1.312-1.062 2.062-.844.735-2.094.735-1.563 0-2.516-1.016-.937-1.031-.937-2.922 0-1.234.406-2.156.406-.922 1.234-1.375.844-.469 1.813-.469 1.25 0 2.031.625.781.625 1.016 1.766l-1.266.203q-.172-.766-.625-1.156-.453-.391-1.094-.391-.984 0-1.593.703-.61.703-.61 2.203 0 1.531.578 2.235.594.687 1.547.687.75 0 1.266-.453.516-.469.64-1.438zm5.187 1.625l.188 1.141q-.547.11-.985.11-.687 0-1.078-.22-.39-.218-.547-.577-.156-.36-.156-1.516V176.9h-.953v-1h.953v-1.89l1.281-.766v2.656h1.297v1h-1.297v4.437q0 .547.063.72.078.155.218.25.157.077.454.077.203 0 .562-.047zm1.26-7.859v-1.469h1.296v1.469h-1.296zm0 9.016V175.9h1.296v7.594h-1.296zm2.771-3.797q0-2.11 1.172-3.125.985-.844 2.39-.844 1.579 0 2.563 1.031 1 1.016 1 2.828 0 1.47-.437 2.313-.438.828-1.281 1.297-.844.469-1.844.469-1.594 0-2.578-1.016-.985-1.031-.985-2.953zm1.328 0q0 1.453.625 2.187.641.719 1.61.719.969 0 1.594-.719.64-.734.64-2.234 0-1.406-.64-2.125-.641-.734-1.594-.734-.969 0-1.61.718-.625.719-.625 2.188zm7.308 3.797V175.9h1.156v1.078q.844-1.25 2.422-1.25.687 0 1.266.25.578.234.859.64.281.407.406.954.063.36.063 1.25v4.672h-1.282v-4.625q0-.782-.156-1.172-.156-.39-.547-.625-.375-.235-.89-.235-.813 0-1.422.532-.594.515-.594 1.968v4.157h-1.281zm7.635-2.266l1.266-.203q.11.766.594 1.172.5.406 1.375.406.89 0 1.312-.36.438-.359.438-.843 0-.438-.375-.688-.266-.171-1.313-.437-1.422-.36-1.969-.61-.546-.265-.828-.734-.281-.469-.281-1.015 0-.516.219-.938.234-.437.64-.734.297-.22.813-.36.531-.156 1.125-.156.89 0 1.562.266.672.25 1 .687.329.438.438 1.172l-1.25.172q-.094-.578-.5-.906-.406-.344-1.156-.344-.891 0-1.282.297-.375.297-.375.687 0 .25.157.453.156.204.5.344.187.078 1.14.328 1.36.36 1.89.594.548.234.86.688.313.437.313 1.093 0 .64-.375 1.219-.375.563-1.094.875-.703.313-1.594.313-1.484 0-2.265-.61-.766-.625-.985-1.828z"/><path fill="none" d="M317.055 110.583h217.449v42.015H317.055z"/><path fill="#666" d="M332.351 137.503v-13.36h5.047q1.328 0 2.031.125.969.172 1.64.64.673.454 1.079 1.282.406.828.406 1.828 0 1.703-1.094 2.89-1.078 1.173-3.921 1.173h-3.422v5.422h-1.766zm1.766-7h3.453q1.719 0 2.437-.641.719-.64.719-1.797 0-.844-.422-1.437-.422-.594-1.125-.782-.437-.125-1.64-.125h-3.422v4.782zm10.459 7v-9.672h1.469v1.469q.562-1.032 1.03-1.36.485-.328 1.063-.328.828 0 1.688.531l-.563 1.516q-.61-.36-1.203-.36-.547 0-.969.329-.421.328-.609.89-.281.875-.281 1.922v5.063h-1.625zm5.619-4.844q0-2.688 1.484-3.969 1.25-1.078 3.047-1.078 2 0 3.266 1.313 1.265 1.296 1.265 3.609 0 1.86-.562 2.937-.563 1.063-1.64 1.657-1.063.593-2.329.593-2.031 0-3.281-1.296-1.25-1.313-1.25-3.766zm1.687 0q0 1.86.797 2.797.813.922 2.047.922 1.219 0 2.031-.922.813-.938.813-2.844 0-1.797-.813-2.719-.812-.922-2.031-.922-1.234 0-2.047.922-.797.907-.797 2.766zm9.298 4.844v-9.672h1.469v1.36q.453-.72 1.203-1.141.765-.438 1.718-.438 1.079 0 1.766.453.688.438.969 1.235 1.156-1.688 2.984-1.688 1.453 0 2.219.797.781.797.781 2.453v6.64h-1.64v-6.093q0-.984-.157-1.406-.156-.438-.578-.703-.422-.266-.984-.266-1.016 0-1.688.687-.672.672-.672 2.157v5.625h-1.64v-6.282q0-1.093-.406-1.64-.407-.547-1.313-.547-.687 0-1.281.36-.594.359-.86 1.062-.25.703-.25 2.031v5.016h-1.64zm14.931-4.844q0-2.688 1.485-3.969 1.25-1.078 3.047-1.078 2 0 3.265 1.313 1.266 1.296 1.266 3.609 0 1.86-.563 2.937-.562 1.063-1.64 1.657-1.063.593-2.328.593-2.032 0-3.282-1.296-1.25-1.313-1.25-3.766zm1.688 0q0 1.86.797 2.797.812.922 2.047.922 1.218 0 2.03-.922.813-.938.813-2.844 0-1.797-.812-2.719-.813-.922-2.031-.922-1.235 0-2.047.922-.797.907-.797 2.766zm12.875 3.375l.235 1.453q-.688.14-1.235.14-.89 0-1.39-.28-.485-.282-.688-.735-.203-.469-.203-1.937v-5.579h-1.203v-1.265h1.203v-2.39l1.625-.985v3.375h1.656v1.265h-1.656v5.672q0 .688.078.89.094.204.282.329.203.11.578.11.265 0 .718-.063zm8.23-1.64l1.688.202q-.406 1.485-1.484 2.313-1.078.812-2.766.812-2.125 0-3.375-1.296-1.234-1.313-1.234-3.672 0-2.453 1.25-3.797 1.265-1.344 3.265-1.344 1.938 0 3.157 1.328 1.234 1.313 1.234 3.703v.438h-7.219q.094 1.594.907 2.453.812.844 2.015.844.906 0 1.547-.47.64-.483 1.016-1.515zm-5.39-2.657h5.406q-.11-1.219-.625-1.828-.78-.953-2.03-.953-1.126 0-1.907.765-.766.75-.844 2.016zm15.407 5.766v-1.22q-.906 1.438-2.703 1.438-1.156 0-2.125-.64-.969-.64-1.5-1.781t-.531-2.625q0-1.454.484-2.625.484-1.188 1.438-1.813.968-.625 2.171-.625.875 0 1.547.375.688.36 1.11.953v-4.797h1.64v13.36h-1.531zm-5.172-4.828q0 1.859.781 2.78.782.923 1.844.923 1.078 0 1.828-.875.75-.891.75-2.688 0-1.984-.765-2.906-.766-.938-1.891-.938-1.078 0-1.812.891-.735.89-.735 2.813zm14.622 4.828v-13.36h2.656l3.156 9.453q.438 1.329.64 1.985.235-.735.704-2.14l3.203-9.298h2.375v13.36h-1.703V126.33l-3.875 11.172h-1.594l-3.86-11.375v11.375h-1.702zm22.01-3.11l1.687.203q-.407 1.485-1.485 2.313-1.078.812-2.765.812-2.125 0-3.375-1.296-1.235-1.313-1.235-3.672 0-2.453 1.25-3.797 1.266-1.344 3.266-1.344 1.937 0 3.156 1.328 1.235 1.313 1.235 3.703v.438h-7.22q.095 1.594.907 2.453.813.844 2.016.844.906 0 1.547-.47.64-.483 1.015-1.515zm-5.391-2.656h5.406q-.11-1.219-.625-1.828-.781-.953-2.031-.953-1.125 0-1.907.765-.765.75-.843 2.016zm12.72 4.297l.233 1.453q-.687.14-1.234.14-.89 0-1.39-.28-.485-.282-.688-.735-.203-.469-.203-1.937v-5.579h-1.203v-1.265h1.203v-2.39l1.625-.985v3.375h1.656v1.265h-1.656v5.672q0 .688.078.89.094.204.281.329.203.11.578.11.266 0 .72-.063zm1.589 1.469v-9.672h1.468v1.469q.563-1.032 1.032-1.36.484-.328 1.062-.328.828 0 1.688.531l-.563 1.516q-.61-.36-1.203-.36-.547 0-.969.329-.422.328-.61.89-.28.875-.28 1.922v5.063h-1.625zm6.228-11.47v-1.89h1.64v1.89h-1.64zm0 11.47v-9.672h1.64v9.672h-1.64zm10.457-3.547l1.61.219q-.266 1.656-1.36 2.609-1.078.937-2.672.937-1.984 0-3.187-1.296-1.203-1.297-1.203-3.72 0-1.577.515-2.75.516-1.171 1.578-1.75 1.063-.593 2.313-.593 1.578 0 2.578.797 1 .797 1.281 2.266l-1.593.234q-.235-.969-.813-1.453-.578-.5-1.39-.5-1.235 0-2.016.89-.781.891-.781 2.813 0 1.953.75 2.844.75.875 1.953.875.968 0 1.61-.594.655-.594.827-1.828zm2.36.656l1.625-.25q.125.969.75 1.5.625.516 1.75.516t1.671-.453q.547-.47.547-1.094 0-.547-.484-.875-.328-.219-1.672-.547-1.812-.469-2.516-.797-.687-.328-1.046-.906-.36-.594-.36-1.313 0-.64.297-1.187.297-.563.813-.922.375-.281 1.03-.469.673-.203 1.423-.203 1.14 0 2 .328.86.328 1.265.89.422.563.578 1.5l-1.609.22q-.11-.75-.64-1.172-.516-.422-1.47-.422-1.14 0-1.624.375-.469.375-.469.875 0 .312.187.578.204.266.641.437.234.094 1.438.422 1.75.453 2.437.75.688.297 1.078.86.39.562.39 1.406 0 .828-.484 1.547-.468.719-1.375 1.125-.906.39-2.046.39-1.875 0-2.875-.78-.985-.782-1.25-2.329zm12.872 2.89l5.125-13.359h1.906l5.469 13.36H491.7l-1.547-4.047h-5.594l-1.468 4.047h-1.875zm3.86-5.484h4.53l-1.406-3.703q-.625-1.687-.937-2.765-.266 1.28-.72 2.546l-1.468 3.922zm10.052 5.485v-13.36h5.047q1.328 0 2.031.125.969.172 1.64.64.673.454 1.079 1.282.406.828.406 1.828 0 1.703-1.094 2.89-1.078 1.173-3.921 1.173h-3.422v5.422h-1.766zm1.766-7h3.453q1.719 0 2.437-.641.719-.64.719-1.797 0-.844-.422-1.437-.422-.594-1.125-.782-.437-.125-1.64-.125h-3.422v4.782zm10.974 7v-13.36h1.766v13.36h-1.766zm4.028-2.891l1.625-.25q.125.969.75 1.5.625.516 1.75.516t1.671-.453q.547-.47.547-1.094 0-.547-.484-.875-.328-.219-1.672-.547-1.812-.469-2.516-.797-.687-.328-1.046-.906-.36-.594-.36-1.313 0-.64.297-1.187.297-.563.813-.922.375-.281 1.03-.469.673-.203 1.423-.203 1.14 0 2 .328.86.328 1.265.89.422.563.578 1.5l-1.609.22q-.11-.75-.64-1.172-.516-.422-1.47-.422-1.14 0-1.624.375-.47.375-.47.875 0 .312.188.578.204.266.641.437.234.094 1.438.422 1.75.453 2.437.75.688.297 1.078.86.39.562.39 1.406 0 .828-.484 1.547-.468.719-1.375 1.125-.906.39-2.046.39-1.875 0-2.875-.78-.985-.782-1.25-2.329z"/></g></svg>