<svg viewBox="140.387 104.514 591.467 342.608" fill="none" stroke-linecap="square" stroke-miterlimit="10" xmlns="http://www.w3.org/2000/svg"><clipPath id="a"><path d="M0 0h1024v768H0V0z"/></clipPath><g clip-path="url(#a)"><path fill="none" d="M0 0h1024v768H0z"/><path fill="none" d="M138.73 110.583h83.968v42.015H138.73z"/><path fill="#666" d="M155.15 137.503v-5.657l-5.156-7.703h2.156l2.64 4.032q.72 1.125 1.345 2.265.609-1.047 1.468-2.36l2.578-3.937h2.063l-5.328 7.703v5.657h-1.766zm6.152-4.844q0-2.688 1.484-3.969 1.25-1.078 3.047-1.078 2 0 3.266 1.313 1.266 1.296 1.266 3.609 0 1.86-.563 2.937-.562 1.063-1.64 1.657-1.063.593-2.329.593-2.03 0-3.28-1.296-1.25-1.313-1.25-3.766zm1.688 0q0 1.86.796 2.797.813.922 2.047.922 1.22 0 2.032-.922.812-.938.812-2.844 0-1.797-.812-2.719-.813-.922-2.032-.922-1.234 0-2.047.922-.796.907-.796 2.766zm15.625 4.844v-1.422q-1.125 1.64-3.062 1.64-.86 0-1.61-.328-.734-.328-1.093-.828-.36-.5-.5-1.219-.11-.468-.11-1.53v-5.985h1.64v5.36q0 1.28.11 1.734.157.64.657 1.015.5.375 1.234.375t1.375-.375q.656-.39.922-1.031.265-.656.265-1.89v-5.188h1.641v9.672h-1.469zm4.032 0v-9.672h1.469v1.469q.563-1.032 1.031-1.36.485-.328 1.063-.328.828 0 1.687.531l-.562 1.516q-.61-.36-1.203-.36-.547 0-.97.329-.421.328-.608.89-.282.875-.282 1.922v5.063h-1.625zm20.38-13.36h1.766v7.719q0 2.016-.453 3.203-.453 1.188-1.64 1.938-1.188.734-3.125.734-1.875 0-3.079-.64-1.187-.657-1.703-1.876-.5-1.234-.5-3.359v-7.719h1.766v7.719q0 1.734.312 2.563.329.812 1.11 1.265.797.453 1.937.453 1.953 0 2.782-.89.828-.891.828-3.391v-7.719zm5.005 13.36v-13.36h1.765v13.36h-1.765z"/><path fill="none" d="M324.045 101.283h170.929V143.3h-170.93z"/><path fill="#666" d="M348.687 128.203v-5.656l-5.156-7.703h2.156l2.641 4.031q.719 1.125 1.344 2.266.61-1.047 1.469-2.36l2.578-3.937h2.062l-5.328 7.703v5.656h-1.766zm6.152-4.843q0-2.688 1.485-3.969 1.25-1.078 3.047-1.078 2 0 3.265 1.312 1.266 1.297 1.266 3.61 0 1.86-.563 2.937-.562 1.063-1.64 1.656-1.063.594-2.328.594-2.032 0-3.282-1.297-1.25-1.312-1.25-3.765zm1.688 0q0 1.86.797 2.797.812.921 2.047.921 1.218 0 2.03-.921.813-.938.813-2.844 0-1.797-.812-2.719-.813-.922-2.031-.922-1.235 0-2.047.922-.797.906-.797 2.766zm15.626 4.843v-1.421q-1.125 1.64-3.063 1.64-.86 0-1.61-.328-.734-.328-1.093-.828-.36-.5-.5-1.219-.11-.469-.11-1.531v-5.984h1.641v5.359q0 1.281.11 1.734.156.641.656 1.016t1.234.375q.735 0 1.375-.375.656-.39.922-1.031.266-.657.266-1.89v-5.188h1.64v9.671h-1.468zm4.032 0v-9.671h1.468V120q.563-1.03 1.032-1.359.484-.328 1.062-.328.828 0 1.688.531l-.563 1.516q-.61-.36-1.203-.36-.547 0-.969.328-.422.329-.61.891-.28.875-.28 1.922v5.062h-1.625zm9.116 0l5.125-13.359h1.906l5.469 13.36h-2.016l-1.547-4.047h-5.594l-1.468 4.046H385.3zm3.859-5.484h4.531l-1.406-3.703q-.625-1.688-.938-2.766-.265 1.282-.718 2.547l-1.47 3.922zm10.053 5.484v-13.359h5.047q1.328 0 2.031.125.969.172 1.64.64.673.454 1.079 1.282.406.828.406 1.828 0 1.703-1.094 2.89-1.078 1.173-3.922 1.173h-3.421v5.421h-1.766zm1.766-7h3.453q1.718 0 2.437-.64.719-.64.719-1.797 0-.844-.422-1.438-.422-.593-1.125-.78-.437-.126-1.64-.126h-3.422v4.781zm10.974 7v-13.359h1.766v13.36h-1.766zm9.476-4.296l1.657-.141q.125 1 .546 1.64.438.641 1.344 1.047.922.391 2.063.391 1 0 1.78-.297.782-.297 1.157-.812.375-.532.375-1.157t-.375-1.093q-.36-.469-1.187-.797-.547-.203-2.39-.64-1.83-.454-2.563-.845-.97-.5-1.438-1.234-.469-.75-.469-1.672 0-1 .578-1.875.579-.89 1.672-1.344 1.11-.453 2.453-.453 1.485 0 2.61.485 1.14.468 1.75 1.406.61.922.656 2.094l-1.687.125q-.141-1.266-.938-1.907-.781-.656-2.312-.656-1.61 0-2.344.594-.735.594-.735 1.422 0 .719.532 1.172.5.468 2.656.968 2.156.485 2.953.844 1.172.531 1.719 1.36.562.828.562 1.906 0 1.062-.61 2.015-.608.938-1.75 1.47-1.14.515-2.577.515-1.813 0-3.047-.531-1.219-.532-1.922-1.594-.687-1.063-.719-2.406zm19.46 1.187l1.687.203q-.406 1.485-1.484 2.313-1.078.812-2.766.812-2.125 0-3.375-1.297-1.234-1.312-1.234-3.672 0-2.453 1.25-3.796 1.265-1.344 3.265-1.344 1.938 0 3.157 1.328 1.234 1.312 1.234 3.703v.438h-7.219q.094 1.593.906 2.453.813.843 2.016.843.906 0 1.547-.468.64-.485 1.016-1.516zm-5.391-2.656h5.406q-.11-1.219-.625-1.828-.781-.953-2.031-.953-1.125 0-1.906.765-.766.75-.844 2.016zm9.126 5.765v-9.671h1.468V120q.563-1.03 1.032-1.359.484-.328 1.062-.328.828 0 1.688.531l-.563 1.516q-.61-.36-1.203-.36-.547 0-.969.328-.422.329-.61.891-.28.875-.28 1.922v5.062h-1.625zm8.915 0l-3.687-9.671h1.734l2.078 5.796q.329.938.625 1.938.204-.766.61-1.828l2.14-5.906h1.688l-3.656 9.671h-1.532zm13.266-3.109l1.688.203q-.407 1.485-1.485 2.313-1.078.812-2.765.812-2.125 0-3.375-1.297-1.235-1.312-1.235-3.672 0-2.453 1.25-3.796 1.266-1.344 3.266-1.344 1.937 0 3.156 1.328 1.234 1.312 1.234 3.703v.438h-7.218q.093 1.593.906 2.453.812.843 2.016.843.906 0 1.546-.468.641-.485 1.016-1.516zm-5.39-2.656h5.406q-.11-1.219-.625-1.828-.782-.953-2.032-.953-1.125 0-1.906.765-.765.75-.844 2.016zm9.125 5.765v-9.671h1.469V120q.562-1.03 1.031-1.359.485-.328 1.063-.328.828 0 1.687.531l-.562 1.516q-.61-.36-1.203-.36-.547 0-.97.328-.421.329-.609.891-.28.875-.28 1.922v5.062h-1.626z"/><path fill="#cfe2f3" d="M148.399 200.974c0-17.847 14.468-32.315 32.315-32.315 17.847 0 32.315 14.468 32.315 32.315 0 17.847-14.468 32.315-32.315 32.315-17.847 0-32.315-14.468-32.315-32.315z" fill-rule="evenodd"/><path fill="#a5b4c2" d="M166.995 191.31a3.366 3.366 0 116.732 0 3.366 3.366 0 01-6.732 0m20.706 0a3.366 3.366 0 116.732 0 3.366 3.366 0 01-6.732 0" fill-rule="evenodd"/><path fill="none" d="M163.199 215.067q17.515 12.028 34.989 0M148.399 200.974c0-17.847 14.468-32.315 32.315-32.315 17.847 0 32.315 14.468 32.315 32.315 0 17.847-14.468 32.315-32.315 32.315-17.847 0-32.315-14.468-32.315-32.315z"/><path stroke="#000" stroke-linejoin="round" stroke-linecap="butt" d="M166.995 191.31a3.366 3.366 0 116.732 0 3.366 3.366 0 01-6.732 0m20.706 0a3.366 3.366 0 116.732 0 3.366 3.366 0 01-6.732 0M163.199 215.067q17.515 12.028 34.989 0"/><path stroke="#000" stroke-linejoin="round" stroke-linecap="butt" d="M148.399 200.974h0c0-17.847 14.468-32.315 32.315-32.315 17.847 0 32.315 14.468 32.315 32.315 0 17.847-14.468 32.315-32.315 32.315-17.847 0-32.315-14.468-32.315-32.315z"/><path fill="#cfe2f3" d="M319.634 168.659h179.748v64.63H319.634z" fill-rule="evenodd"/><path stroke="#000" stroke-linejoin="round" stroke-linecap="butt" d="M319.634 168.659h179.748v64.63H319.634z"/><path fill="#000" d="M349.436 203.206l1.766.453q-.563 2.172-2 3.329-1.438 1.14-3.531 1.14-2.157 0-3.516-.875-1.344-.89-2.063-2.547-.703-1.672-.703-3.593 0-2.079.797-3.625.797-1.563 2.266-2.36 1.484-.812 3.25-.812 2 0 3.36 1.015 1.374 1.016 1.905 2.875l-1.734.407q-.469-1.454-1.36-2.11-.874-.672-2.202-.672-1.547 0-2.579.735-1.03.734-1.453 1.984-.422 1.234-.422 2.563 0 1.703.5 2.968.5 1.266 1.547 1.907 1.047.625 2.266.625 1.484 0 2.516-.86 1.03-.86 1.39-2.547zm3.13-.156q0-2.688 1.484-3.969 1.25-1.078 3.047-1.078 2 0 3.265 1.313 1.266 1.297 1.266 3.609 0 1.86-.563 2.938-.562 1.062-1.64 1.656-1.063.594-2.328.594-2.032 0-3.282-1.297-1.25-1.313-1.25-3.766zm1.687 0q0 1.86.797 2.797.812.922 2.047.922 1.218 0 2.03-.922.813-.938.813-2.844 0-1.797-.812-2.719-.813-.921-2.031-.921-1.235 0-2.047.921-.797.907-.797 2.766zm9.298 4.844v-9.672h1.468v1.375q1.063-1.594 3.078-1.594.875 0 1.61.313.734.312 1.094.828.375.5.515 1.203.094.453.094 1.594v5.953h-1.64v-5.89q0-1-.204-1.485-.187-.5-.672-.797-.484-.297-1.14-.297-1.047 0-1.813.672-.75.656-.75 2.516v5.28h-1.64zm13.953-1.469l.235 1.453q-.688.14-1.235.14-.89 0-1.39-.28-.485-.282-.688-.735-.203-.469-.203-1.937v-5.578h-1.203v-1.266h1.203v-2.39l1.625-.985v3.375h1.656v1.266h-1.656v5.671q0 .688.078.891.094.203.281.328.204.11.579.11.265 0 .718-.063zm8.23-1.64l1.688.203q-.406 1.484-1.484 2.312-1.078.813-2.766.813-2.125 0-3.375-1.297-1.234-1.313-1.234-3.672 0-2.453 1.25-3.797 1.265-1.344 3.265-1.344 1.938 0 3.157 1.328 1.234 1.313 1.234 3.703v.438h-7.219q.094 1.594.906 2.453.813.844 2.016.844.906 0 1.547-.469.64-.484 1.016-1.516zm-5.39-2.657h5.406q-.11-1.219-.625-1.828-.781-.953-2.031-.953-1.125 0-1.906.766-.766.75-.844 2.015zm9.141 5.766v-9.672h1.469v1.375q1.062-1.594 3.078-1.594.875 0 1.61.313.734.312 1.093.828.375.5.516 1.203.094.453.094 1.594v5.953h-1.641v-5.89q0-1-.203-1.485-.188-.5-.672-.797-.484-.297-1.14-.297-1.048 0-1.813.672-.75.656-.75 2.516v5.28h-1.64zm13.954-1.469l.234 1.453q-.687.14-1.234.14-.89 0-1.39-.28-.485-.282-.688-.735-.203-.469-.203-1.937v-5.578h-1.203v-1.266h1.203v-2.39l1.625-.985v3.375h1.656v1.266h-1.656v5.671q0 .688.078.891.094.203.281.328.203.11.578.11.266 0 .72-.063zm6.945 1.469v-13.36h2.656l3.156 9.454q.438 1.328.64 1.984.235-.734.704-2.14l3.203-9.298h2.375v13.36h-1.703v-11.172l-3.875 11.172h-1.594l-3.86-11.375v11.375h-1.702zm21.712 0v-1.422q-1.125 1.64-3.062 1.64-.86 0-1.61-.328-.734-.328-1.093-.828-.36-.5-.5-1.218-.11-.47-.11-1.532v-5.984h1.641v5.36q0 1.28.11 1.734.156.64.656 1.015.5.375 1.234.375t1.375-.375q.656-.39.922-1.031.266-.656.266-1.89v-5.188h1.64v9.672h-1.469zm7.626-1.469l.235 1.453q-.688.14-1.235.14-.89 0-1.39-.28-.485-.282-.688-.735-.203-.469-.203-1.937v-5.578h-1.203v-1.266h1.203v-2.39l1.625-.985v3.375h1.656v1.266h-1.656v5.671q0 .688.078.891.094.203.281.328.203.11.578.11.266 0 .72-.063zm7.918.281q-.922.766-1.766 1.094-.828.313-1.797.313-1.593 0-2.453-.782-.86-.781-.86-1.984 0-.719.329-1.297.328-.594.844-.938.531-.359 1.187-.546.469-.125 1.453-.25 1.985-.235 2.922-.563.016-.344.016-.422 0-1-.469-1.422-.625-.546-1.875-.546-1.156 0-1.703.406-.547.406-.812 1.422l-1.61-.22q.219-1.015.719-1.64.5-.64 1.453-.984.953-.344 2.188-.344 1.25 0 2.015.297.781.281 1.14.734.376.438.516 1.11.079.422.079 1.515v2.188q0 2.281.109 2.89.11.594.406 1.157h-1.703q-.266-.516-.328-1.188zm-.14-3.672q-.891.375-2.673.625-1.015.141-1.437.329-.422.187-.656.53-.22.345-.22.782 0 .656.5 1.094.5.437 1.454.437.938 0 1.672-.406.75-.422 1.094-1.14.265-.563.265-1.641v-.61zm7.781 3.391l.235 1.453q-.688.14-1.235.14-.89 0-1.39-.28-.485-.282-.688-.735-.203-.469-.203-1.937v-5.578h-1.203v-1.266H452v-2.39l1.625-.985v3.375h1.656v1.266h-1.656v5.671q0 .688.078.891.094.203.281.328.203.11.578.11.266 0 .72-.063zm1.605-10v-1.89h1.641v1.89h-1.64zm0 11.469v-9.672h1.641v9.672h-1.64zm3.536-4.844q0-2.688 1.484-3.969 1.25-1.078 3.047-1.078 2 0 3.266 1.313 1.265 1.297 1.265 3.609 0 1.86-.562 2.938-.563 1.062-1.64 1.656-1.063.594-2.329.594-2.031 0-3.281-1.297-1.25-1.313-1.25-3.766zm1.687 0q0 1.86.797 2.797.813.922 2.047.922 1.219 0 2.031-.922.813-.938.813-2.844 0-1.797-.813-2.719-.812-.921-2.03-.921-1.235 0-2.048.921-.797.907-.797 2.766zm9.298 4.844v-9.672h1.469v1.375q1.062-1.594 3.078-1.594.875 0 1.61.313.734.312 1.093.828.375.5.516 1.203.093.453.093 1.594v5.953h-1.64v-5.89q0-1-.203-1.485-.188-.5-.672-.797-.485-.297-1.14-.297-1.048 0-1.813.672-.75.656-.75 2.516v5.28h-1.641z"/><path fill="#cfe2f3" d="M606.997 372.451h116.441v64.63h-116.44z" fill-rule="evenodd"/><path stroke="#000" stroke-linejoin="round" stroke-linecap="butt" d="M606.997 372.451h116.441v64.63h-116.44z"/><path fill="none" d="M233.715 200.974h79.307"/><path stroke="#000" stroke-linejoin="round" stroke-linecap="butt" d="M233.715 200.974h73.307"/><path fill="#000" stroke="#000" stroke-linecap="butt" d="M307.022 202.625l4.538-1.651-4.538-1.652z" fill-rule="evenodd"/><path fill="none" d="M229.183 124.047h83.969v72.725h-83.969z"/><path fill="#000" d="M243.636 147.127h-1.28v-8.203q-.47.438-1.22.89-.75.438-1.36.657v-1.25q1.08-.5 1.892-1.219.812-.734 1.14-1.406h.828v10.531zm4.026 0v-1.469h1.47v1.47h-1.47zm14.832-10.484h1.39v6.047q0 1.593-.359 2.531-.36.922-1.297 1.5-.937.578-2.453.578-1.469 0-2.406-.5-.938-.516-1.344-1.469-.39-.968-.39-2.64v-6.047h1.39v6.047q0 1.375.25 2.015.25.641.86 1 .624.344 1.53.344 1.532 0 2.173-.687.656-.704.656-2.672v-6.047zm3.022 8.219l1.265-.204q.11.766.594 1.172.5.407 1.375.407.89 0 1.313-.36.437-.36.437-.844 0-.437-.375-.687-.266-.172-1.312-.438-1.422-.359-1.97-.609-.546-.266-.827-.734-.282-.469-.282-1.016 0-.516.22-.937.234-.438.64-.735.297-.219.812-.36.532-.155 1.125-.155.89 0 1.563.265.672.25 1 .688.328.437.437 1.172l-1.25.171q-.093-.578-.5-.906-.406-.344-1.156-.344-.89 0-1.281.297-.375.297-.375.688 0 .25.156.453t.5.344q.188.078 1.14.328 1.36.36 1.891.594.547.234.86.687.312.438.312 1.094 0 .64-.375 1.219-.375.562-1.094.875-.703.312-1.593.312-1.485 0-2.266-.61-.766-.624-.984-1.827zm13.047-.188l1.328.172q-.313 1.172-1.172 1.812-.844.641-2.172.641-1.672 0-2.656-1.016-.97-1.03-.97-2.89 0-1.922.985-2.969 1-1.062 2.578-1.062 1.516 0 2.485 1.03.969 1.032.969 2.923 0 .11-.016.343h-5.656q.062 1.25.703 1.922.64.657 1.594.657.703 0 1.203-.36.5-.375.797-1.203zm-4.235-2.078h4.25q-.094-.953-.484-1.438-.625-.75-1.61-.75-.875 0-1.484.594-.61.594-.672 1.594zm7.167 4.531v-7.594h1.156v1.141q.453-.797.828-1.047.375-.265.813-.265.656 0 1.328.406l-.438 1.203q-.468-.281-.953-.281-.422 0-.765.25-.329.25-.47.703-.218.687-.218 1.5v3.984h-1.281zM244.105 161.946l1.266.156q-.203 1.313-1.063 2.063-.844.734-2.094.734-1.562 0-2.515-1.016-.938-1.03-.938-2.921 0-1.235.407-2.157.406-.922 1.234-1.375.844-.468 1.812-.468 1.25 0 2.032.625.78.625 1.015 1.765l-1.265.203q-.172-.765-.625-1.156-.453-.39-1.094-.39-.984 0-1.594.703-.61.703-.61 2.203 0 1.531.579 2.234.594.688 1.547.688.75 0 1.265-.453.516-.47.641-1.438zm2.375 2.781v-10.484h1.281v3.75q.907-1.031 2.282-1.031.843 0 1.468.328t.89.922q.267.578.267 1.703v4.812h-1.282v-4.812q0-.969-.422-1.406-.421-.438-1.187-.438-.578 0-1.078.297-.5.297-.719.812-.219.5-.219 1.391v4.156h-1.28zm13.104-.937q-.718.61-1.375.86-.656.25-1.422.25-1.25 0-1.921-.61-.672-.61-.672-1.563 0-.562.25-1.015.25-.47.656-.75.422-.282.937-.422.375-.094 1.141-.188 1.563-.187 2.297-.453.016-.266.016-.328 0-.797-.375-1.11-.485-.437-1.454-.437-.921 0-1.359.328-.422.313-.625 1.11l-1.266-.172q.172-.797.563-1.297.39-.5 1.14-.766.75-.265 1.72-.265.984 0 1.593.234.61.219.89.563.282.343.407.875.062.328.062 1.187v1.719q0 1.797.079 2.281.078.469.328.906h-1.344q-.203-.406-.266-.937zm-.11-2.875q-.702.281-2.093.484-.797.11-1.125.266-.328.14-.515.422-.172.265-.172.593 0 .516.39.86t1.14.344q.735 0 1.313-.313.594-.328.86-.89.203-.438.203-1.298v-.468zm3.308 3.812v-7.594h1.157v1.079q.843-1.25 2.421-1.25.688 0 1.266.25.578.234.86.64.28.406.406.953.062.36.062 1.25v4.672h-1.281v-4.625q0-.781-.156-1.172-.157-.39-.547-.625-.375-.234-.89-.234-.813 0-1.423.531-.593.516-.593 1.969v4.156h-1.282zm7.917.625l1.25.188q.078.578.438.844.468.359 1.312.359.89 0 1.375-.36.484-.359.656-1 .11-.39.094-1.656-.844 1-2.11 1-1.562 0-2.421-1.125-.86-1.14-.86-2.719 0-1.093.391-2 .406-.921 1.14-1.421.75-.5 1.766-.5 1.344 0 2.219 1.078v-.906h1.188v6.562q0 1.781-.36 2.516-.36.734-1.156 1.156-.781.437-1.922.437-1.36 0-2.203-.609-.828-.61-.797-1.844zm1.063-4.562q0 1.5.593 2.187.594.688 1.485.688.89 0 1.484-.688.61-.687.61-2.14 0-1.391-.626-2.094-.609-.719-1.484-.719-.86 0-1.469.703-.593.688-.593 2.063zm12.526 1.484l1.328.172q-.313 1.172-1.172 1.813-.844.64-2.172.64-1.672 0-2.656-1.016-.969-1.03-.969-2.89 0-1.922.984-2.969 1-1.062 2.579-1.062 1.515 0 2.484 1.03.969 1.032.969 2.923 0 .11-.016.344h-5.656q.062 1.25.703 1.921.64.657 1.594.657.703 0 1.203-.36.5-.375.797-1.203zm-4.235-2.078h4.25q-.093-.953-.484-1.438-.625-.75-1.61-.75-.874 0-1.484.594t-.672 1.594zm6.667 2.266l1.266-.203q.109.765.593 1.171.5.407 1.375.407.891 0 1.313-.36.437-.36.437-.844 0-.437-.375-.687-.265-.172-1.312-.438-1.422-.359-1.969-.609-.547-.266-.828-.734-.281-.469-.281-1.016 0-.516.218-.937.235-.438.641-.735.297-.219.813-.36.53-.155 1.125-.155.89 0 1.562.265.672.25 1 .688.328.437.438 1.172l-1.25.172q-.094-.579-.5-.907-.407-.344-1.157-.344-.89 0-1.28.297-.376.297-.376.688 0 .25.156.453.157.203.5.344.188.078 1.141.328 1.36.36 1.89.594.547.234.86.687.312.438.312 1.094 0 .64-.375 1.219-.375.562-1.093.875-.703.312-1.594.312-1.484 0-2.266-.61-.765-.624-.984-1.827zM244.105 179.546l1.266.156q-.203 1.313-1.063 2.063-.844.734-2.094.734-1.562 0-2.515-1.016-.938-1.03-.938-2.921 0-1.235.407-2.157.406-.922 1.234-1.375.844-.468 1.812-.468 1.25 0 2.032.625.78.625 1.015 1.765l-1.265.203q-.172-.765-.625-1.156-.453-.39-1.094-.39-.984 0-1.594.703-.61.703-.61 2.203 0 1.531.579 2.234.594.688 1.547.688.75 0 1.265-.454.516-.468.641-1.437zm1.89-1.016q0-2.109 1.173-3.125.984-.843 2.39-.843 1.578 0 2.563 1.03 1 1.016 1 2.829 0 1.469-.438 2.312-.437.829-1.281 1.297-.844.47-1.844.47-1.594 0-2.578-1.017-.984-1.03-.984-2.953zm1.329 0q0 1.453.625 2.188.64.719 1.61.719.968 0 1.593-.72.64-.734.64-2.234 0-1.406-.64-2.125-.64-.734-1.594-.734-.969 0-1.61.719-.624.719-.624 2.187zm7.307 3.797v-7.594h1.156v1.079q.844-1.25 2.422-1.25.688 0 1.266.25.578.234.86.64.28.406.406.953.062.36.062 1.25v4.672h-1.281v-4.625q0-.781-.156-1.172-.157-.39-.547-.625-.375-.234-.891-.234-.812 0-1.422.531-.594.516-.594 1.969v4.156h-1.28zm10.964-1.156l.187 1.14q-.547.11-.984.11-.688 0-1.078-.219-.39-.219-.547-.578-.156-.36-.156-1.516v-4.375h-.953v-1h.953v-1.89l1.28-.766v2.656h1.298v1h-1.297v4.438q0 .547.062.719.079.156.22.25.155.078.452.078.203 0 .563-.047zm6.462-1.297l1.328.172q-.312 1.172-1.171 1.812-.844.641-2.172.641-1.672 0-2.657-1.016-.968-1.03-.968-2.89 0-1.922.984-2.969 1-1.062 2.578-1.062 1.516 0 2.485 1.03.968 1.032.968 2.923 0 .11-.015.343h-5.657q.063 1.25.704 1.922.64.657 1.593.657.703 0 1.203-.36.5-.375.797-1.203zm-4.234-2.078h4.25q-.094-.953-.484-1.438-.625-.75-1.61-.75-.875 0-1.484.594-.61.594-.672 1.594zm7.182 4.531v-7.594h1.157v1.079q.843-1.25 2.421-1.25.688 0 1.266.25.578.234.86.64.28.406.406.953.062.36.062 1.25v4.672h-1.281v-4.625q0-.781-.156-1.172-.157-.39-.547-.625-.375-.234-.89-.234-.813 0-1.423.531-.593.516-.593 1.969v4.156h-1.282zm10.964-1.156l.187 1.14q-.546.11-.984.11-.687 0-1.078-.219-.39-.219-.547-.578-.156-.36-.156-1.516v-4.375h-.953v-1h.953v-1.89l1.281-.766v2.656h1.297v1h-1.297v4.438q0 .547.063.719.078.156.218.25.157.078.453.078.204 0 .563-.047zm1.619 1.156v-1.469h1.469v1.47h-1.47z"/><path fill="none" d="M458.793 249.976l150.582 51.213"/><path stroke="#000" stroke-linejoin="round" stroke-linecap="butt" d="M458.793 249.976l144.902 49.281"/><path fill="#000" stroke="#000" stroke-linecap="butt" d="M603.163 300.82l4.828-.102-3.764-3.025z" fill-rule="evenodd"/><path fill="none" d="M590.365 303.068h154.834v64.63H590.365z"/><path fill="#000" d="M628.778 329.988v-13.36h5.047q1.328 0 2.031.126.969.172 1.64.64.673.454 1.079 1.282.406.828.406 1.828 0 1.703-1.094 2.89-1.078 1.172-3.921 1.172h-3.422v5.422h-1.766zm1.766-7h3.453q1.719 0 2.437-.64.719-.641.719-1.797 0-.844-.422-1.438t-1.125-.781q-.437-.125-1.64-.125h-3.422v4.781zm10.459 7v-9.672h1.469v1.47q.562-1.032 1.03-1.36.485-.328 1.063-.328.828 0 1.688.53l-.563 1.517q-.609-.36-1.203-.36-.547 0-.969.328-.421.328-.609.89-.281.876-.281 1.923v5.062h-1.625zm5.619-4.844q0-2.687 1.484-3.968 1.25-1.078 3.047-1.078 2 0 3.266 1.312 1.265 1.297 1.265 3.61 0 1.859-.562 2.937-.563 1.063-1.64 1.656-1.063.594-2.329.594-2.031 0-3.281-1.297-1.25-1.312-1.25-3.766zm1.687 0q0 1.86.797 2.797.813.922 2.047.922 1.219 0 2.031-.922.813-.937.813-2.843 0-1.797-.813-2.72-.812-.921-2.031-.921-1.234 0-2.047.922-.797.906-.797 2.765zm9.298 4.844v-9.672h1.469v1.36q.453-.719 1.203-1.14.765-.438 1.718-.438 1.079 0 1.766.453.688.437.969 1.234 1.156-1.687 2.984-1.687 1.453 0 2.219.796.781.797.781 2.454v6.64h-1.64v-6.094q0-.984-.157-1.406-.156-.437-.578-.703-.422-.266-.984-.266-1.016 0-1.688.688-.672.672-.672 2.156v5.625h-1.64v-6.281q0-1.094-.406-1.64-.407-.548-1.313-.548-.687 0-1.281.36-.594.36-.86 1.062-.25.704-.25 2.032v5.015h-1.64zm14.931-4.844q0-2.687 1.485-3.968 1.25-1.078 3.047-1.078 2 0 3.265 1.312 1.266 1.297 1.266 3.61 0 1.859-.563 2.937-.562 1.063-1.64 1.656-1.063.594-2.328.594-2.032 0-3.282-1.297-1.25-1.312-1.25-3.766zm1.688 0q0 1.86.797 2.797.812.922 2.047.922 1.218 0 2.03-.922.813-.937.813-2.843 0-1.797-.812-2.72-.813-.921-2.031-.921-1.235 0-2.047.922-.797.906-.797 2.765zm12.875 3.375l.235 1.454q-.688.14-1.235.14-.89 0-1.39-.281-.485-.281-.688-.734-.203-.47-.203-1.938v-5.578h-1.203v-1.266h1.203v-2.39l1.625-.985v3.375h1.656v1.266h-1.656v5.672q0 .687.078.89.094.204.282.329.203.109.578.109.265 0 .718-.063zm8.23-1.64l1.688.203q-.406 1.484-1.484 2.313-1.078.812-2.766.812-2.125 0-3.375-1.297-1.234-1.312-1.234-3.672 0-2.453 1.25-3.797 1.265-1.343 3.265-1.343 1.938 0 3.157 1.328 1.234 1.312 1.234 3.703v.437h-7.219q.094 1.594.907 2.454.812.843 2.015.843.906 0 1.547-.469.64-.484 1.016-1.515zm-5.39-2.656h5.406q-.109-1.22-.625-1.829-.78-.953-2.03-.953-1.126 0-1.907.766-.766.75-.844 2.016zm15.407 5.765v-1.219q-.906 1.438-2.703 1.438-1.156 0-2.125-.64-.969-.641-1.5-1.782-.531-1.14-.531-2.625 0-1.453.484-2.625.484-1.187 1.438-1.812.968-.625 2.171-.625.875 0 1.547.375.688.359 1.11.953v-4.797h1.64v13.36h-1.531zm-5.172-4.828q0 1.86.781 2.781.782.922 1.844.922 1.078 0 1.828-.875.75-.89.75-2.687 0-1.985-.765-2.906-.766-.938-1.891-.938-1.078 0-1.812.89-.735.891-.735 2.813zM628.968 347.7l1.765.454q-.562 2.172-2 3.328-1.437 1.14-3.53 1.14-2.157 0-3.516-.874-1.344-.891-2.063-2.547-.703-1.672-.703-3.594 0-2.078.797-3.625.797-1.563 2.265-2.36 1.485-.812 3.25-.812 2 0 3.36 1.016 1.375 1.015 1.906 2.875l-1.734.406q-.47-1.453-1.36-2.11-.875-.671-2.203-.671-1.547 0-2.578.734t-1.453 1.984q-.422 1.235-.422 2.563 0 1.703.5 2.969.5 1.265 1.547 1.906 1.047.625 2.266.625 1.484 0 2.515-.86 1.031-.859 1.39-2.546zm3.129-.156q0-2.687 1.484-3.968 1.25-1.078 3.047-1.078 2 0 3.266 1.312 1.266 1.297 1.266 3.61 0 1.859-.563 2.937-.562 1.062-1.64 1.656-1.063.594-2.329.594-2.031 0-3.281-1.297-1.25-1.312-1.25-3.766zm1.688 0q0 1.86.796 2.797.813.922 2.047.922 1.219 0 2.032-.922.812-.937.812-2.843 0-1.797-.812-2.72-.813-.921-2.032-.921-1.234 0-2.047.922-.796.906-.796 2.765zm9.297 4.844v-9.672h1.469v1.375q1.062-1.593 3.078-1.593.875 0 1.61.312.734.313 1.093.828.375.5.516 1.203.093.453.093 1.594v5.953h-1.64v-5.89q0-1-.203-1.485-.188-.5-.672-.797-.485-.297-1.14-.297-1.048 0-1.813.672-.75.657-.75 2.516v5.281h-1.64zm13.954-1.469l.234 1.454q-.687.14-1.234.14-.89 0-1.39-.281-.485-.281-.688-.734-.203-.47-.203-1.938v-5.578h-1.203v-1.266h1.203v-2.39l1.625-.985v3.375h1.656v1.266h-1.656v5.672q0 .687.078.89.094.204.281.329.203.109.578.109.266 0 .719-.063zm8.23-1.64l1.688.203q-.407 1.484-1.485 2.312-1.078.813-2.765.813-2.125 0-3.375-1.297-1.235-1.312-1.235-3.672 0-2.453 1.25-3.797 1.266-1.343 3.266-1.343 1.937 0 3.156 1.328 1.235 1.312 1.235 3.703v.437h-7.22q.095 1.594.907 2.453.813.844 2.016.844.906 0 1.547-.469.64-.484 1.015-1.515zm-5.39-2.656h5.406q-.11-1.22-.625-1.829-.781-.953-2.031-.953-1.125 0-1.907.766-.765.75-.843 2.016zm9.14 5.765v-9.672h1.47v1.375q1.062-1.593 3.078-1.593.875 0 1.61.312.733.313 1.093.828.375.5.515 1.203.094.453.094 1.594v5.953h-1.64v-5.89q0-1-.204-1.485-.187-.5-.671-.797-.485-.297-1.141-.297-1.047 0-1.813.672-.75.657-.75 2.516v5.281h-1.64zm13.955-1.469l.234 1.454q-.687.14-1.234.14-.891 0-1.391-.281-.484-.281-.687-.734-.204-.47-.204-1.938v-5.578h-1.203v-1.266h1.203v-2.39l1.625-.985v3.375h1.657v1.266h-1.657v5.672q0 .687.079.89.093.204.28.329.204.109.579.109.266 0 .719-.063zm4.493 1.47l5.125-13.36h1.906l5.469 13.36h-2.016l-1.547-4.048h-5.594l-1.468 4.047h-1.875zm3.859-5.485h4.531l-1.406-3.703q-.625-1.688-.938-2.766-.265 1.281-.718 2.547l-1.469 3.922zm10.053 5.484v-13.36h5.047q1.328 0 2.031.126.969.172 1.64.64.673.454 1.079 1.282.406.828.406 1.828 0 1.703-1.094 2.89-1.078 1.172-3.922 1.172h-3.421v5.422h-1.766zm1.766-7h3.453q1.718 0 2.437-.64.719-.641.719-1.797 0-.844-.422-1.438t-1.125-.781q-.437-.125-1.64-.125h-3.422v4.781zm10.974 7v-13.36h1.766v13.36h-1.766z"/><path fill="#cfe2f3" d="M606.997 162.076c0 6.514 21.124 11.795 47.181 11.795 26.058 0 47.182-5.28 47.182-11.795v77.795c0 6.515-21.124 11.796-47.182 11.796-26.057 0-47.18-5.281-47.18-11.796z" fill-rule="evenodd"/><path fill="#e2edf7" d="M606.997 162.076c0-6.514 21.124-11.795 47.181-11.795 26.058 0 47.182 5.28 47.182 11.795 0 6.514-21.124 11.795-47.182 11.795-26.057 0-47.18-5.28-47.18-11.795z" fill-rule="evenodd"/><path fill="none" d="M701.36 162.076c0 6.514-21.124 11.795-47.182 11.795-26.057 0-47.18-5.28-47.18-11.795 0-6.514 21.123-11.795 47.18-11.795 26.058 0 47.182 5.28 47.182 11.795v77.795c0 6.515-21.124 11.796-47.182 11.796-26.057 0-47.18-5.281-47.18-11.796v-77.795"/><path stroke="#000" stroke-linejoin="round" stroke-linecap="butt" d="M701.36 162.076h0c0 6.514-21.124 11.795-47.182 11.795-26.057 0-47.18-5.28-47.18-11.795h0c0-6.514 21.123-11.795 47.18-11.795 26.058 0 47.182 5.28 47.182 11.795v77.795c0 6.515-21.124 11.796-47.182 11.796-26.057 0-47.18-5.281-47.18-11.796v-77.795"/><path fill="none" d="M513.535 200.974h79.308"/><path stroke="#000" stroke-linejoin="round" stroke-linecap="butt" d="M513.535 200.974h73.308"/><path fill="#000" stroke="#000" stroke-linecap="butt" d="M586.842 202.625l4.539-1.651-4.538-1.652z" fill-rule="evenodd"/><path fill="none" d="M509.002 143.3h83.969v54.928h-83.969z"/><path fill="#000" d="M525.377 165.145v1.234h-6.937q-.016-.469.156-.89.265-.72.844-1.407.593-.687 1.687-1.578 1.719-1.406 2.313-2.219.609-.828.609-1.562 0-.766-.563-1.281-.546-.532-1.421-.532-.922 0-1.485.563-.562.562-.562 1.547l-1.328-.14q.14-1.485 1.015-2.25.89-.782 2.39-.782 1.516 0 2.391.844.875.828.875 2.062 0 .64-.265 1.25-.25.594-.844 1.266t-1.984 1.86q-1.157.968-1.485 1.312-.328.343-.547.703h5.141zm2.104 1.234v-1.469h1.47v1.47h-1.47zm7.472-3.375l1.313-.11q.094.782.422 1.298.344.5 1.062.812.719.313 1.61.313.797 0 1.406-.235.61-.234.906-.64.297-.422.297-.907 0-.5-.297-.859-.281-.375-.937-.625-.422-.172-1.875-.516-1.438-.343-2.016-.656-.75-.39-1.125-.969-.36-.593-.36-1.312 0-.797.438-1.484.453-.688 1.313-1.047.875-.36 1.937-.36 1.172 0 2.063.375.89.375 1.359 1.11.484.734.516 1.656l-1.328.094q-.11-1-.735-1.5-.61-.516-1.812-.516-1.266 0-1.844.469-.578.469-.578 1.11 0 .562.422.937.39.36 2.078.75 1.703.375 2.328.656.922.422 1.36 1.078.437.64.437 1.484t-.485 1.594q-.484.735-1.39 1.14-.89.407-2.016.407-1.422 0-2.39-.406-.954-.422-1.5-1.25-.547-.828-.579-1.89zm15.042 2.438q-.72.61-1.375.86-.657.25-1.422.25-1.25 0-1.922-.61-.672-.61-.672-1.563 0-.562.25-1.015.25-.47.656-.75.422-.282.938-.422.375-.094 1.14-.188 1.563-.187 2.297-.453.016-.266.016-.328 0-.797-.375-1.11-.484-.437-1.453-.437-.922 0-1.36.328-.421.313-.625 1.11l-1.265-.172q.172-.797.562-1.297.39-.5 1.14-.766.75-.265 1.72-.265.984 0 1.593.234.61.219.891.562.281.344.406.875.063.329.063 1.188v1.719q0 1.797.078 2.281.078.469.328.906h-1.344q-.203-.406-.265-.937zm-.11-2.875q-.703.281-2.093.484-.797.11-1.125.266-.329.14-.516.422-.172.265-.172.593 0 .516.39.86.391.343 1.141.343.735 0 1.313-.312.594-.328.86-.89.202-.438.202-1.298v-.468zm5.417 3.812l-2.89-7.594h1.359l1.625 4.547q.265.735.5 1.532.156-.61.469-1.454l1.687-4.625h1.328l-2.875 7.594h-1.203zm10.422-2.453l1.328.172q-.312 1.172-1.172 1.812-.844.641-2.172.641-1.672 0-2.656-1.016-.969-1.03-.969-2.89 0-1.922.985-2.969 1-1.062 2.578-1.062 1.515 0 2.484 1.03.969 1.032.969 2.923 0 .11-.016.343h-5.656q.063 1.25.703 1.922.64.657 1.594.657.703 0 1.203-.36.5-.375.797-1.203zm-4.234-2.078h4.25q-.094-.953-.485-1.438-.625-.75-1.61-.75-.874 0-1.484.594-.609.594-.671 1.594zm12.104 4.531v-.953q-.719 1.125-2.125 1.125-.907 0-1.672-.5-.75-.5-1.172-1.39-.422-.907-.422-2.079 0-1.14.375-2.062.39-.922 1.14-1.406.766-.5 1.704-.5.687 0 1.219.296.53.282.875.735v-3.75h1.28v10.484h-1.202zm-4.063-3.797q0 1.47.61 2.188.625.719 1.453.719.843 0 1.437-.688.594-.687.594-2.11 0-1.562-.61-2.28-.593-.735-1.484-.735-.844 0-1.422.703t-.578 2.203zM521.783 182.823l.188 1.14q-.547.11-.985.11-.687 0-1.078-.219-.39-.219-.547-.578-.156-.36-.156-1.516v-4.375h-.953v-1h.953v-1.89l1.281-.766v2.656h1.297v1h-1.297v4.438q0 .547.063.719.078.156.219.25.156.078.453.078.203 0 .562-.047zm.775-2.64q0-2.11 1.172-3.126.985-.843 2.39-.843 1.579 0 2.563 1.03 1 1.016 1 2.829 0 1.469-.437 2.312-.438.829-1.281 1.297-.844.47-1.844.47-1.594 0-2.578-1.017-.985-1.03-.985-2.953zm1.329 0q0 1.452.625 2.187.64.719 1.609.719t1.594-.72q.64-.734.64-2.234 0-1.406-.64-2.125-.641-.734-1.594-.734-.969 0-1.61.719-.624.719-.624 2.187zm11.535 3.796v-10.484h3.625q1.219 0 1.86.14.906.204 1.546.75.828.704 1.235 1.797.406 1.094.406 2.5 0 1.188-.281 2.11-.266.922-.703 1.531-.438.61-.97.953-.515.344-1.25.531-.718.172-1.671.172h-3.797zm1.39-1.234h2.25q1.032 0 1.626-.188.593-.203.937-.547.5-.5.766-1.328.281-.843.281-2.03 0-1.642-.547-2.517-.531-.89-1.312-1.187-.547-.219-1.797-.219h-2.203v8.016zm9.148 1.234v-10.484h3.937q1.203 0 1.922.312.734.313 1.14.985.407.656.407 1.375 0 .672-.375 1.265-.36.594-1.094.97.953.28 1.469.952.515.672.515 1.578 0 .75-.312 1.391-.313.625-.781.969-.453.343-1.141.515-.687.172-1.687.172h-4zm1.39-6.078h2.266q.922 0 1.312-.125.532-.156.797-.516.281-.375.281-.921 0-.532-.25-.922t-.718-.532q-.47-.156-1.594-.156h-2.094v3.172zm0 4.844h2.61q.671 0 .937-.047.484-.094.797-.297.328-.203.531-.578.219-.39.219-.89 0-.579-.313-1.016-.296-.438-.828-.61-.531-.172-1.531-.172h-2.422v3.61zm8.635 1.234v-1.469h1.469v1.47h-1.469z"/><path fill="none" d="M654.178 262.024v47.15"/><path stroke="#000" stroke-linejoin="round" stroke-linecap="butt" d="M654.178 262.024v41.15"/><path fill="#000" stroke="#000" stroke-linecap="butt" d="M652.527 303.173l1.651 4.538 1.652-4.538z" fill-rule="evenodd"/><path fill="none" d="M339.255 271.738h179.748v90.488H339.255z"/><path fill="#000" d="M348.864 292.052l1.297-.172q.219 1.094.75 1.578.531.485 1.297.485.906 0 1.531-.625.64-.641.64-1.563 0-.89-.593-1.469-.578-.578-1.469-.578-.36 0-.906.14l.14-1.124q.126.015.204.015.828 0 1.484-.421.656-.438.656-1.344 0-.703-.484-1.156-.469-.47-1.234-.47-.75 0-1.25.47-.5.468-.641 1.421l-1.281-.234q.234-1.297 1.062-2 .844-.719 2.094-.719.86 0 1.578.375.719.36 1.094 1 .39.64.39 1.344 0 .688-.375 1.25-.359.547-1.062.875.922.219 1.437.906.516.672.516 1.688 0 1.375-1 2.328-1 .953-2.531.953-1.39 0-2.297-.812-.906-.829-1.047-2.141zm8.87 2.766v-1.47h1.469v1.47h-1.47zm15.425-3.672l1.39.343q-.437 1.704-1.577 2.61-1.125.89-2.766.89-1.687 0-2.75-.687-1.062-.688-1.625-2-.547-1.313-.547-2.813 0-1.64.625-2.859t1.781-1.844q1.157-.64 2.547-.64 1.563 0 2.64.812 1.079.797 1.5 2.25l-1.374.313q-.36-1.141-1.063-1.657-.687-.53-1.734-.53-1.219 0-2.031.577-.813.578-1.14 1.563-.329.969-.329 2.015 0 1.329.39 2.329.391 1 1.22 1.5.828.484 1.78.484 1.173 0 1.97-.672.812-.672 1.093-1.984zm2.46-.125q0-2.11 1.171-3.125.985-.844 2.39-.844 1.579 0 2.563 1.031 1 1.016 1 2.828 0 1.469-.437 2.313-.438.828-1.281 1.297-.844.468-1.844.468-1.594 0-2.578-1.015-.985-1.031-.985-2.953zm1.328 0q0 1.453.625 2.187.64.719 1.609.719t1.594-.719q.64-.734.64-2.234 0-1.406-.64-2.125-.641-.735-1.594-.735-.969 0-1.61.72-.624.718-.624 2.187zm7.307 3.797v-7.594h1.156v1.078q.844-1.25 2.422-1.25.688 0 1.266.25.578.234.859.64.281.407.406.954.063.359.063 1.25v4.672h-1.281v-4.625q0-.782-.157-1.172-.156-.391-.547-.625-.375-.235-.89-.235-.813 0-1.422.532-.594.515-.594 1.968v4.157h-1.281zm10.963-1.157l.188 1.14q-.547.11-.984.11-.688 0-1.079-.218-.39-.22-.546-.579-.157-.359-.157-1.515v-4.375h-.953v-1h.953v-1.89l1.282-.766v2.656h1.296v1h-1.296v4.437q0 .547.062.719.078.156.219.25.156.078.453.078.203 0 .562-.047zm6.463-1.297l1.328.172q-.312 1.172-1.172 1.813-.843.64-2.172.64-1.671 0-2.656-1.015-.969-1.031-.969-2.89 0-1.923.985-2.97 1-1.062 2.578-1.062 1.516 0 2.484 1.031.97 1.031.97 2.922 0 .11-.017.344h-5.656q.063 1.25.703 1.922.641.656 1.594.656.703 0 1.203-.36.5-.374.797-1.203zm-4.234-2.078h4.25q-.094-.953-.485-1.437-.625-.75-1.609-.75-.875 0-1.484.594-.61.593-.672 1.593zm7.182 4.532v-7.594h1.156v1.078q.844-1.25 2.422-1.25.688 0 1.266.25.578.234.86.64.28.407.405.954.063.359.063 1.25v4.672h-1.281v-4.625q0-.782-.157-1.172-.156-.391-.546-.625-.375-.235-.891-.235-.813 0-1.422.532-.594.515-.594 1.968v4.157h-1.28zm10.964-1.157l.187 1.14q-.547.11-.984.11-.688 0-1.078-.218-.39-.22-.547-.579-.156-.359-.156-1.515v-4.375h-.954v-1h.954v-1.89l1.28-.766v2.656h1.298v1h-1.297v4.437q0 .547.062.719.078.156.22.25.155.078.452.078.203 0 .563-.047zm10.316 1.157v-1.11q-.891 1.281-2.422 1.281-.672 0-1.25-.25-.578-.265-.875-.656-.282-.39-.391-.953-.078-.375-.078-1.203v-4.703h1.281v4.203q0 1.016.078 1.36.125.515.516.812.406.281.984.281t1.078-.297q.516-.297.72-.812.218-.516.218-1.485v-4.062h1.281v7.594h-1.14zm3.166 2.906v-10.5h1.172v.984q.422-.578.938-.86.515-.296 1.265-.296.969 0 1.719.5.75.5 1.125 1.422.375.906.375 1.984 0 1.172-.422 2.11-.406.921-1.219 1.421-.797.5-1.672.5-.64 0-1.156-.265-.515-.281-.844-.688v3.688h-1.28zm1.156-6.656q0 1.453.594 2.156.61.703 1.453.703.86 0 1.47-.719.608-.734.608-2.25 0-1.453-.609-2.172-.594-.734-1.422-.734-.812 0-1.453.781-.64.766-.64 2.235zm11.917 3.75v-.954q-.719 1.125-2.125 1.125-.906 0-1.672-.5-.75-.5-1.172-1.39-.421-.906-.421-2.078 0-1.141.375-2.063.39-.922 1.14-1.406.766-.5 1.703-.5.688 0 1.22.297.53.281.874.734v-3.75h1.281v10.485h-1.203zm-4.062-3.797q0 1.468.61 2.187.624.719 1.452.719.844 0 1.438-.688.593-.687.593-2.109 0-1.562-.609-2.281-.594-.735-1.484-.735-.844 0-1.422.704-.578.703-.578 2.203zm12.245 2.859q-.72.61-1.375.86-.657.25-1.422.25-1.25 0-1.922-.61-.672-.61-.672-1.562 0-.563.25-1.016.25-.469.656-.75.422-.281.938-.422.375-.094 1.14-.187 1.563-.188 2.297-.454.016-.265.016-.328 0-.797-.375-1.11-.485-.437-1.453-.437-.922 0-1.36.329-.422.312-.625 1.109l-1.265-.172q.172-.797.562-1.297.39-.5 1.14-.765.75-.266 1.72-.266.984 0 1.593.234.61.219.891.563t.406.875q.063.328.063 1.187v1.719q0 1.797.078 2.281.078.469.328.907h-1.344q-.203-.407-.265-.938zm-.11-2.875q-.703.281-2.094.484-.796.11-1.125.266-.328.14-.515.422-.172.266-.172.594 0 .515.39.859.391.344 1.141.344.735 0 1.313-.313.593-.328.86-.89.202-.438.202-1.297v-.469zm6.12 2.656l.188 1.14q-.547.11-.985.11-.687 0-1.078-.218-.39-.22-.547-.579-.156-.359-.156-1.515v-4.375h-.953v-1h.953v-1.89l1.281-.766v2.656h1.297v1h-1.297v4.437q0 .547.063.719.078.156.218.25.157.078.454.078.203 0 .562-.047zm6.463-1.297l1.328.172q-.313 1.172-1.172 1.813-.844.64-2.172.64-1.672 0-2.656-1.015-.969-1.031-.969-2.89 0-1.923.984-2.97 1-1.062 2.579-1.062 1.515 0 2.484 1.031.969 1.031.969 2.922 0 .11-.016.344h-5.656q.062 1.25.703 1.922.64.656 1.594.656.703 0 1.203-.36.5-.374.797-1.203zm-4.235-2.078h4.25q-.093-.953-.484-1.437-.625-.75-1.61-.75-.874 0-1.484.594-.61.593-.672 1.593zm6.667 2.266l1.266-.203q.109.765.593 1.172.5.406 1.375.406.891 0 1.313-.36.437-.359.437-.843 0-.438-.375-.688-.265-.172-1.312-.437-1.422-.36-1.969-.61-.547-.265-.828-.734-.281-.469-.281-1.016 0-.515.219-.937.234-.438.64-.734.297-.22.813-.36.53-.156 1.125-.156.89 0 1.562.266.672.25 1 .687.328.438.438 1.172l-1.25.172q-.094-.578-.5-.906-.407-.344-1.157-.344-.89 0-1.28.297-.376.297-.376.687 0 .25.156.453.157.203.5.344.188.078 1.141.328 1.36.36 1.89.594.548.234.86.687.313.438.313 1.094 0 .64-.375 1.219-.375.562-1.094.875-.703.312-1.594.312-1.484 0-2.266-.609-.765-.625-.984-1.828zm11.4 0l1.266-.203q.11.765.594 1.172.5.406 1.375.406.89 0 1.312-.36.438-.359.438-.843 0-.438-.375-.688-.266-.172-1.313-.437-1.422-.36-1.969-.61-.547-.265-.828-.734-.281-.469-.281-1.016 0-.515.219-.937.234-.438.64-.734.297-.22.813-.36.531-.156 1.125-.156.89 0 1.562.266.672.25 1 .687.328.438.438 1.172l-1.25.172q-.094-.578-.5-.906-.406-.344-1.156-.344-.891 0-1.282.297-.375.297-.375.687 0 .25.157.453.156.203.5.344.187.078 1.14.328 1.36.36 1.89.594.548.234.86.687.313.438.313 1.094 0 .64-.375 1.219-.375.562-1.094.875-.703.312-1.594.312-1.484 0-2.265-.609-.766-.625-.985-1.828zm13.047-.188l1.328.172q-.312 1.172-1.172 1.813-.843.64-2.172.64-1.671 0-2.656-1.015-.969-1.031-.969-2.89 0-1.923.985-2.97 1-1.062 2.578-1.062 1.516 0 2.484 1.031.969 1.031.969 2.922 0 .11-.016.344h-5.656q.063 1.25.703 1.922.64.656 1.594.656.703 0 1.203-.36.5-.374.797-1.203zm-4.234-2.078h4.25q-.094-.953-.485-1.437-.625-.75-1.61-.75-.874 0-1.483.594-.61.593-.672 1.593zm7.182 4.532v-7.594h1.156v1.078q.844-1.25 2.422-1.25.688 0 1.266.25.578.234.86.64.28.407.405.954.063.359.063 1.25v4.672h-1.281v-4.625q0-.782-.157-1.172-.156-.391-.547-.625-.375-.235-.89-.235-.813 0-1.422.532-.594.515-.594 1.968v4.157h-1.281zm10.964-1.157l.187 1.14q-.547.11-.984.11-.688 0-1.078-.218-.391-.22-.547-.579-.157-.359-.157-1.515v-4.375h-.953v-1h.953v-1.89l1.282-.766v2.656h1.297v1h-1.297v4.437q0 .547.062.719.078.156.219.25.156.078.453.078.203 0 .563-.047zM352.036 311.261l.187 1.14q-.546.11-.984.11-.687 0-1.078-.218-.39-.22-.547-.579-.156-.359-.156-1.515v-4.375h-.953v-1h.953v-1.89l1.281-.766v2.656h1.297v1h-1.297v4.437q0 .547.063.719.078.156.218.25.157.078.453.078.204 0 .563-.047zm.775-2.64q0-2.11 1.172-3.125.984-.844 2.39-.844 1.579 0 2.563 1.031 1 1.016 1 2.828 0 1.469-.437 2.313-.438.828-1.282 1.297-.843.468-1.843.468-1.594 0-2.579-1.015-.984-1.031-.984-2.953zm1.328 0q0 1.453.625 2.187.64.719 1.61.719.968 0 1.593-.719.64-.734.64-2.234 0-1.406-.64-2.125-.64-.735-1.593-.735-.97 0-1.61.72-.625.718-.625 2.187zm11.536 3.797v-10.485h3.969q1.046 0 1.593.094.766.125 1.282.484.53.36.843 1.016.328.656.328 1.437 0 1.329-.859 2.266-.844.922-3.078.922h-2.688v4.266h-1.39zm1.39-5.5h2.72q1.343 0 1.905-.5.563-.5.563-1.407 0-.672-.328-1.14-.328-.47-.875-.61-.36-.093-1.297-.093h-2.688v3.75zm8.214 5.5v-7.594h1.156v1.14q.453-.796.828-1.046.375-.266.812-.266.657 0 1.329.406l-.438 1.203q-.469-.281-.953-.281-.422 0-.766.25-.328.25-.468.703-.22.688-.22 1.5v3.985h-1.28zm4.411-3.797q0-2.11 1.172-3.125.985-.844 2.39-.844 1.579 0 2.563 1.031 1 1.016 1 2.828 0 1.469-.437 2.313-.438.828-1.281 1.297-.844.468-1.844.468-1.594 0-2.578-1.015-.985-1.031-.985-2.953zm1.329 0q0 1.453.625 2.187.64.719 1.609.719t1.594-.719q.64-.734.64-2.234 0-1.406-.64-2.125-.641-.735-1.594-.735-.969 0-1.61.72-.624.718-.624 2.187zm7.307 3.797v-7.594h1.156v1.062q.344-.562.938-.89.609-.344 1.359-.344.844 0 1.375.344.547.343.766.984.906-1.328 2.359-1.328 1.125 0 1.734.625.61.625.61 1.922v5.219h-1.282v-4.782q0-.781-.125-1.11-.125-.343-.453-.546-.328-.219-.78-.219-.798 0-1.329.532-.531.53-.531 1.703v4.422h-1.282v-4.938q0-.86-.312-1.281-.313-.438-1.031-.438-.547 0-1.016.297-.453.281-.672.828-.203.547-.203 1.594v3.938h-1.281zm11.724-3.797q0-2.11 1.172-3.125.985-.844 2.39-.844 1.579 0 2.563 1.031 1 1.016 1 2.828 0 1.469-.437 2.313-.438.828-1.281 1.297-.844.468-1.844.468-1.594 0-2.578-1.015-.985-1.031-.985-2.953zm1.328 0q0 1.453.625 2.187.641.719 1.61.719.969 0 1.594-.719.64-.734.64-2.234 0-1.406-.64-2.125-.641-.735-1.594-.735-.969 0-1.61.72-.625.718-.625 2.187zm10.12 2.64l.188 1.14q-.547.11-.985.11-.687 0-1.078-.218-.39-.22-.547-.579-.156-.359-.156-1.515v-4.375h-.953v-1h.953v-1.89l1.281-.766v2.656h1.297v1h-1.297v4.437q0 .547.063.719.078.156.219.25.156.078.453.078.203 0 .562-.047zm6.463-1.297l1.328.172q-.313 1.172-1.172 1.813-.844.64-2.172.64-1.672 0-2.656-1.015-.969-1.031-.969-2.89 0-1.923.985-2.97 1-1.062 2.578-1.062 1.515 0 2.484 1.031.969 1.031.969 2.922 0 .11-.016.344h-5.656q.062 1.25.703 1.922.64.656 1.594.656.703 0 1.203-.36.5-.374.797-1.203zm-4.235-2.078h4.25q-.093-.953-.484-1.437-.625-.75-1.61-.75-.874 0-1.484.594-.609.593-.672 1.593zm12.105 4.532v-.954q-.719 1.125-2.125 1.125-.907 0-1.672-.5-.75-.5-1.172-1.39-.422-.906-.422-2.078 0-1.14.375-2.063.39-.922 1.14-1.406.766-.5 1.704-.5.687 0 1.219.297.53.281.875.734v-3.75h1.28v10.485h-1.202zm-4.063-3.797q0 1.468.61 2.187.625.719 1.453.719.843 0 1.437-.688.594-.687.594-2.109 0-1.562-.61-2.281-.593-.735-1.484-.735-.844 0-1.422.704-.578.703-.578 2.203zM351.677 333.096q-1.063-1.344-1.797-3.141-.735-1.812-.735-3.734 0-1.703.547-3.266.64-1.812 1.985-3.61h.921q-.859 1.485-1.14 2.126-.438.984-.688 2.062-.297 1.344-.297 2.688 0 3.453 2.125 6.875h-.921zm7.63-5.532l1.328.172q-.312 1.172-1.172 1.813-.843.64-2.171.64-1.672 0-2.657-1.015-.968-1.031-.968-2.89 0-1.923.984-2.97 1-1.062 2.578-1.062 1.516 0 2.484 1.031.97 1.031.97 2.922 0 .11-.016.344h-5.657q.063 1.25.703 1.922.641.656 1.594.656.703 0 1.203-.36.5-.374.797-1.203zm-4.234-2.078h4.25q-.094-.953-.485-1.437-.625-.75-1.609-.75-.875 0-1.484.594-.61.593-.672 1.593zm7.182-4.484v-1.469h1.297v1.469h-1.297zm0 9.016v-7.594h1.297v7.594h-1.297zm6.069-1.157l.187 1.14q-.547.11-.984.11-.688 0-1.078-.218-.39-.22-.547-.579-.156-.359-.156-1.515v-4.375h-.953v-1h.953v-1.89l1.281-.766v2.656h1.297v1h-1.297v4.437q0 .547.062.719.079.156.22.25.155.078.452.078.203 0 .563-.047zm1.26 1.157v-10.485h1.28v3.75q.907-1.031 2.282-1.031.844 0 1.469.328.625.328.89.922.266.578.266 1.703v4.813h-1.281v-4.813q0-.969-.422-1.406-.422-.438-1.188-.438-.578 0-1.078.297-.5.297-.719.813-.218.5-.218 1.39v4.157h-1.282zm13.354-2.454l1.328.172q-.313 1.172-1.172 1.813-.844.64-2.172.64-1.672 0-2.656-1.015-.97-1.031-.97-2.89 0-1.923.985-2.97 1-1.062 2.578-1.062 1.516 0 2.485 1.031.969 1.031.969 2.922 0 .11-.016.344h-5.656q.062 1.25.703 1.922.64.656 1.594.656.703 0 1.203-.36.5-.374.797-1.203zm-4.235-2.078h4.25q-.094-.953-.484-1.437-.625-.75-1.61-.75-.875 0-1.484.594-.61.593-.672 1.593zm7.167 4.532v-7.594h1.156v1.14q.453-.796.828-1.046.375-.266.813-.266.656 0 1.328.406l-.438 1.203q-.468-.281-.953-.281-.422 0-.765.25-.328.25-.47.703-.218.688-.218 1.5v3.985h-1.281zm8.968-9.016v-1.469h1.297v1.469h-1.297zm0 9.016v-7.594h1.297v7.594h-1.297zm3.256 0v-7.594h1.157v1.078q.843-1.25 2.421-1.25.688 0 1.266.25.578.234.86.64.28.407.406.954.062.359.062 1.25v4.672h-1.281v-4.625q0-.782-.156-1.172-.157-.391-.547-.625-.375-.235-.89-.235-.813 0-1.423.532-.593.515-.593 1.968v4.157h-1.282zm10.43 0l4.015-10.485h1.5l4.297 10.485h-1.578l-1.234-3.172h-4.375l-1.156 3.172h-1.47zm3.015-4.313h3.563l-1.094-2.906q-.5-1.313-.75-2.172-.203 1.016-.562 2l-1.157 3.078zm7.901 4.313v-10.485h3.969q1.047 0 1.593.094.766.125 1.282.484.531.36.843 1.016.329.656.329 1.437 0 1.329-.86 2.266-.844.922-3.078.922h-2.687v4.266h-1.391zm1.39-5.5h2.72q1.343 0 1.906-.5.562-.5.562-1.407 0-.672-.328-1.14-.328-.47-.875-.61-.36-.093-1.297-.093h-2.687v3.75zm8.62 5.5v-10.485h1.39v10.485h-1.39zm7.269-3.797q0-2.11 1.172-3.125.984-.844 2.39-.844 1.579 0 2.563 1.031 1 1.016 1 2.828 0 1.469-.438 2.313-.437.828-1.28 1.297-.845.468-1.845.468-1.593 0-2.578-1.015-.984-1.031-.984-2.953zm1.328 0q0 1.453.625 2.187.64.719 1.61.719.968 0 1.593-.719.64-.734.64-2.234 0-1.406-.64-2.125-.64-.735-1.594-.735-.968 0-1.609.72-.625.718-.625 2.187zm7.292 3.797v-7.594h1.156v1.14q.453-.796.828-1.046.375-.266.813-.266.656 0 1.328.406l-.438 1.203q-.468-.281-.953-.281-.422 0-.765.25-.329.25-.47.703-.218.688-.218 1.5v3.985h-1.281zm16.609-3.672l1.39.343q-.437 1.704-1.578 2.61-1.125.89-2.765.89-1.688 0-2.75-.687-1.063-.688-1.625-2-.547-1.313-.547-2.813 0-1.64.625-2.859t1.78-1.844q1.157-.64 2.548-.64 1.562 0 2.64.812 1.079.797 1.5 2.25l-1.375.313q-.359-1.141-1.062-1.657-.688-.53-1.734-.53-1.22 0-2.032.577-.812.578-1.14 1.563-.328.969-.328 2.015 0 1.329.39 2.329.39 1 1.219 1.5.828.484 1.781.484 1.172 0 1.969-.672.812-.672 1.094-1.984zm3.1 3.672v-10.485h3.625q1.218 0 1.859.14.906.204 1.547.75.828.704 1.234 1.798.406 1.093.406 2.5 0 1.187-.28 2.109-.266.922-.704 1.531-.437.61-.969.953-.515.344-1.25.532-.718.172-1.672.172h-3.796zm1.39-1.235h2.25q1.031 0 1.625-.187.594-.203.938-.547.5-.5.765-1.328.282-.844.282-2.032 0-1.64-.547-2.515-.532-.89-1.313-1.188-.547-.218-1.797-.218h-2.203v8.015zm16.678-2.437l1.39.343q-.437 1.704-1.577 2.61-1.125.89-2.766.89-1.687 0-2.75-.687-1.062-.688-1.625-2-.547-1.313-.547-2.813 0-1.64.625-2.859t1.781-1.844q1.157-.64 2.547-.64 1.563 0 2.641.812 1.078.797 1.5 2.25l-1.375.313q-.36-1.141-1.063-1.657-.687-.53-1.734-.53-1.219 0-2.031.577-.813.578-1.14 1.563-.329.969-.329 2.015 0 1.329.39 2.329.391 1 1.22 1.5.828.484 1.78.484 1.173 0 1.97-.672.812-.672 1.093-1.984zM354.177 346.68q-.72.61-1.375.86-.657.25-1.422.25-1.25 0-1.922-.61-.672-.61-.672-1.562 0-.563.25-1.016.25-.469.656-.75.422-.281.938-.422.375-.094 1.14-.187 1.563-.188 2.297-.454.016-.265.016-.328 0-.797-.375-1.11-.485-.437-1.453-.437-.922 0-1.36.329-.422.312-.625 1.109l-1.265-.172q.172-.797.562-1.297.39-.5 1.14-.765.75-.266 1.72-.266.984 0 1.593.234.61.219.89.563.282.344.407.875.063.328.063 1.187v1.719q0 1.797.078 2.281.078.469.328.907h-1.344q-.203-.407-.265-.938zm-.11-2.875q-.703.281-2.094.484-.796.11-1.125.266-.328.14-.515.422-.172.266-.172.594 0 .515.39.859.391.344 1.141.344.735 0 1.313-.313.593-.328.86-.89.202-.438.202-1.297v-.469zm3.62 3.813v-6.594h-1.14v-1h1.14v-.813q0-.765.125-1.14.188-.5.656-.813.47-.312 1.313-.312.547 0 1.203.125l-.188 1.125q-.406-.063-.765-.063-.578 0-.828.25-.235.25-.235.938v.703h1.47v1h-1.47v6.594h-1.28zm6.572-1.157l.188 1.14q-.547.11-.985.11-.687 0-1.078-.218-.39-.22-.547-.579-.156-.359-.156-1.515v-4.375h-.953v-1h.953v-1.89l1.281-.766v2.656h1.297v1h-1.297v4.437q0 .547.063.719.078.156.218.25.157.078.454.078.203 0 .562-.047zm6.463-1.297l1.328.172q-.313 1.172-1.172 1.813-.844.64-2.172.64-1.672 0-2.656-1.015-.969-1.031-.969-2.89 0-1.923.984-2.97 1-1.062 2.579-1.062 1.515 0 2.484 1.031.969 1.031.969 2.922 0 .11-.016.344h-5.656q.062 1.25.703 1.922.64.656 1.594.656.703 0 1.203-.36.5-.374.797-1.203zm-4.235-2.078h4.25q-.093-.953-.484-1.437-.625-.75-1.61-.75-.874 0-1.484.594-.61.593-.672 1.593zm7.167 4.532v-7.594h1.156v1.14q.453-.796.828-1.046.375-.266.813-.266.656 0 1.328.406l-.438 1.203q-.468-.281-.953-.281-.422 0-.765.25-.328.25-.469.703-.219.688-.219 1.5v3.985h-1.281zm9.124 0v-10.485h3.625q1.22 0 1.86.14.906.204 1.547.75.828.704 1.234 1.798.406 1.093.406 2.5 0 1.187-.28 2.109-.267.922-.704 1.531-.438.61-.969.953-.515.344-1.25.532-.719.172-1.672.172h-3.797zm1.391-1.235h2.25q1.031 0 1.625-.187.594-.203.938-.547.5-.5.765-1.328.281-.844.281-2.032 0-1.64-.546-2.515-.532-.89-1.313-1.188-.547-.218-1.797-.218h-2.203v8.015zm9.147 1.235v-10.485h3.937q1.204 0 1.922.313.735.312 1.14.984.407.656.407 1.375 0 .672-.375 1.266-.36.593-1.094.968.954.282 1.47.954.515.671.515 1.578 0 .75-.313 1.39-.312.625-.781.969-.453.344-1.14.516-.688.172-1.688.172h-4zm1.39-6.079h2.266q.922 0 1.313-.125.53-.156.797-.515.28-.375.28-.922 0-.531-.25-.922-.25-.39-.718-.531-.469-.156-1.594-.156h-2.093v3.171zm0 4.844h2.61q.672 0 .937-.047.485-.093.797-.297.328-.203.532-.578.218-.39.218-.89 0-.578-.312-1.016-.297-.437-.828-.61-.532-.171-1.532-.171h-2.421v3.61zm13.754 1.235l-2.328-7.594h1.328l1.203 4.375.454 1.64.39-1.578 1.219-4.437h1.328l1.125 4.406.39 1.453.438-1.469 1.297-4.39h1.25l-2.375 7.594h-1.344l-1.203-4.547-.297-1.297-1.53 5.844h-1.345zm9.163 0v-7.594h1.156v1.14q.453-.796.828-1.046.375-.266.813-.266.656 0 1.328.406l-.438 1.203q-.469-.281-.953-.281-.422 0-.766.25-.328.25-.468.703-.219.688-.219 1.5v3.985h-1.281zm4.896-9.016v-1.469h1.297v1.469h-1.297zm0 9.016v-7.594h1.297v7.594h-1.297zm6.069-1.157l.187 1.14q-.547.11-.984.11-.688 0-1.078-.218-.391-.22-.547-.579-.156-.359-.156-1.515v-4.375h-.954v-1h.954v-1.89l1.28-.766v2.656h1.298v1h-1.297v4.437q0 .547.062.719.078.156.219.25.156.078.453.078.203 0 .563-.047zm6.462-1.297l1.328.172q-.312 1.172-1.171 1.813-.844.64-2.172.64-1.672 0-2.657-1.015-.968-1.031-.968-2.89 0-1.923.984-2.97 1-1.062 2.578-1.062 1.516 0 2.485 1.031.968 1.031.968 2.922 0 .11-.015.344h-5.657q.063 1.25.704 1.922.64.656 1.593.656.703 0 1.203-.36.5-.374.797-1.203zm-4.234-2.078h4.25q-.094-.953-.484-1.437-.625-.75-1.61-.75-.875 0-1.484.594-.61.593-.672 1.593zm8.026 7.61h-.922q2.14-3.422 2.14-6.875 0-1.344-.312-2.672-.25-1.063-.672-2.047-.28-.656-1.156-2.156h.922q1.344 1.797 1.984 3.609.547 1.563.547 3.266 0 1.922-.734 3.734-.734 1.797-1.797 3.14zm4.396-3.078v-1.47h1.469v1.47h-1.469z"/></g></svg>