<svg viewBox="0 0 1006.163 465.664" fill="none" stroke-linecap="square" stroke-miterlimit="10" xmlns="http://www.w3.org/2000/svg"><clipPath id="a"><path d="M0 0h1024v768H0V0z"/></clipPath><g clip-path="url(#a)" transform="translate(-1.084 -.153) scale(1.46233)"><path fill="none" d="M5.323 6.941h672.315v303.906H5.323V6.941z"/><path fill="none" d="M2.345 46.787h83.969v42.015H2.345V46.787z"/><path fill="#666" d="M18.766 73.707V68.05l-5.156-7.703h2.156l2.641 4.031c.479.75.927 1.506 1.343 2.266.407-.698.896-1.484 1.469-2.359l2.578-3.938h2.063l-5.328 7.703v5.657h-1.766zm6.152-4.844c0-1.792.495-3.115 1.484-3.969.833-.719 1.849-1.078 3.047-1.078 1.333 0 2.422.437 3.266 1.312.843.865 1.265 2.068 1.265 3.61 0 1.239-.187 2.219-.562 2.937a3.988 3.988 0 01-1.641 1.657 4.698 4.698 0 01-2.328.593c-1.354 0-2.448-.432-3.281-1.297-.834-.875-1.25-2.13-1.25-3.765zm1.687 0c0 1.239.266 2.172.797 2.797a2.615 2.615 0 002.047.922c.813 0 1.49-.308 2.031-.922.542-.625.813-1.573.813-2.844 0-1.198-.271-2.104-.813-2.719-.541-.614-1.218-.922-2.031-.922-.823 0-1.505.308-2.047.922-.531.604-.797 1.526-.797 2.766zm15.626 4.844v-1.422c-.75 1.093-1.771 1.64-3.062 1.64a3.97 3.97 0 01-1.61-.328c-.489-.219-.854-.495-1.094-.828-.239-.333-.406-.739-.5-1.219-.073-.312-.109-.823-.109-1.531v-5.984h1.641v5.359c0 .854.036 1.432.109 1.734.104.428.323.766.656 1.016.334.25.745.375 1.235.375.489 0 .948-.125 1.375-.375.437-.26.744-.604.922-1.031.177-.438.265-1.068.265-1.891v-5.187H43.7v9.672h-1.469zm4.032 0v-9.672h1.469v1.468c.375-.687.718-1.14 1.031-1.359a1.852 1.852 0 011.062-.328c.553 0 1.115.177 1.688.531l-.563 1.516c-.406-.24-.807-.36-1.203-.36-.364 0-.687.11-.968.329a1.818 1.818 0 00-.61.89 6.272 6.272 0 00-.281 1.922v5.063h-1.625zm20.38-13.36h1.766v7.719c0 1.344-.151 2.411-.453 3.203-.302.792-.849 1.438-1.641 1.938-.791.489-1.833.734-3.125.734-1.25 0-2.276-.214-3.078-.641a3.769 3.769 0 01-1.703-1.875c-.333-.823-.5-1.942-.5-3.359v-7.719h1.766v7.719c0 1.156.104 2.01.312 2.562.219.542.589.964 1.109 1.266.532.302 1.178.453 1.938.453 1.302 0 2.229-.297 2.781-.89.552-.594.828-1.724.828-3.391v-7.719zm5.005 13.36v-13.36h1.765v13.36h-1.765z"/><path fill="#cfe2f3" d="M12.015 124.054c0-17.847 14.468-32.315 32.315-32.315 17.847 0 32.315 14.468 32.315 32.315 0 17.847-14.468 32.315-32.315 32.315-17.847 0-32.315-14.468-32.315-32.315z" fill-rule="evenodd"/><path fill="#a5b4c2" d="M30.611 114.39a3.366 3.366 0 116.732 0 3.366 3.366 0 01-6.732 0m20.705 0a3.366 3.366 0 116.732 0 3.366 3.366 0 01-6.732 0" fill-rule="evenodd"/><path fill="none" d="M26.815 138.147c11.676 8.019 23.339 8.019 34.989 0M12.015 124.054c0-17.847 14.468-32.315 32.315-32.315 17.847 0 32.315 14.468 32.315 32.315 0 17.847-14.468 32.315-32.315 32.315-17.847 0-32.315-14.468-32.315-32.315z"/><path stroke="#000" stroke-linejoin="round" stroke-linecap="butt" d="M30.611 114.39a3.366 3.366 0 116.732 0 3.366 3.366 0 01-6.732 0m20.705 0a3.366 3.366 0 116.732 0 3.366 3.366 0 01-6.732 0M26.815 138.147c11.676 8.019 23.339 8.019 34.989 0"/><path stroke="#000" stroke-linejoin="round" stroke-linecap="butt" d="M12.015 124.054c0-17.847 14.468-32.315 32.315-32.315 17.847 0 32.315 14.468 32.315 32.315 0 17.847-14.468 32.315-32.315 32.315-17.847 0-32.315-14.468-32.315-32.315z"/><path fill="#cfe2f3" d="M221.491 91.739h179.748v64.63H221.491v-64.63z" fill-rule="evenodd"/><path stroke="#000" stroke-linejoin="round" stroke-linecap="butt" d="M221.491 91.739h179.748v64.63H221.491v-64.63z"/><path fill="#000" d="M231.929 130.974v-13.359h5.046c.886 0 1.563.042 2.032.125.645.115 1.192.328 1.64.641.448.302.808.729 1.078 1.281a4.09 4.09 0 01.407 1.828c0 1.135-.365 2.099-1.094 2.891-.719.781-2.026 1.171-3.922 1.171h-3.422v5.422h-1.765zm1.765-7h3.453c1.146 0 1.959-.213 2.438-.64.479-.427.719-1.026.719-1.797 0-.563-.141-1.042-.422-1.438a1.964 1.964 0 00-1.125-.781c-.292-.083-.839-.125-1.641-.125h-3.422v4.781zm16.787 5.813c-.614.51-1.203.875-1.765 1.094a5.056 5.056 0 01-1.797.312c-1.063 0-1.88-.26-2.453-.781s-.86-1.182-.86-1.985c0-.479.11-.911.329-1.296.218-.396.5-.709.843-.938.355-.24.75-.422 1.188-.547.312-.083.797-.166 1.453-.25 1.323-.156 2.297-.344 2.922-.562.01-.229.015-.37.015-.422 0-.667-.156-1.141-.468-1.422-.417-.365-1.042-.547-1.875-.547-.771 0-1.339.135-1.703.406-.365.271-.636.745-.813 1.422l-1.609-.219c.146-.677.385-1.224.718-1.64.334-.427.818-.755 1.454-.985.635-.229 1.364-.343 2.187-.343.833 0 1.505.099 2.016.297.521.187.901.432 1.14.734.25.292.422.661.516 1.109.052.282.078.787.078 1.516v2.187c0 1.521.037 2.485.109 2.891.073.396.209.781.407 1.156h-1.703a3.223 3.223 0 01-.329-1.187zm-.14-3.672c-.594.25-1.485.458-2.672.625-.677.094-1.156.203-1.438.328-.281.125-.5.302-.656.531-.146.229-.219.49-.219.782 0 .437.167.802.5 1.093.334.292.818.438 1.454.438.625 0 1.182-.136 1.671-.406.5-.282.865-.662 1.094-1.141.177-.375.266-.922.266-1.641v-.609zm3.891 5.656l1.594.235c.073.5.26.859.562 1.078.407.302.964.453 1.672.453.761 0 1.344-.151 1.75-.453.417-.302.698-.724.844-1.266.083-.333.12-1.036.109-2.109-.708.843-1.599 1.265-2.671 1.265-1.334 0-2.365-.479-3.094-1.437-.729-.959-1.094-2.11-1.094-3.453 0-.927.167-1.782.5-2.563.344-.781.828-1.38 1.453-1.797.636-.427 1.386-.64 2.25-.64 1.136 0 2.073.458 2.813 1.375v-1.157h1.515v8.36c0 1.51-.156 2.578-.468 3.203-.303.625-.787 1.12-1.454 1.484-.656.365-1.474.547-2.453.547-1.146 0-2.078-.26-2.797-.781-.708-.51-1.052-1.292-1.031-2.344zm1.36-5.812c0 1.271.25 2.198.75 2.781.51.583 1.145.875 1.906.875.75 0 1.38-.287 1.89-.859.511-.584.766-1.495.766-2.735 0-1.187-.266-2.078-.797-2.672-.521-.604-1.151-.906-1.89-.906-.73 0-1.349.297-1.86.891-.51.583-.765 1.458-.765 2.625zm15.953 1.906l1.688.203c-.271.99-.766 1.76-1.484 2.313-.719.541-1.641.812-2.766.812-1.417 0-2.542-.432-3.375-1.297-.823-.875-1.234-2.099-1.234-3.672 0-1.635.416-2.901 1.25-3.797.843-.895 1.932-1.343 3.265-1.343 1.292 0 2.344.442 3.156 1.328.823.875 1.235 2.109 1.235 3.703v.437h-7.219c.063 1.063.365 1.881.906 2.454.542.562 1.214.843 2.016.843.604 0 1.12-.156 1.547-.468.427-.323.765-.829 1.015-1.516zm-5.39-2.656h5.406c-.073-.813-.281-1.422-.625-1.828-.521-.636-1.198-.954-2.031-.954-.75 0-1.386.256-1.906.766-.511.5-.792 1.172-.844 2.016zm14.012 6.562l1.594.235c.073.5.26.859.562 1.078.406.302.964.453 1.672.453.76 0 1.344-.151 1.75-.453.417-.302.698-.724.844-1.266.083-.333.12-1.036.109-2.109-.708.843-1.599 1.265-2.672 1.265-1.333 0-2.364-.479-3.093-1.437-.73-.959-1.094-2.11-1.094-3.453 0-.927.166-1.782.5-2.563.344-.781.828-1.38 1.453-1.797.635-.427 1.385-.64 2.25-.64 1.135 0 2.073.458 2.812 1.375v-1.157h1.516v8.36c0 1.51-.156 2.578-.469 3.203-.302.625-.786 1.12-1.453 1.484-.656.365-1.474.547-2.453.547-1.146 0-2.078-.26-2.797-.781-.708-.51-1.052-1.292-1.031-2.344zm1.359-5.812c0 1.271.25 2.198.75 2.781.511.583 1.146.875 1.907.875.75 0 1.38-.287 1.89-.859.511-.584.766-1.495.766-2.735 0-1.187-.266-2.078-.797-2.672-.521-.604-1.151-.906-1.891-.906-.729 0-1.349.297-1.859.891-.51.583-.766 1.458-.766 2.625zm15.954 1.906l1.688.203c-.271.99-.766 1.76-1.485 2.313-.718.541-1.64.812-2.765.812-1.417 0-2.542-.432-3.375-1.297-.823-.875-1.235-2.099-1.235-3.672 0-1.635.417-2.901 1.25-3.797.844-.895 1.933-1.343 3.266-1.343 1.292 0 2.344.442 3.156 1.328.823.875 1.235 2.109 1.235 3.703v.437h-7.219c.062 1.063.364 1.881.906 2.454.542.562 1.214.843 2.016.843.604 0 1.119-.156 1.547-.468.427-.323.765-.829 1.015-1.516zm-5.39-2.656h5.406c-.073-.813-.281-1.422-.625-1.828-.521-.636-1.198-.954-2.031-.954-.75 0-1.386.256-1.907.766-.51.5-.791 1.172-.843 2.016zm12.719 4.297l.234 1.453c-.458.093-.869.14-1.234.14-.594 0-1.057-.093-1.391-.281a1.6 1.6 0 01-.687-.734c-.136-.313-.203-.959-.203-1.938v-5.578h-1.203v-1.266h1.203v-2.39l1.625-.985v3.375h1.656v1.266h-1.656v5.672c0 .458.026.755.078.891a.783.783 0 00.281.328c.136.073.328.109.578.109.177 0 .417-.021.719-.062zm11.34-3.219l1.765.453c-.375 1.448-1.042 2.557-2 3.328-.958.76-2.135 1.141-3.531 1.141-1.438 0-2.609-.292-3.516-.875-.896-.594-1.583-1.443-2.062-2.547a9.174 9.174 0 01-.703-3.594c0-1.385.265-2.594.797-3.625.531-1.042 1.286-1.828 2.265-2.359a6.656 6.656 0 013.25-.813c1.333 0 2.453.339 3.36 1.016.916.677 1.552 1.635 1.906 2.875l-1.735.406c-.312-.969-.765-1.672-1.359-2.109-.583-.448-1.318-.672-2.203-.672-1.031 0-1.891.245-2.578.734-.688.49-1.172 1.151-1.453 1.985a7.844 7.844 0 00-.422 2.562c0 1.135.166 2.125.5 2.969.333.844.849 1.479 1.547 1.906a4.338 4.338 0 002.265.625c.99 0 1.828-.286 2.516-.859.687-.573 1.151-1.422 1.391-2.547zm3.129-.156c0-1.792.495-3.115 1.484-3.969.833-.719 1.849-1.078 3.047-1.078 1.333 0 2.422.437 3.266 1.312.843.865 1.265 2.068 1.265 3.61 0 1.239-.187 2.218-.562 2.937a3.992 3.992 0 01-1.641 1.656 4.688 4.688 0 01-2.328.594c-1.354 0-2.448-.432-3.281-1.297-.834-.875-1.25-2.13-1.25-3.765zm1.687 0c0 1.239.266 2.171.797 2.796.542.615 1.224.922 2.047.922.812 0 1.49-.307 2.031-.922.542-.625.813-1.572.813-2.843 0-1.198-.271-2.104-.813-2.719-.541-.615-1.219-.922-2.031-.922-.823 0-1.505.307-2.047.922-.531.604-.797 1.526-.797 2.766zm9.298 4.843v-9.672h1.469v1.375c.708-1.062 1.734-1.593 3.078-1.593.583 0 1.119.104 1.609.312.49.209.854.485 1.094.828.25.334.422.735.515 1.203.063.303.094.834.094 1.594v5.953h-1.64v-5.89c0-.667-.068-1.162-.204-1.485a1.567 1.567 0 00-.671-.797c-.323-.197-.704-.296-1.141-.296-.698 0-1.302.224-1.813.671-.5.438-.75 1.276-.75 2.516v5.281h-1.64zm13.954-1.468l.234 1.453c-.458.093-.87.14-1.234.14-.594 0-1.058-.093-1.391-.281a1.6 1.6 0 01-.687-.734c-.136-.313-.204-.959-.204-1.938v-5.578h-1.203v-1.266h1.203v-2.39l1.625-.985v3.375h1.657v1.266h-1.657v5.672c0 .458.026.755.079.891a.783.783 0 00.281.328c.135.073.328.109.578.109.177 0 .417-.021.719-.062zm8.23-1.641l1.687.203c-.27.99-.765 1.76-1.484 2.313-.719.541-1.641.812-2.766.812-1.416 0-2.541-.432-3.375-1.297-.823-.875-1.234-2.099-1.234-3.672 0-1.635.417-2.901 1.25-3.797.844-.895 1.932-1.343 3.266-1.343 1.291 0 2.343.442 3.156 1.328.823.875 1.234 2.109 1.234 3.703v.437h-7.219c.063 1.063.365 1.881.907 2.454.541.562 1.213.843 2.015.843.605 0 1.12-.156 1.547-.468.427-.323.766-.829 1.016-1.516zm-5.391-2.656h5.406c-.072-.813-.281-1.422-.625-1.828-.52-.636-1.197-.954-2.031-.954-.75 0-1.385.256-1.906.766-.51.5-.792 1.172-.844 2.016zm9.142 5.765v-9.672h1.468v1.375c.709-1.062 1.735-1.593 3.078-1.593.584 0 1.12.104 1.61.312.489.209.854.485 1.094.828.25.334.421.735.515 1.203.063.303.094.834.094 1.594v5.953h-1.641v-5.89c0-.667-.067-1.162-.203-1.485a1.564 1.564 0 00-.672-.797c-.323-.197-.703-.296-1.14-.296-.698 0-1.302.224-1.813.671-.5.438-.75 1.276-.75 2.516v5.281h-1.64zm13.953-1.468l.235 1.453c-.459.093-.87.14-1.235.14-.593 0-1.057-.093-1.39-.281a1.607 1.607 0 01-.688-.734c-.135-.313-.203-.959-.203-1.938v-5.578h-1.203v-1.266h1.203v-2.39l1.625-.985v3.375h1.656v1.266h-1.656v5.672c0 .458.026.755.078.891a.792.792 0 00.282.328c.135.073.328.109.578.109.177 0 .416-.021.718-.062zm4.731 5.39c-.907-1.135-1.672-2.469-2.297-4a12.495 12.495 0 01-.938-4.765c0-1.438.235-2.818.703-4.141.552-1.542 1.396-3.073 2.532-4.594h1.171c-.729 1.261-1.213 2.162-1.453 2.703a15.64 15.64 0 00-.875 2.625 15.288 15.288 0 00-.39 3.422c0 2.917.906 5.834 2.718 8.75h-1.171zm4.165 0h-1.187c1.823-2.916 2.734-5.833 2.734-8.75 0-1.146-.13-2.276-.39-3.39a13.9 13.9 0 00-.875-2.625c-.24-.553-.73-1.464-1.469-2.735h1.187c1.136 1.521 1.98 3.052 2.532 4.594.458 1.323.687 2.703.687 4.141 0 1.645-.312 3.234-.937 4.765-.625 1.531-1.386 2.865-2.282 4z"/><path fill="#cfe2f3" d="M551.894 240.487h116.441v64.63H551.894v-64.63z" fill-rule="evenodd"/><path stroke="#000" stroke-linejoin="round" stroke-linecap="butt" d="M551.894 240.487h116.441v64.63H551.894v-64.63z"/><path fill="none" d="M92.511 111.036h116.472"/><path stroke="#000" stroke-linejoin="round" stroke-linecap="butt" d="M92.511 120.612h110.472"/><path fill="#000" stroke="#000" stroke-linecap="butt" d="M202.983 122.264l4.538-1.652-4.538-1.652v3.304z" fill-rule="evenodd"/><path fill="none" d="M208.965 137.075H89.5"/><path stroke="#000" stroke-linejoin="round" stroke-linecap="butt" d="M208.965 137.075H95.5"/><path fill="#000" stroke="#000" stroke-linecap="butt" d="M95.5 135.424l-4.538 1.651 4.538 1.652v-3.303z" fill-rule="evenodd"/><path fill="none" d="M79.515 58.981H222.57v54.929H79.515V58.981z"/><path fill="#000" d="M93.764 87.395h-1.281v-8.203a7.463 7.463 0 01-1.219.89c-.5.292-.953.511-1.359.657v-1.25a7.778 7.778 0 001.89-1.219c.542-.49.922-.959 1.141-1.406h.828v10.531zm4.026 0v-1.469h1.469v1.469H97.79zm14.832-10.485h1.39v6.047c0 1.063-.12 1.907-.359 2.532-.24.614-.672 1.114-1.297 1.5-.625.385-1.443.578-2.453.578-.979 0-1.781-.167-2.406-.5a2.973 2.973 0 01-1.344-1.469c-.261-.646-.391-1.526-.391-2.641V76.91h1.391v6.047c0 .917.083 1.589.25 2.016.166.427.453.76.859 1 .417.229.927.344 1.531.344 1.021 0 1.745-.229 2.172-.688.438-.469.657-1.359.657-2.672V76.91zm3.021 8.219l1.266-.203c.073.51.271.901.594 1.172.333.271.791.406 1.375.406.593 0 1.031-.12 1.312-.359.292-.24.438-.521.438-.844a.782.782 0 00-.375-.687c-.177-.115-.615-.261-1.313-.438-.948-.24-1.604-.443-1.969-.609a1.91 1.91 0 01-1.109-1.75c0-.344.073-.657.219-.938.156-.291.37-.536.64-.734.198-.146.469-.266.813-.36a3.972 3.972 0 011.125-.156c.594 0 1.115.089 1.562.266.448.166.782.396 1 .687.219.292.365.683.438 1.172l-1.25.172c-.063-.385-.229-.687-.5-.906-.271-.229-.656-.344-1.156-.344-.594 0-1.021.099-1.282.297-.25.198-.375.427-.375.687a.73.73 0 00.157.454c.104.135.271.25.5.343.125.052.505.162 1.14.328.907.24 1.537.438 1.891.594.365.156.651.386.859.688.209.291.313.656.313 1.093 0 .428-.125.834-.375 1.219-.25.375-.615.667-1.094.875-.469.209-1 .313-1.594.313-.989 0-1.744-.203-2.265-.61-.511-.416-.839-1.026-.985-1.828zm13.047-.187l1.328.172c-.208.781-.599 1.385-1.172 1.812-.562.427-1.286.641-2.171.641-1.115 0-2-.339-2.657-1.016-.646-.687-.968-1.651-.968-2.891 0-1.281.328-2.27.984-2.968.667-.709 1.526-1.063 2.578-1.063 1.01 0 1.839.344 2.484 1.031.646.688.969 1.662.969 2.922 0 .073-.005.188-.015.344h-5.657c.042.833.276 1.474.703 1.922.428.437.959.656 1.594.656.469 0 .87-.12 1.203-.359.334-.25.599-.651.797-1.203zm-4.234-2.078h4.25c-.063-.636-.224-1.115-.485-1.438-.416-.5-.953-.75-1.609-.75-.583 0-1.078.198-1.484.594-.407.396-.631.927-.672 1.594zm7.167 4.531v-7.594h1.156v1.141c.302-.532.578-.881.828-1.047.25-.177.521-.266.812-.266.438 0 .881.136 1.329.406l-.438 1.204a1.828 1.828 0 00-.953-.282c-.281 0-.537.084-.766.25a1.36 1.36 0 00-.468.703 4.925 4.925 0 00-.219 1.5v3.985h-1.281zm13.921-.938c-.479.407-.938.693-1.375.86a3.98 3.98 0 01-1.422.25c-.833 0-1.474-.203-1.922-.61-.448-.406-.672-.927-.672-1.562 0-.375.084-.714.25-1.016.167-.312.386-.562.657-.75.281-.187.593-.328.937-.422.25-.062.63-.125 1.141-.187 1.041-.125 1.807-.276 2.297-.453.01-.177.015-.287.015-.328 0-.532-.125-.901-.375-1.11-.323-.291-.807-.437-1.453-.437-.615 0-1.068.109-1.359.328-.282.208-.49.578-.625 1.109l-1.266-.172c.115-.531.302-.963.563-1.297.26-.333.64-.588 1.14-.765.5-.177 1.073-.266 1.719-.266.656 0 1.187.078 1.594.235.406.145.703.333.89.562.188.229.323.521.407.875.041.219.062.615.062 1.188v1.718c0 1.198.026 1.959.078 2.282.052.312.162.614.328.906h-1.343a2.819 2.819 0 01-.266-.938zm-.109-2.875c-.469.188-1.167.349-2.094.485-.531.073-.906.161-1.125.265a1.075 1.075 0 00-.688 1.016c0 .344.13.63.391.859.26.229.641.344 1.141.344.489 0 .927-.104 1.312-.312.396-.219.682-.516.859-.891.136-.292.204-.724.204-1.297v-.469zm2.791 1.547l1.266-.203c.073.51.271.901.594 1.172.333.271.791.406 1.375.406.593 0 1.031-.12 1.312-.359.292-.24.438-.521.438-.844a.782.782 0 00-.375-.687c-.177-.115-.615-.261-1.313-.438-.948-.24-1.604-.443-1.969-.609a1.91 1.91 0 01-1.109-1.75c0-.344.073-.657.219-.938.156-.291.37-.536.64-.734.198-.146.469-.266.813-.36a3.972 3.972 0 011.125-.156c.594 0 1.114.089 1.562.266.448.166.782.396 1 .687.219.292.365.683.438 1.172l-1.25.172c-.063-.385-.229-.687-.5-.906-.271-.229-.656-.344-1.156-.344-.594 0-1.021.099-1.282.297-.25.198-.375.427-.375.687 0 .167.052.318.157.454.104.135.27.25.5.343.125.052.505.162 1.14.328.907.24 1.537.438 1.891.594.364.156.651.386.859.688.209.291.313.656.313 1.093 0 .428-.125.834-.375 1.219-.25.375-.615.667-1.094.875-.469.209-1 .313-1.594.313-.989 0-1.745-.203-2.265-.61-.511-.416-.839-1.026-.985-1.828zm7.844 2.266V76.91h1.297v5.969l3.047-3.078h1.672l-2.907 2.813 3.188 4.781h-1.578l-2.516-3.891-.906.875v3.016h-1.297zm6.813-2.266l1.265-.203c.073.51.271.901.594 1.172.333.271.792.406 1.375.406.594 0 1.031-.12 1.312-.359.292-.24.438-.521.438-.844a.782.782 0 00-.375-.687c-.177-.115-.615-.261-1.313-.438-.948-.24-1.604-.443-1.968-.609a1.898 1.898 0 01-.828-.735 1.933 1.933 0 01-.282-1.015c0-.344.073-.657.219-.938a2.17 2.17 0 01.641-.734c.198-.146.468-.266.812-.36a3.972 3.972 0 011.125-.156c.594 0 1.115.089 1.563.266.448.166.781.396 1 .687.218.292.364.683.437 1.172l-1.25.172c-.062-.385-.229-.687-.5-.906-.271-.229-.656-.344-1.156-.344-.594 0-1.021.099-1.281.297-.25.198-.375.427-.375.687 0 .167.052.318.156.454.104.135.271.25.5.343.125.052.505.162 1.141.328.906.24 1.536.438 1.89.594.365.156.651.386.86.688.208.291.312.656.312 1.093 0 .428-.125.834-.375 1.219-.25.375-.615.667-1.094.875-.468.209-1 .313-1.593.313-.99 0-1.745-.203-2.266-.61-.511-.416-.839-1.026-.984-1.828zm12.228 2.266v-6.594h-1.141v-1h1.141v-.812c0-.511.041-.891.125-1.141.125-.333.343-.604.656-.813.312-.208.75-.312 1.312-.312.365 0 .766.042 1.204.125l-.188 1.125a5.01 5.01 0 00-.766-.063c-.385 0-.661.084-.828.25-.156.167-.234.48-.234.938v.703h1.469v1h-1.469v6.594h-1.281zm3.275-3.797c0-1.406.39-2.448 1.172-3.125.656-.563 1.453-.844 2.39-.844 1.052 0 1.907.344 2.563 1.031.667.678 1 1.62 1 2.829 0 .979-.146 1.75-.438 2.312a3.132 3.132 0 01-1.281 1.297 3.738 3.738 0 01-1.844.469c-1.062 0-1.922-.339-2.578-1.016-.656-.687-.984-1.672-.984-2.953zm1.328 0c0 .969.208 1.698.625 2.187.427.48.964.719 1.609.719.646 0 1.177-.239 1.594-.719.427-.489.641-1.234.641-2.234 0-.937-.214-1.646-.641-2.125-.427-.49-.958-.734-1.594-.734-.645 0-1.182.239-1.609.718-.417.48-.625 1.209-.625 2.188zm7.292 3.797v-7.594h1.156v1.141c.302-.532.578-.881.828-1.047a1.38 1.38 0 01.813-.266c.437 0 .88.136 1.328.406l-.438 1.204a1.828 1.828 0 00-.953-.282c-.281 0-.536.084-.766.25a1.36 1.36 0 00-.468.703 4.925 4.925 0 00-.219 1.5v3.985h-1.281zm8.937 0V76.91h1.281v10.485h-1.281zm3.287-9.016V76.91h1.297v1.469h-1.297zm0 9.016v-7.594h1.297v7.594h-1.297zm2.741-2.266l1.265-.203c.073.51.271.901.594 1.172.333.271.792.406 1.375.406.594 0 1.031-.12 1.313-.359.291-.24.437-.521.437-.844a.782.782 0 00-.375-.687c-.177-.115-.615-.261-1.312-.438-.948-.24-1.605-.443-1.969-.609a1.898 1.898 0 01-.828-.735 1.933 1.933 0 01-.282-1.015c0-.344.073-.657.219-.938a2.17 2.17 0 01.641-.734c.198-.146.469-.266.812-.36a3.972 3.972 0 011.125-.156c.594 0 1.115.089 1.563.266.448.166.781.396 1 .687.219.292.364.683.437 1.172l-1.25.172c-.062-.385-.229-.687-.5-.906-.271-.229-.656-.344-1.156-.344-.594 0-1.021.099-1.281.297-.25.198-.375.427-.375.687 0 .167.052.318.156.454.104.135.271.25.5.343.125.052.505.162 1.141.328.906.24 1.536.438 1.89.594.365.156.651.386.86.688.208.291.312.656.312 1.093 0 .428-.125.834-.375 1.219-.25.375-.614.667-1.094.875-.468.209-1 .313-1.593.313-.99 0-1.745-.203-2.266-.61-.51-.416-.839-1.026-.984-1.828zm10.656 1.11l.187 1.14c-.364.073-.692.11-.984.11-.458 0-.818-.073-1.078-.219a1.218 1.218 0 01-.547-.578c-.104-.24-.156-.745-.156-1.516v-4.375h-.953v-1h.953V77.91l1.281-.765v2.656h1.297v1h-1.297v4.438c0 .364.021.604.063.718a.638.638 0 00.218.25c.104.052.255.078.453.078.136 0 .323-.015.563-.046zM88.795 101.198c0-1.406.391-2.448 1.172-3.125.656-.563 1.453-.844 2.391-.844 1.052 0 1.906.344 2.562 1.031.667.678 1 1.62 1 2.829 0 .979-.146 1.75-.437 2.312a3.14 3.14 0 01-1.282 1.297 3.736 3.736 0 01-1.843.469c-1.063 0-1.922-.339-2.578-1.016-.657-.687-.985-1.672-.985-2.953zm1.328 0c0 .969.209 1.698.625 2.187.427.48.964.719 1.61.719.646 0 1.177-.239 1.593-.719.428-.489.641-1.234.641-2.234 0-.937-.213-1.646-.641-2.125-.427-.49-.958-.734-1.593-.734-.646 0-1.183.239-1.61.718-.416.48-.625 1.209-.625 2.188zm7.62 3.797v-6.594h-1.14v-1h1.14v-.812c0-.511.042-.891.125-1.141a1.67 1.67 0 01.656-.813c.313-.208.75-.312 1.313-.312.365 0 .766.042 1.203.125l-.187 1.125a5.01 5.01 0 00-.766-.063c-.385 0-.661.084-.828.25-.156.167-.235.48-.235.938v.703h1.469v1h-1.469v6.594h-1.281zm12.785-2.781l1.265.156c-.135.875-.489 1.562-1.062 2.062-.563.49-1.261.735-2.094.735-1.042 0-1.88-.339-2.515-1.016-.625-.687-.938-1.661-.938-2.922 0-.823.135-1.541.406-2.156.271-.615.683-1.073 1.235-1.375a3.664 3.664 0 011.812-.469c.833 0 1.511.209 2.031.625.521.417.86 1.005 1.016 1.766l-1.266.203c-.114-.51-.323-.896-.625-1.156a1.614 1.614 0 00-1.093-.391c-.657 0-1.188.234-1.594.703-.406.469-.609 1.203-.609 2.203 0 1.021.192 1.766.578 2.235.395.458.911.687 1.547.687.5 0 .921-.151 1.265-.453.344-.312.557-.792.641-1.437zm1.89-1.016c0-1.406.391-2.448 1.172-3.125.657-.563 1.453-.844 2.391-.844 1.052 0 1.906.344 2.562 1.031.667.678 1 1.62 1 2.829 0 .979-.145 1.75-.437 2.312a3.144 3.144 0 01-1.281 1.297 3.74 3.74 0 01-1.844.469c-1.063 0-1.922-.339-2.578-1.016-.656-.687-.985-1.672-.985-2.953zm1.329 0c0 .969.208 1.698.625 2.187.427.48.963.719 1.609.719s1.177-.239 1.594-.719c.427-.489.64-1.234.64-2.234 0-.937-.213-1.646-.64-2.125-.427-.49-.959-.734-1.594-.734-.646 0-1.182.239-1.609.718-.417.48-.625 1.209-.625 2.188zm7.307 3.797v-7.594h1.156v1.078c.563-.833 1.37-1.25 2.422-1.25.458 0 .88.084 1.266.25.385.156.672.37.859.641.188.271.323.588.406.953.042.24.063.656.063 1.25v4.672h-1.281v-4.625c0-.521-.053-.912-.157-1.172a1.266 1.266 0 00-.547-.625 1.645 1.645 0 00-.89-.234c-.542 0-1.016.177-1.422.531-.396.344-.594 1-.594 1.969v4.156h-1.281zm10.964-1.156l.187 1.14c-.365.073-.693.11-.984.11-.459 0-.818-.073-1.078-.219a1.218 1.218 0 01-.547-.578c-.105-.24-.157-.745-.157-1.516v-4.375h-.953v-1h.953V95.51l1.282-.765v2.656h1.297v1h-1.297v4.438c0 .364.02.604.062.718a.632.632 0 00.219.25c.104.052.255.078.453.078.135 0 .323-.015.563-.046zm6.462-1.297l1.328.172c-.208.781-.599 1.385-1.172 1.812-.562.427-1.286.641-2.172.641-1.114 0-2-.339-2.656-1.016-.646-.687-.969-1.651-.969-2.891 0-1.281.329-2.27.985-2.968.667-.709 1.526-1.063 2.578-1.063 1.01 0 1.839.344 2.484 1.031.646.688.969 1.662.969 2.922 0 .073-.005.188-.016.344h-5.656c.042.833.276 1.474.703 1.922.427.437.959.656 1.594.656.469 0 .87-.12 1.203-.359.334-.25.599-.651.797-1.203zm-4.234-2.078h4.25c-.063-.636-.224-1.115-.485-1.438-.416-.5-.953-.75-1.609-.75-.583 0-1.078.198-1.484.594-.407.396-.631.927-.672 1.594zm7.182 4.531v-7.594h1.156v1.078c.563-.833 1.37-1.25 2.422-1.25.459 0 .88.084 1.266.25.385.156.672.37.859.641.188.271.323.588.406.953.042.24.063.656.063 1.25v4.672h-1.281v-4.625c0-.521-.052-.912-.157-1.172a1.27 1.27 0 00-.546-.625 1.649 1.649 0 00-.891-.234c-.542 0-1.016.177-1.422.531-.396.344-.594 1-.594 1.969v4.156h-1.281zm10.964-1.156l.187 1.14c-.364.073-.693.11-.984.11-.459 0-.818-.073-1.078-.219a1.218 1.218 0 01-.547-.578c-.104-.24-.156-.745-.156-1.516v-4.375h-.954v-1h.954V95.51l1.281-.765v2.656h1.297v1h-1.297v4.438c0 .364.021.604.062.718a.632.632 0 00.219.25c.104.052.255.078.453.078.136 0 .323-.015.563-.046z"/><path fill="none" d="M414.736 46.787H527.02v72.724H414.736V46.787z"/><path fill="#000" d="M431.111 68.632v1.235h-6.937c-.011-.313.041-.61.156-.891.177-.479.458-.948.844-1.406.395-.459.958-.985 1.687-1.578 1.146-.938 1.917-1.677 2.313-2.219.406-.552.609-1.073.609-1.563 0-.51-.188-.937-.563-1.281-.364-.354-.838-.531-1.421-.531-.615 0-1.11.187-1.485.562-.375.375-.562.891-.562 1.547l-1.328-.14c.093-.99.432-1.74 1.015-2.25.594-.521 1.391-.782 2.391-.782 1.01 0 1.807.282 2.39.844.584.552.875 1.24.875 2.063 0 .427-.088.843-.265 1.25-.167.395-.448.817-.844 1.265-.396.448-1.057 1.068-1.984 1.86-.771.645-1.266 1.083-1.485 1.312a4.208 4.208 0 00-.547.703h5.141zm2.104 1.235v-1.469h1.469v1.469h-1.469zm10.645 0v-4.438l-4.047-6.047h1.688l2.062 3.156c.385.594.74 1.188 1.063 1.782.322-.552.708-1.172 1.156-1.86l2.031-3.078h1.609l-4.187 6.047v4.438h-1.375zm4.82-3.797c0-1.407.39-2.448 1.172-3.125.656-.563 1.453-.844 2.39-.844 1.052 0 1.907.344 2.563 1.031.666.677 1 1.62 1 2.828 0 .98-.146 1.75-.438 2.313a3.132 3.132 0 01-1.281 1.297 3.737 3.737 0 01-1.844.468c-1.062 0-1.922-.338-2.578-1.015-.656-.688-.984-1.672-.984-2.953zm1.328 0c0 .968.208 1.698.625 2.187.427.479.963.719 1.609.719s1.177-.24 1.594-.719c.427-.489.641-1.234.641-2.234 0-.938-.214-1.646-.641-2.125-.427-.49-.958-.735-1.594-.735-.646 0-1.182.24-1.609.719-.417.479-.625 1.209-.625 2.188zm12.292 3.797v-1.11c-.594.854-1.401 1.281-2.422 1.281-.448 0-.865-.083-1.25-.25-.386-.177-.677-.395-.875-.656a2.38 2.38 0 01-.391-.953c-.052-.25-.078-.651-.078-1.203v-4.703h1.281v4.203c0 .677.026 1.13.078 1.359.084.344.256.615.516.813.271.187.599.281.984.281.386 0 .745-.099 1.079-.297.343-.198.583-.469.718-.812.146-.344.219-.839.219-1.485v-4.062h1.281v7.594h-1.14zm3.151 0v-7.594h1.156v1.14c.302-.531.578-.88.828-1.046a1.38 1.38 0 01.813-.266c.437 0 .88.135 1.328.406l-.438 1.203a1.836 1.836 0 00-.953-.281c-.281 0-.536.083-.765.25a1.362 1.362 0 00-.469.703 4.925 4.925 0 00-.219 1.5v3.985h-1.281zm8.452-2.266l1.266-.203c.073.51.271.901.594 1.172.333.271.791.406 1.375.406.594 0 1.031-.12 1.312-.359.292-.24.438-.521.438-.844a.785.785 0 00-.375-.688c-.177-.114-.615-.26-1.313-.437-.948-.24-1.604-.443-1.968-.61a1.904 1.904 0 01-1.11-1.75c0-.343.073-.656.219-.937a2.16 2.16 0 01.641-.734c.197-.146.468-.266.812-.36a3.972 3.972 0 011.125-.156c.594 0 1.115.089 1.563.266.447.166.781.395 1 .687.218.292.364.682.437 1.172l-1.25.172c-.062-.386-.229-.688-.5-.906-.271-.23-.656-.344-1.156-.344-.594 0-1.021.099-1.281.297-.25.198-.375.427-.375.687 0 .167.052.318.156.453.104.136.271.25.5.344.125.052.505.162 1.14.328.907.24 1.537.438 1.891.594.365.156.651.385.859.687.209.292.313.657.313 1.094 0 .427-.125.834-.375 1.219-.25.375-.615.667-1.094.875-.469.208-1 .312-1.594.312-.989 0-1.744-.203-2.265-.609-.511-.417-.839-1.026-.985-1.828zm13.047-.188l1.328.172c-.208.782-.599 1.386-1.171 1.813-.563.427-1.287.64-2.172.64-1.115 0-2-.338-2.657-1.015-.645-.688-.968-1.651-.968-2.891 0-1.281.328-2.271.984-2.969.667-.708 1.526-1.062 2.578-1.062 1.011 0 1.839.344 2.485 1.031.645.688.968 1.662.968 2.922 0 .073-.005.188-.015.344h-5.657c.042.833.276 1.474.704 1.922.427.437.958.656 1.593.656.469 0 .87-.12 1.203-.359.334-.25.599-.651.797-1.204zm-4.234-2.078h4.25c-.063-.635-.224-1.114-.484-1.437-.417-.5-.954-.75-1.61-.75-.583 0-1.078.198-1.484.594-.406.395-.63.927-.672 1.593zm7.167 4.532v-7.594h1.156v1.14c.302-.531.578-.88.828-1.046a1.38 1.38 0 01.813-.266c.437 0 .88.135 1.328.406l-.438 1.203a1.836 1.836 0 00-.953-.281c-.281 0-.536.083-.766.25a1.36 1.36 0 00-.468.703 4.925 4.925 0 00-.219 1.5v3.985h-1.281zm7.005 0l-2.89-7.594h1.359l1.625 4.547c.177.489.344 1 .5 1.531.104-.406.26-.891.469-1.453l1.687-4.625h1.328l-2.875 7.594h-1.203zm10.422-2.454l1.328.172c-.208.782-.599 1.386-1.172 1.813-.562.427-1.286.64-2.171.64-1.115 0-2-.338-2.657-1.015-.646-.688-.968-1.651-.968-2.891 0-1.281.328-2.271.984-2.969.667-.708 1.526-1.062 2.578-1.062 1.01 0 1.839.344 2.484 1.031.646.688.969 1.662.969 2.922 0 .073-.005.188-.015.344h-5.657c.042.833.276 1.474.703 1.922.428.437.959.656 1.594.656.469 0 .87-.12 1.203-.359.334-.25.599-.651.797-1.204zm-4.234-2.078h4.25c-.063-.635-.224-1.114-.485-1.437-.416-.5-.953-.75-1.609-.75-.583 0-1.078.198-1.484.594-.407.395-.631.927-.672 1.593zm7.167 4.532v-7.594h1.156v1.14c.302-.531.578-.88.828-1.046.25-.177.521-.266.812-.266.438 0 .881.135 1.329.406l-.438 1.203a1.836 1.836 0 00-.953-.281 1.27 1.27 0 00-.766.25 1.36 1.36 0 00-.468.703 4.925 4.925 0 00-.219 1.5v3.985h-1.281zM424.689 87.467v-7.594h1.156v1.14c.303-.531.579-.88.829-1.046.25-.177.52-.266.812-.266.438 0 .88.135 1.328.406l-.437 1.203a1.838 1.838 0 00-.953-.281c-.282 0-.537.083-.766.25a1.362 1.362 0 00-.469.703 4.925 4.925 0 00-.219 1.5v3.985h-1.281zm10.1-2.454l1.328.172c-.209.782-.599 1.386-1.172 1.813-.563.427-1.287.64-2.172.64-1.115 0-2-.338-2.656-1.015-.646-.688-.969-1.651-.969-2.891 0-1.281.328-2.271.984-2.969.667-.708 1.526-1.062 2.579-1.062 1.01 0 1.838.344 2.484 1.031.646.688.969 1.662.969 2.922 0 .073-.006.188-.016.344h-5.656c.041.833.276 1.474.703 1.922.427.437.958.656 1.594.656.468 0 .869-.12 1.203-.359.333-.25.599-.651.797-1.204zm-4.235-2.078h4.25c-.062-.635-.224-1.114-.484-1.437a2 2 0 00-1.609-.75c-.584 0-1.079.198-1.485.594-.406.395-.63.927-.672 1.593zm9.995 3.375l.188 1.141a5.067 5.067 0 01-.985.109c-.458 0-.817-.073-1.078-.218a1.22 1.22 0 01-.547-.579c-.104-.239-.156-.744-.156-1.515v-4.375h-.953v-1h.953v-1.891l1.281-.765v2.656h1.297v1h-1.297v4.437c0 .365.021.605.063.719a.632.632 0 00.219.25c.104.052.255.078.453.078.135 0 .323-.015.562-.047zm1.244 1.157v-7.594h1.156v1.14c.302-.531.578-.88.828-1.046a1.38 1.38 0 01.813-.266c.437 0 .88.135 1.328.406l-.437 1.203a1.842 1.842 0 00-.954-.281c-.281 0-.536.083-.765.25a1.362 1.362 0 00-.469.703 4.925 4.925 0 00-.219 1.5v3.985h-1.281zm4.896-9.016v-1.469h1.297v1.469h-1.297zm0 9.016v-7.594h1.297v7.594h-1.297zm8.46-2.454l1.328.172c-.209.782-.599 1.386-1.172 1.813-.563.427-1.287.64-2.172.64-1.115 0-2-.338-2.656-1.015-.646-.688-.969-1.651-.969-2.891 0-1.281.328-2.271.984-2.969.667-.708 1.526-1.062 2.578-1.062 1.011 0 1.839.344 2.485 1.031.646.688.969 1.662.969 2.922 0 .073-.006.188-.016.344h-5.656c.041.833.276 1.474.703 1.922.427.437.958.656 1.594.656.468 0 .869-.12 1.203-.359.333-.25.599-.651.797-1.204zm-4.235-2.078h4.25c-.062-.635-.224-1.114-.484-1.437a2 2 0 00-1.61-.75c-.583 0-1.078.198-1.484.594-.406.395-.63.927-.672 1.593zm9.292 4.532l-2.891-7.594h1.36l1.625 4.547c.177.489.343 1 .5 1.531.104-.406.26-.891.468-1.453l1.688-4.625h1.328l-2.875 7.594h-1.203zm10.422-2.454l1.328.172c-.208.782-.599 1.386-1.172 1.813-.562.427-1.286.64-2.172.64-1.114 0-2-.338-2.656-1.015-.646-.688-.969-1.651-.969-2.891 0-1.281.328-2.271.985-2.969.666-.708 1.526-1.062 2.578-1.062 1.01 0 1.838.344 2.484 1.031.646.688.969 1.662.969 2.922 0 .073-.005.188-.016.344h-5.656c.042.833.276 1.474.703 1.922.427.437.958.656 1.594.656.469 0 .87-.12 1.203-.359.333-.25.599-.651.797-1.204zm-4.235-2.078h4.25c-.062-.635-.224-1.114-.484-1.437a2 2 0 00-1.609-.75c-.584 0-1.078.198-1.485.594-.406.395-.63.927-.672 1.593zm6.667 2.266l1.266-.203c.073.51.271.901.594 1.172.333.271.791.406 1.375.406.593 0 1.031-.12 1.312-.359.292-.24.438-.521.438-.844a.785.785 0 00-.375-.688c-.178-.114-.615-.26-1.313-.437-.948-.24-1.604-.443-1.969-.61a1.907 1.907 0 01-1.109-1.75c0-.343.073-.656.219-.937.156-.292.369-.536.64-.734.198-.146.469-.266.813-.36a3.972 3.972 0 011.125-.156c.594 0 1.114.089 1.562.266.448.166.782.395 1 .687.219.292.365.682.438 1.172l-1.25.172c-.063-.386-.229-.688-.5-.906-.271-.23-.656-.344-1.156-.344-.594 0-1.021.099-1.282.297-.25.198-.375.427-.375.687a.72.72 0 00.157.453c.104.136.27.25.5.344.125.052.505.162 1.14.328.906.24 1.537.438 1.891.594.364.156.651.385.859.687.208.292.313.657.313 1.094 0 .427-.125.834-.375 1.219-.25.375-.615.667-1.094.875-.469.208-1 .312-1.594.312-.989 0-1.745-.203-2.265-.609-.511-.417-.839-1.026-.985-1.828zm16.869 1.328c-.479.406-.938.693-1.375.859-.438.167-.911.25-1.422.25-.833 0-1.474-.203-1.922-.609-.448-.406-.672-.927-.672-1.562 0-.375.084-.714.25-1.016.167-.313.386-.563.657-.75.281-.188.593-.328.937-.422.25-.062.63-.125 1.141-.187 1.041-.125 1.807-.276 2.297-.454.01-.177.015-.286.015-.328 0-.531-.125-.901-.375-1.109-.323-.292-.807-.438-1.453-.438-.614 0-1.068.11-1.359.329-.282.208-.49.578-.625 1.109l-1.266-.172c.115-.531.302-.963.563-1.297.26-.333.64-.588 1.14-.765.5-.177 1.073-.266 1.719-.266.656 0 1.187.078 1.594.234.406.146.703.334.89.563.188.229.323.521.407.875.041.219.062.614.062 1.187v1.719c0 1.198.026 1.958.078 2.281.052.313.162.615.328.907h-1.343a2.819 2.819 0 01-.266-.938zm-.109-2.875c-.469.188-1.167.349-2.094.484-.531.073-.906.162-1.125.266a1.075 1.075 0 00-.688 1.016c0 .343.131.63.391.859.26.229.641.344 1.141.344.489 0 .927-.104 1.312-.313.396-.218.682-.515.859-.89.136-.292.204-.724.204-1.297v-.469zm3.307 3.813v-7.594h1.156v1.078c.563-.833 1.37-1.25 2.422-1.25.458 0 .88.083 1.266.25.385.156.672.37.859.641.188.27.323.588.406.953.042.239.063.656.063 1.25v4.672h-1.281v-4.625c0-.521-.052-.912-.157-1.172a1.262 1.262 0 00-.547-.625 1.637 1.637 0 00-.89-.235c-.542 0-1.016.177-1.422.532-.396.343-.594 1-.594 1.968v4.157h-1.281zm13.073 0v-.954c-.479.75-1.188 1.125-2.125 1.125a2.991 2.991 0 01-1.672-.5c-.5-.333-.891-.796-1.172-1.39-.281-.604-.422-1.297-.422-2.078 0-.761.125-1.448.375-2.063.261-.614.641-1.083 1.141-1.406a3.05 3.05 0 011.703-.5c.458 0 .865.099 1.219.297.354.187.646.432.875.734v-3.75h1.281v10.485H506.2zm-4.063-3.797c0 .979.204 1.708.61 2.187.416.479.901.719 1.453.719.562 0 1.042-.229 1.437-.688.396-.458.594-1.161.594-2.109 0-1.042-.203-1.802-.609-2.281-.396-.49-.891-.735-1.485-.735-.562 0-1.036.235-1.421.704-.386.468-.579 1.203-.579 2.203zM424.689 105.067v-7.594h1.156v1.14c.303-.531.579-.88.829-1.046.25-.177.52-.266.812-.266.438 0 .88.135 1.328.406l-.437 1.203a1.838 1.838 0 00-.953-.281c-.282 0-.537.083-.766.25a1.362 1.362 0 00-.469.703 4.925 4.925 0 00-.219 1.5v3.985h-1.281zm9.85-.938c-.479.406-.938.693-1.375.859-.438.167-.912.25-1.422.25-.834 0-1.474-.203-1.922-.609-.448-.406-.672-.927-.672-1.562 0-.375.083-.714.25-1.016.167-.313.385-.563.656-.75.282-.188.594-.328.938-.422.25-.062.63-.125 1.14-.187 1.042-.125 1.808-.276 2.297-.454.011-.177.016-.286.016-.328 0-.531-.125-.901-.375-1.109-.323-.292-.807-.438-1.453-.438-.615 0-1.068.11-1.36.329-.281.208-.489.578-.625 1.109l-1.265-.172c.114-.531.302-.963.562-1.297.261-.333.641-.588 1.141-.765.5-.177 1.073-.266 1.719-.266.656 0 1.187.078 1.593.234.407.146.704.334.891.563.188.229.323.521.406.875.042.219.063.614.063 1.187v1.719c0 1.198.026 1.958.078 2.281.052.313.161.615.328.907h-1.344a2.818 2.818 0 01-.265-.938zm-.11-2.875c-.468.188-1.166.349-2.093.484-.532.073-.907.162-1.125.266a1.144 1.144 0 00-.516.422 1.066 1.066 0 00-.172.594c0 .343.13.63.391.859.26.229.64.344 1.14.344.49 0 .927-.104 1.313-.313.396-.218.682-.515.859-.89.136-.292.203-.724.203-1.297v-.469zm3.308 3.813v-7.594h1.156v1.078c.562-.833 1.37-1.25 2.422-1.25.458 0 .88.083 1.265.25.386.156.672.37.86.641.187.27.323.588.406.953.042.239.063.656.063 1.25v4.672h-1.282v-4.625c0-.521-.052-.912-.156-1.172a1.262 1.262 0 00-.547-.625 1.64 1.64 0 00-.89-.235c-.542 0-1.016.177-1.422.532-.396.343-.594 1-.594 1.968v4.157h-1.281zm8.151 0V94.582h1.297v5.969l3.046-3.078h1.672l-2.906 2.812 3.188 4.782h-1.579l-2.515-3.891-.906.875v3.016h-1.297zm6.812-2.266l1.266-.203c.073.51.271.901.594 1.172.333.271.791.406 1.375.406.593 0 1.031-.12 1.312-.359.292-.24.438-.521.438-.844a.785.785 0 00-.375-.688c-.177-.114-.615-.26-1.313-.437-.948-.24-1.604-.443-1.969-.61a1.907 1.907 0 01-1.109-1.75c0-.343.073-.656.219-.937.156-.292.37-.536.64-.734.198-.146.469-.266.813-.36a3.972 3.972 0 011.125-.156c.594 0 1.114.089 1.562.266.448.166.782.395 1 .687.219.292.365.682.438 1.172l-1.25.172c-.063-.386-.229-.688-.5-.906-.271-.23-.656-.344-1.156-.344-.594 0-1.021.099-1.282.297-.25.198-.375.427-.375.687a.72.72 0 00.157.453c.104.136.27.25.5.344.125.052.505.162 1.14.328.906.24 1.537.438 1.891.594.364.156.651.385.859.687.209.292.313.657.313 1.094 0 .427-.125.834-.375 1.219-.25.375-.615.667-1.094.875-.469.208-1 .312-1.594.312-.989 0-1.745-.203-2.265-.609-.511-.417-.839-1.026-.985-1.828zm16.869-.516l1.266.157c-.136.875-.49 1.562-1.063 2.062-.562.49-1.26.734-2.094.734-1.041 0-1.88-.338-2.515-1.015-.625-.688-.938-1.662-.938-2.922 0-.823.136-1.542.407-2.156.27-.615.682-1.073 1.234-1.375a3.667 3.667 0 011.812-.469c.834 0 1.511.208 2.032.625.521.417.859 1.005 1.015 1.766l-1.265.203c-.115-.511-.323-.896-.625-1.157a1.62 1.62 0 00-1.094-.39c-.656 0-1.188.234-1.594.703-.406.469-.609 1.203-.609 2.203 0 1.021.193 1.766.578 2.234.396.459.911.688 1.547.688.5 0 .922-.151 1.265-.453.344-.313.558-.792.641-1.438zm1.891-1.015c0-1.407.39-2.448 1.172-3.125.656-.563 1.453-.844 2.39-.844 1.052 0 1.906.344 2.563 1.031.666.677 1 1.62 1 2.828 0 .98-.146 1.75-.438 2.313a3.138 3.138 0 01-1.281 1.297 3.74 3.74 0 01-1.844.468c-1.062 0-1.922-.338-2.578-1.015-.656-.688-.984-1.672-.984-2.953zm1.328 0c0 .968.208 1.698.625 2.187.427.479.963.719 1.609.719s1.177-.24 1.594-.719c.427-.489.641-1.234.641-2.234 0-.938-.214-1.646-.641-2.125-.427-.49-.958-.735-1.594-.735-.646 0-1.182.24-1.609.719-.417.479-.625 1.209-.625 2.188zm7.307 3.797v-7.594h1.156v1.078c.563-.833 1.37-1.25 2.422-1.25.459 0 .881.083 1.266.25.385.156.672.37.859.641.188.27.323.588.407.953.041.239.062.656.062 1.25v4.672h-1.281v-4.625c0-.521-.052-.912-.156-1.172a1.272 1.272 0 00-.547-.625 1.64 1.64 0 00-.891-.235c-.542 0-1.016.177-1.422.532-.396.343-.594 1-.594 1.968v4.157h-1.281zm10.964-1.157l.187 1.141a5.049 5.049 0 01-.984.109c-.458 0-.818-.073-1.078-.218a1.216 1.216 0 01-.547-.579c-.104-.239-.156-.744-.156-1.515v-4.375h-.953v-1h.953v-1.891l1.281-.765v2.656h1.297v1h-1.297v4.437c0 .365.021.605.062.719a.64.64 0 00.219.25c.104.052.255.078.453.078.136 0 .323-.015.563-.047zm6.462-1.297l1.329.172c-.209.782-.599 1.386-1.172 1.813-.563.427-1.287.64-2.172.64-1.115 0-2-.338-2.656-1.015-.646-.688-.969-1.651-.969-2.891 0-1.281.328-2.271.984-2.969.667-.708 1.526-1.062 2.578-1.062 1.011 0 1.839.344 2.485 1.031.645.688.968 1.662.968 2.922 0 .073-.005.188-.015.344h-5.656c.041.833.276 1.474.703 1.922.427.437.958.656 1.593.656.469 0 .87-.12 1.204-.359.333-.25.598-.651.796-1.204zm-4.234-2.078h4.25c-.062-.635-.224-1.114-.484-1.437a2 2 0 00-1.61-.75c-.583 0-1.078.198-1.484.594-.406.395-.63.927-.672 1.593zm7.182 4.532v-7.594h1.157v1.078c.562-.833 1.369-1.25 2.422-1.25.458 0 .88.083 1.265.25.386.156.672.37.86.641.187.27.322.588.406.953.041.239.062.656.062 1.25v4.672h-1.281v-4.625c0-.521-.052-.912-.156-1.172a1.267 1.267 0 00-.547-.625 1.64 1.64 0 00-.891-.235c-.541 0-1.015.177-1.422.532-.395.343-.593 1-.593 1.968v4.157h-1.282zm10.964-1.157l.188 1.141a5.067 5.067 0 01-.985.109c-.458 0-.818-.073-1.078-.218a1.22 1.22 0 01-.547-.579c-.104-.239-.156-.744-.156-1.515v-4.375h-.953v-1h.953v-1.891l1.281-.765v2.656h1.297v1h-1.297v4.437c0 .365.021.605.063.719a.638.638 0 00.218.25c.105.052.256.078.454.078.135 0 .322-.015.562-.047z"/><path fill="none" d="M420.946 119.51H533.23"/><path stroke="#000" stroke-linejoin="round" stroke-linecap="butt" d="M420.946 119.51H527.23"/><path fill="#000" stroke="#000" stroke-linecap="butt" d="M527.23 121.161l4.538-1.651-4.538-1.652v3.303z" fill-rule="evenodd"/><path fill="none" d="M531.225 137.075h-110.3"/><path stroke="#000" stroke-linejoin="round" stroke-linecap="butt" d="M531.225 137.075h-104.3"/><path fill="#000" stroke="#000" stroke-linecap="butt" d="M426.925 135.424l-4.538 1.651 4.538 1.652v-3.303z" fill-rule="evenodd"/><path fill="#cfe2f3" d="M547.298 75.272c0 6.584 28.541 11.921 63.748 11.921 35.207 0 63.748-5.337 63.748-11.921V146.8c0 6.584-28.541 11.921-63.748 11.921-35.207 0-63.748-5.337-63.748-11.921V75.272z" fill-rule="evenodd"/><path fill="#e2edf7" d="M547.298 75.272c0-6.584 28.541-11.921 63.748-11.921 35.207 0 63.748 5.337 63.748 11.921s-28.541 11.921-63.748 11.921c-35.207 0-63.748-5.337-63.748-11.921z" fill-rule="evenodd"/><path fill="none" d="M674.794 75.272c0 6.584-28.541 11.921-63.748 11.921-35.207 0-63.748-5.337-63.748-11.921s28.541-11.921 63.748-11.921c35.207 0 63.748 5.337 63.748 11.921V146.8c0 6.584-28.541 11.921-63.748 11.921-35.207 0-63.748-5.337-63.748-11.921V75.272"/><path stroke="#000" stroke-linejoin="round" stroke-linecap="butt" d="M674.794 75.272c0 6.584-28.541 11.921-63.748 11.921-35.207 0-63.748-5.337-63.748-11.921s28.541-11.921 63.748-11.921c35.207 0 63.748 5.337 63.748 11.921V146.8c0 6.584-28.541 11.921-63.748 11.921-35.207 0-63.748-5.337-63.748-11.921V75.272"/><path fill="none" d="M328.07 187.913h194.267v72.724H328.07v-72.724z"/><path fill="#000" d="M337.679 208.227l1.297-.172c.146.729.396 1.255.75 1.578.354.323.786.485 1.297.485.604 0 1.114-.209 1.531-.625.427-.427.641-.948.641-1.563 0-.594-.198-1.083-.594-1.469-.385-.385-.875-.578-1.469-.578-.239 0-.541.047-.906.141l.141-1.125c.083.01.151.015.203.015.552 0 1.047-.14 1.484-.421.438-.292.656-.74.656-1.344 0-.469-.161-.854-.484-1.156-.312-.313-.724-.469-1.234-.469-.5 0-.917.156-1.25.469-.334.312-.547.786-.641 1.421l-1.281-.234c.156-.864.51-1.531 1.062-2 .563-.479 1.261-.719 2.094-.719.573 0 1.099.125 1.578.375.479.24.844.573 1.094 1 .26.427.391.875.391 1.344 0 .458-.125.875-.375 1.25-.24.365-.594.656-1.063.875.615.146 1.094.448 1.438.906.343.448.515 1.011.515 1.688a3.09 3.09 0 01-1 2.328c-.667.635-1.51.953-2.531.953-.927 0-1.693-.271-2.297-.812-.604-.552-.953-1.266-1.047-2.141zm8.87 2.766v-1.469h1.469v1.469h-1.469zm7.941 0v-10.485h3.969c.697 0 1.229.031 1.593.094.511.083.938.245 1.282.484.354.24.635.578.843 1.016.219.437.328.917.328 1.437 0 .886-.286 1.641-.859 2.266-.562.615-1.588.922-3.078.922h-2.688v4.266h-1.39zm1.39-5.5h2.719c.896 0 1.531-.167 1.906-.5.375-.334.563-.802.563-1.407 0-.448-.109-.828-.328-1.14a1.494 1.494 0 00-.875-.61c-.24-.062-.672-.093-1.297-.093h-2.688v3.75zm8.214 5.5v-7.594h1.156v1.14c.302-.531.578-.88.828-1.046.25-.177.521-.266.812-.266.438 0 .881.135 1.329.406l-.438 1.203a1.836 1.836 0 00-.953-.281 1.27 1.27 0 00-.766.25 1.36 1.36 0 00-.468.703 4.925 4.925 0 00-.219 1.5v3.985h-1.281zm4.411-3.797c0-1.407.391-2.448 1.172-3.125.657-.563 1.453-.844 2.391-.844 1.052 0 1.906.344 2.562 1.031.667.677 1 1.62 1 2.828 0 .98-.145 1.75-.437 2.313a3.144 3.144 0 01-1.281 1.297 3.74 3.74 0 01-1.844.468c-1.063 0-1.922-.338-2.578-1.015-.656-.688-.985-1.672-.985-2.953zm1.329 0c0 .968.208 1.698.625 2.187.427.479.963.719 1.609.719s1.177-.24 1.594-.719c.427-.489.64-1.234.64-2.234 0-.938-.213-1.646-.64-2.125-.427-.49-.959-.735-1.594-.735-.646 0-1.182.24-1.609.719-.417.479-.625 1.209-.625 2.188zm7.307 3.797v-7.594h1.156v1.062c.229-.375.542-.672.938-.89a2.718 2.718 0 011.359-.344c.563 0 1.021.115 1.375.344.365.229.62.557.766.984.604-.885 1.39-1.328 2.359-1.328.75 0 1.328.208 1.734.625.407.417.61 1.057.61 1.922v5.219h-1.281v-4.782c0-.52-.042-.89-.125-1.109a1.062 1.062 0 00-.454-.547 1.372 1.372 0 00-.781-.219c-.531 0-.974.177-1.328.532-.354.354-.531.921-.531 1.703v4.422h-1.281v-4.938c0-.573-.105-1-.313-1.281-.208-.292-.552-.438-1.031-.438-.365 0-.703.099-1.016.297a1.676 1.676 0 00-.672.828c-.135.365-.203.896-.203 1.594v3.938h-1.281zm11.724-3.797c0-1.407.391-2.448 1.172-3.125.656-.563 1.453-.844 2.391-.844 1.052 0 1.906.344 2.562 1.031.667.677 1 1.62 1 2.828 0 .98-.146 1.75-.437 2.313a3.144 3.144 0 01-1.281 1.297 3.742 3.742 0 01-1.844.468c-1.063 0-1.922-.338-2.578-1.015-.657-.688-.985-1.672-.985-2.953zm1.328 0c0 .968.209 1.698.625 2.187.428.479.964.719 1.61.719.646 0 1.177-.24 1.594-.719.427-.489.64-1.234.64-2.234 0-.938-.213-1.646-.64-2.125-.428-.49-.959-.735-1.594-.735-.646 0-1.182.24-1.61.719-.416.479-.625 1.209-.625 2.188zm10.12 2.64l.188 1.141a5.067 5.067 0 01-.985.109c-.458 0-.817-.073-1.078-.218a1.225 1.225 0 01-.547-.579c-.104-.239-.156-.744-.156-1.515v-4.375h-.953v-1h.953v-1.891l1.281-.765v2.656h1.297v1h-1.297v4.437c0 .365.021.605.063.719a.632.632 0 00.219.25c.104.052.255.078.453.078.135 0 .323-.015.562-.047zm6.463-1.297l1.328.172c-.208.782-.599 1.386-1.172 1.813-.562.427-1.286.64-2.172.64-1.114 0-2-.338-2.656-1.015-.646-.688-.969-1.651-.969-2.891 0-1.281.328-2.271.985-2.969.666-.708 1.526-1.062 2.578-1.062 1.01 0 1.838.344 2.484 1.031.646.688.969 1.662.969 2.922 0 .073-.005.188-.016.344h-5.656c.042.833.276 1.474.703 1.922.427.437.958.656 1.594.656.469 0 .87-.12 1.203-.359.333-.25.599-.651.797-1.204zm-4.234-2.078h4.25c-.063-.635-.224-1.114-.485-1.437a2 2 0 00-1.609-.75c-.584 0-1.078.198-1.485.594-.406.395-.63.927-.671 1.593zm12.104 4.532v-.954c-.479.75-1.188 1.125-2.125 1.125a2.991 2.991 0 01-1.672-.5c-.5-.333-.891-.796-1.172-1.39-.281-.604-.422-1.297-.422-2.078 0-.761.125-1.448.375-2.063.261-.614.641-1.083 1.141-1.406a3.05 3.05 0 011.703-.5c.458 0 .864.099 1.219.297.354.187.645.432.875.734v-3.75h1.281v10.485h-1.203zm-4.063-3.797c0 .979.203 1.708.61 2.187.416.479.901.719 1.453.719.562 0 1.041-.229 1.437-.688.396-.458.594-1.161.594-2.109 0-1.042-.203-1.802-.609-2.281-.396-.49-.891-.735-1.485-.735-.562 0-1.036.235-1.422.704-.385.468-.578 1.203-.578 2.203zm11.364-5.219v-1.469h1.297v1.469h-1.297zm0 9.016v-7.594h1.297v7.594h-1.297zm2.74-2.266l1.266-.203c.073.51.271.901.594 1.172.333.271.792.406 1.375.406.594 0 1.031-.12 1.312-.359.292-.24.438-.521.438-.844a.785.785 0 00-.375-.688c-.177-.114-.615-.26-1.313-.437-.948-.24-1.604-.443-1.968-.61a1.904 1.904 0 01-1.11-1.75c0-.343.073-.656.219-.937a2.16 2.16 0 01.641-.734c.198-.146.468-.266.812-.36a3.972 3.972 0 011.125-.156c.594 0 1.115.089 1.563.266.448.166.781.395 1 .687.218.292.364.682.437 1.172l-1.25.172c-.062-.386-.229-.688-.5-.906-.271-.23-.656-.344-1.156-.344-.594 0-1.021.099-1.281.297-.25.198-.375.427-.375.687 0 .167.052.318.156.453.104.136.271.25.5.344.125.052.505.162 1.14.328.907.24 1.537.438 1.891.594.365.156.651.385.859.687.209.292.313.657.313 1.094 0 .427-.125.834-.375 1.219-.25.375-.615.667-1.094.875-.469.208-1 .312-1.594.312-.989 0-1.744-.203-2.265-.609-.511-.417-.839-1.026-.985-1.828zm16.869-.516l1.266.157c-.135.875-.49 1.562-1.063 2.062-.562.49-1.26.734-2.093.734-1.042 0-1.88-.338-2.516-1.015-.625-.688-.937-1.662-.937-2.922 0-.823.135-1.542.406-2.156.271-.615.682-1.073 1.234-1.375a3.67 3.67 0 011.813-.469c.833 0 1.51.208 2.031.625.521.417.859 1.005 1.016 1.766l-1.266.203c-.115-.511-.323-.896-.625-1.157a1.62 1.62 0 00-1.094-.39c-.656 0-1.187.234-1.594.703-.406.469-.609 1.203-.609 2.203 0 1.021.193 1.766.578 2.234.396.459.912.688 1.547.688.5 0 .922-.151 1.266-.453.343-.313.557-.792.64-1.438zm7.328 1.844c-.479.406-.937.693-1.375.859-.437.167-.911.25-1.421.25-.834 0-1.474-.203-1.922-.609-.448-.406-.672-.927-.672-1.562 0-.375.083-.714.25-1.016.167-.313.385-.563.656-.75.281-.188.594-.328.938-.422.25-.062.63-.125 1.14-.187 1.042-.125 1.808-.276 2.297-.454.011-.177.016-.286.016-.328 0-.531-.125-.901-.375-1.109-.323-.292-.808-.438-1.453-.438-.615 0-1.068.11-1.36.329-.281.208-.489.578-.625 1.109l-1.265-.172c.114-.531.302-.963.562-1.297.261-.333.641-.588 1.141-.765.5-.177 1.073-.266 1.718-.266.657 0 1.188.078 1.594.234.406.146.703.334.891.563.187.229.323.521.406.875.042.219.063.614.063 1.187v1.719c0 1.198.026 1.958.078 2.281.052.313.161.615.328.907h-1.344a2.842 2.842 0 01-.266-.938zm-.109-2.875c-.469.188-1.167.349-2.094.484-.531.073-.906.162-1.125.266-.218.094-.39.234-.515.422a1.066 1.066 0 00-.172.594c0 .343.13.63.39.859.261.229.641.344 1.141.344.49 0 .927-.104 1.313-.313.395-.218.682-.515.859-.89.135-.292.203-.724.203-1.297v-.469zm3.276 3.813v-10.485h1.281v10.485h-1.281zm3.256 0v-10.485h1.282v10.485h-1.282zm8.491-2.454l1.328.172c-.208.782-.599 1.386-1.172 1.813-.562.427-1.286.64-2.172.64-1.114 0-2-.338-2.656-1.015-.646-.688-.969-1.651-.969-2.891 0-1.281.328-2.271.985-2.969.666-.708 1.526-1.062 2.578-1.062 1.01 0 1.838.344 2.484 1.031.646.688.969 1.662.969 2.922 0 .073-.005.188-.016.344h-5.656c.042.833.276 1.474.703 1.922.427.437.958.656 1.594.656.469 0 .87-.12 1.203-.359.333-.25.599-.651.797-1.204zm-4.234-2.078h4.25c-.063-.635-.224-1.114-.485-1.437a2 2 0 00-1.609-.75c-.584 0-1.078.198-1.485.594-.406.395-.63.927-.671 1.593zm12.104 4.532v-.954c-.479.75-1.188 1.125-2.125 1.125a2.991 2.991 0 01-1.672-.5c-.5-.333-.891-.796-1.172-1.39-.281-.604-.422-1.297-.422-2.078 0-.761.125-1.448.375-2.063.261-.614.641-1.083 1.141-1.406a3.05 3.05 0 011.703-.5c.458 0 .864.099 1.219.297.354.187.645.432.875.734v-3.75h1.281v10.485h-1.203zm-4.063-3.797c0 .979.203 1.708.61 2.187.416.479.901.719 1.453.719.562 0 1.041-.229 1.437-.688.396-.458.594-1.161.594-2.109 0-1.042-.203-1.802-.609-2.281-.396-.49-.891-.735-1.485-.735-.562 0-1.036.235-1.422.704-.385.468-.578 1.203-.578 2.203zm14.176 2.64l.188 1.141a5.065 5.065 0 01-.984.109c-.459 0-.818-.073-1.079-.218a1.218 1.218 0 01-.546-.579c-.105-.239-.157-.744-.157-1.515v-4.375h-.953v-1h.953v-1.891l1.282-.765v2.656h1.296v1h-1.296v4.437c0 .365.02.605.062.719a.632.632 0 00.219.25c.104.052.255.078.453.078.135 0 .323-.015.562-.047zm.776-2.64c0-1.407.39-2.448 1.171-3.125.657-.563 1.454-.844 2.391-.844 1.052 0 1.906.344 2.563 1.031.666.677 1 1.62 1 2.828 0 .98-.146 1.75-.438 2.313a3.144 3.144 0 01-1.281 1.297 3.74 3.74 0 01-1.844.468c-1.062 0-1.922-.338-2.578-1.015-.656-.688-.984-1.672-.984-2.953zm1.328 0c0 .968.208 1.698.625 2.187.427.479.963.719 1.609.719s1.177-.24 1.594-.719c.427-.489.64-1.234.64-2.234 0-.938-.213-1.646-.64-2.125-.427-.49-.959-.735-1.594-.735-.646 0-1.182.24-1.609.719-.417.479-.625 1.209-.625 2.188zM343.242 226.139l1.328.172c-.209.782-.599 1.386-1.172 1.813-.563.427-1.287.64-2.172.64-1.115 0-2-.338-2.656-1.015-.646-.688-.969-1.651-.969-2.891 0-1.281.328-2.271.984-2.969.667-.708 1.526-1.062 2.579-1.062 1.01 0 1.838.344 2.484 1.031.646.688.969 1.662.969 2.922 0 .073-.006.188-.016.344h-5.656c.041.833.276 1.474.703 1.922.427.437.958.656 1.594.656.468 0 .869-.12 1.203-.359.333-.25.599-.651.797-1.204zm-4.235-2.078h4.25c-.062-.635-.224-1.114-.484-1.437a2 2 0 00-1.609-.75c-.584 0-1.079.198-1.485.594-.406.395-.63.927-.672 1.593zm7.183-4.484v-1.469h1.296v1.469h-1.296zm0 9.016v-7.594h1.296v7.594h-1.296zm6.068-1.157l.188 1.141a5.067 5.067 0 01-.985.109c-.458 0-.817-.073-1.078-.218a1.225 1.225 0 01-.547-.579c-.104-.239-.156-.744-.156-1.515v-4.375h-.953v-1h.953v-1.891l1.281-.765v2.656h1.297v1h-1.297v4.437c0 .365.021.605.063.719a.632.632 0 00.219.25c.104.052.255.078.453.078.135 0 .323-.015.562-.047zm1.26 1.157v-10.485h1.281v3.75c.604-.687 1.365-1.031 2.281-1.031.563 0 1.052.109 1.469.328.417.219.714.526.891.922.177.385.265.953.265 1.703v4.813h-1.281v-4.813c0-.646-.141-1.114-.422-1.406-.281-.292-.677-.438-1.187-.438-.386 0-.745.099-1.079.297a1.7 1.7 0 00-.718.813c-.146.333-.219.797-.219 1.39v4.157h-1.281zm13.354-2.454l1.328.172c-.208.782-.599 1.386-1.172 1.813-.562.427-1.286.64-2.172.64-1.114 0-2-.338-2.656-1.015-.646-.688-.969-1.651-.969-2.891 0-1.281.328-2.271.985-2.969.666-.708 1.526-1.062 2.578-1.062 1.01 0 1.838.344 2.484 1.031.646.688.969 1.662.969 2.922 0 .073-.005.188-.016.344h-5.656c.042.833.276 1.474.703 1.922.427.437.959.656 1.594.656.469 0 .87-.12 1.203-.359.333-.25.599-.651.797-1.204zm-4.234-2.078h4.25c-.063-.635-.224-1.114-.485-1.437-.416-.5-.953-.75-1.609-.75a2.05 2.05 0 00-1.485.594c-.406.395-.63.927-.671 1.593zm7.166 4.532v-7.594h1.157v1.14c.302-.531.578-.88.828-1.046.25-.177.521-.266.812-.266.438 0 .88.135 1.328.406l-.437 1.203a1.838 1.838 0 00-.953-.281c-.282 0-.537.083-.766.25a1.362 1.362 0 00-.469.703 4.926 4.926 0 00-.218 1.5v3.985h-1.282zm8.953 0v-7.594h1.156v1.14c.302-.531.578-.88.828-1.046a1.38 1.38 0 01.813-.266c.437 0 .88.135 1.328.406l-.438 1.203a1.836 1.836 0 00-.953-.281c-.281 0-.536.083-.765.25a1.362 1.362 0 00-.469.703 4.925 4.925 0 00-.219 1.5v3.985h-1.281zm9.849-.938c-.479.406-.937.693-1.375.859a3.95 3.95 0 01-1.422.25c-.833 0-1.473-.203-1.921-.609-.448-.406-.672-.927-.672-1.562 0-.375.083-.714.25-1.016.166-.313.385-.563.656-.75.281-.188.594-.328.937-.422.25-.062.631-.125 1.141-.187 1.042-.125 1.807-.276 2.297-.454.01-.177.016-.286.016-.328 0-.531-.125-.901-.375-1.109-.323-.292-.808-.438-1.454-.438-.614 0-1.067.11-1.359.329-.281.208-.489.578-.625 1.109l-1.266-.172c.115-.531.303-.963.563-1.297.26-.333.641-.588 1.141-.765.5-.177 1.073-.266 1.718-.266.657 0 1.188.078 1.594.234.406.146.703.334.891.563.187.229.323.521.406.875.042.219.062.614.062 1.187v1.719c0 1.198.027 1.958.079 2.281.052.313.161.615.328.907h-1.344a2.842 2.842 0 01-.266-.938zm-.109-2.875c-.469.188-1.167.349-2.094.484-.531.073-.906.162-1.125.266-.219.094-.39.234-.515.422a1.066 1.066 0 00-.172.594c0 .343.13.63.39.859.261.229.641.344 1.141.344.49 0 .927-.104 1.312-.313.396-.218.683-.515.86-.89.135-.292.203-.724.203-1.297v-.469zm3.307 3.813v-7.594h1.157v1.078c.562-.833 1.369-1.25 2.421-1.25.459 0 .881.083 1.266.25.386.156.672.37.859.641.188.27.323.588.407.953.041.239.062.656.062 1.25v4.672h-1.281v-4.625c0-.521-.052-.912-.156-1.172a1.267 1.267 0 00-.547-.625 1.64 1.64 0 00-.891-.235c-.541 0-1.015.177-1.422.532-.395.343-.593 1-.593 1.968v4.157h-1.282zm8.151 0v-10.485h1.297v5.969l3.047-3.078h1.672l-2.906 2.812 3.187 4.782h-1.578l-2.515-3.891-.907.875v3.016h-1.297zm14.213-1.157l.188 1.141a5.067 5.067 0 01-.985.109c-.458 0-.818-.073-1.078-.218a1.22 1.22 0 01-.547-.579c-.104-.239-.156-.744-.156-1.515v-4.375h-.953v-1h.953v-1.891l1.281-.765v2.656h1.297v1h-1.297v4.437c0 .365.021.605.063.719a.638.638 0 00.218.25c.105.052.256.078.454.078.135 0 .322-.015.562-.047zm1.26 1.157v-10.485h1.281v3.75c.604-.687 1.364-1.031 2.281-1.031.563 0 1.052.109 1.469.328.416.219.713.526.89.922.177.385.266.953.266 1.703v4.813h-1.281v-4.813c0-.646-.141-1.114-.422-1.406-.281-.292-.677-.438-1.188-.438-.385 0-.744.099-1.078.297a1.695 1.695 0 00-.718.813c-.146.333-.219.797-.219 1.39v4.157h-1.281zm13.354-2.454l1.328.172c-.208.782-.599 1.386-1.172 1.813-.562.427-1.286.64-2.172.64-1.114 0-2-.338-2.656-1.015-.646-.688-.969-1.651-.969-2.891 0-1.281.328-2.271.985-2.969.666-.708 1.526-1.062 2.578-1.062 1.01 0 1.838.344 2.484 1.031.646.688.969 1.662.969 2.922 0 .073-.005.188-.016.344h-5.656c.042.833.276 1.474.703 1.922.427.437.958.656 1.594.656.469 0 .87-.12 1.203-.359.333-.25.599-.651.797-1.204zm-4.235-2.078h4.25c-.062-.635-.224-1.114-.484-1.437a2 2 0 00-1.609-.75c-.584 0-1.078.198-1.485.594-.406.395-.63.927-.672 1.593zm11.255-4.484v-1.469h1.297v1.469h-1.297zm0 9.016v-7.594h1.297v7.594h-1.297zm6.068-1.157l.188 1.141a5.067 5.067 0 01-.985.109c-.458 0-.817-.073-1.078-.218a1.225 1.225 0 01-.547-.579c-.104-.239-.156-.744-.156-1.515v-4.375h-.953v-1h.953v-1.891l1.281-.765v2.656h1.297v1h-1.297v4.437c0 .365.021.605.063.719a.632.632 0 00.219.25c.104.052.255.078.453.078.135 0 .323-.015.562-.047zm6.463-1.297l1.328.172c-.208.782-.599 1.386-1.172 1.813-.562.427-1.286.64-2.172.64-1.114 0-2-.338-2.656-1.015-.646-.688-.969-1.651-.969-2.891 0-1.281.328-2.271.985-2.969.666-.708 1.526-1.062 2.578-1.062 1.01 0 1.838.344 2.484 1.031.646.688.969 1.662.969 2.922 0 .073-.005.188-.016.344h-5.656c.042.833.276 1.474.703 1.922.427.437.959.656 1.594.656.469 0 .87-.12 1.203-.359.333-.25.599-.651.797-1.204zm-4.234-2.078h4.25c-.063-.635-.224-1.114-.485-1.437-.416-.5-.953-.75-1.609-.75a2.05 2.05 0 00-1.485.594c-.406.395-.63.927-.671 1.593zm7.182 4.532v-7.594h1.156v1.062c.229-.375.542-.672.938-.89a2.718 2.718 0 011.359-.344c.563 0 1.021.115 1.375.344.365.229.62.557.766.984.604-.885 1.39-1.328 2.359-1.328.75 0 1.328.208 1.734.625.407.417.61 1.057.61 1.922v5.219h-1.281v-4.782c0-.52-.042-.89-.125-1.109a1.062 1.062 0 00-.454-.547 1.372 1.372 0 00-.781-.219c-.531 0-.974.177-1.328.532-.354.354-.531.921-.531 1.703v4.422h-1.281v-4.938c0-.573-.105-1-.313-1.281-.208-.292-.552-.438-1.031-.438-.365 0-.703.099-1.016.297a1.676 1.676 0 00-.672.828c-.135.365-.203.896-.203 1.594v3.938h-1.281zm11.693-2.266l1.266-.203c.073.51.271.901.593 1.172.334.271.792.406 1.375.406.594 0 1.032-.12 1.313-.359.292-.24.437-.521.437-.844a.785.785 0 00-.375-.688c-.177-.114-.614-.26-1.312-.437-.948-.24-1.604-.443-1.969-.61a1.907 1.907 0 01-1.109-1.75c0-.343.073-.656.219-.937.156-.292.369-.536.64-.734.198-.146.469-.266.813-.36a3.972 3.972 0 011.125-.156c.593 0 1.114.089 1.562.266.448.166.781.395 1 .687.219.292.365.682.438 1.172l-1.25.172c-.063-.386-.229-.688-.5-.906-.271-.23-.657-.344-1.157-.344-.593 0-1.02.099-1.281.297-.25.198-.375.427-.375.687 0 .167.052.318.156.453.105.136.271.25.5.344.125.052.506.162 1.141.328.906.24 1.537.438 1.891.594.364.156.651.385.859.687.208.292.313.657.313 1.094 0 .427-.125.834-.375 1.219-.25.375-.615.667-1.094.875-.469.208-1 .312-1.594.312-.989 0-1.745-.203-2.266-.609-.51-.417-.838-1.026-.984-1.828zm11.431-1.531c0-1.407.391-2.448 1.172-3.125.657-.563 1.453-.844 2.391-.844 1.052 0 1.906.344 2.562 1.031.667.677 1 1.62 1 2.828 0 .98-.145 1.75-.437 2.313a3.144 3.144 0 01-1.281 1.297 3.74 3.74 0 01-1.844.468c-1.063 0-1.922-.338-2.578-1.015-.656-.688-.985-1.672-.985-2.953zm1.329 0c0 .968.208 1.698.625 2.187.427.479.963.719 1.609.719s1.177-.24 1.594-.719c.427-.489.64-1.234.64-2.234 0-.938-.213-1.646-.64-2.125-.427-.49-.959-.735-1.594-.735-.646 0-1.182.24-1.609.719-.417.479-.625 1.209-.625 2.188zm7.291 3.797v-7.594h1.157v1.14c.302-.531.578-.88.828-1.046.25-.177.521-.266.812-.266.438 0 .88.135 1.328.406l-.437 1.203a1.838 1.838 0 00-.953-.281c-.282 0-.537.083-.766.25a1.362 1.362 0 00-.469.703 4.926 4.926 0 00-.218 1.5v3.985h-1.282zm8.937 0v-10.485h1.282v10.485h-1.282zm2.803-3.797c0-1.407.391-2.448 1.172-3.125.656-.563 1.453-.844 2.391-.844 1.052 0 1.906.344 2.562 1.031.667.677 1 1.62 1 2.828 0 .98-.146 1.75-.437 2.313a3.144 3.144 0 01-1.281 1.297 3.742 3.742 0 01-1.844.468c-1.063 0-1.922-.338-2.578-1.015-.657-.688-.985-1.672-.985-2.953zm1.328 0c0 .968.209 1.698.625 2.187.428.479.964.719 1.61.719.646 0 1.177-.24 1.594-.719.427-.489.64-1.234.64-2.234 0-.938-.213-1.646-.64-2.125-.428-.49-.959-.735-1.594-.735-.646 0-1.182.24-1.61.719-.416.479-.625 1.209-.625 2.188zm7.073 4.422l1.25.187c.052.386.198.667.438.844.312.239.75.359 1.312.359.594 0 1.052-.12 1.375-.359.323-.24.542-.573.657-1 .073-.261.104-.813.093-1.656-.562.666-1.265 1-2.109 1-1.042 0-1.849-.375-2.422-1.125-.573-.761-.859-1.667-.859-2.719 0-.729.13-1.396.39-2 .271-.615.651-1.089 1.141-1.422.5-.333 1.089-.5 1.766-.5.895 0 1.635.359 2.218 1.078v-.906h1.188v6.562c0 1.188-.12 2.026-.359 2.516-.24.49-.625.875-1.157 1.156-.521.292-1.161.438-1.922.438-.906 0-1.64-.203-2.203-.61-.552-.406-.817-1.02-.797-1.843zm1.063-4.563c0 1 .198 1.729.594 2.188.395.458.89.687 1.484.687a1.88 1.88 0 001.484-.687c.407-.459.61-1.172.61-2.141 0-.927-.209-1.625-.625-2.094-.406-.479-.901-.719-1.485-.719-.573 0-1.062.235-1.468.704-.396.458-.594 1.145-.594 2.062zM340.851 245.036l.188 1.141a5.067 5.067 0 01-.985.109c-.458 0-.818-.073-1.078-.218a1.22 1.22 0 01-.547-.579c-.104-.239-.156-.744-.156-1.515v-4.375h-.953v-1h.953v-1.891l1.281-.765v2.656h1.297v1h-1.297v4.437c0 .365.021.605.063.719a.638.638 0 00.218.25c.105.052.256.078.454.078.135 0 .322-.015.562-.047zm1.259 1.157v-10.485h1.282v3.75c.604-.687 1.364-1.031 2.281-1.031.562 0 1.052.109 1.469.328.416.219.713.526.89.922.177.385.266.953.266 1.703v4.813h-1.281v-4.813c0-.646-.141-1.114-.422-1.406-.281-.292-.677-.438-1.188-.438-.385 0-.744.099-1.078.297a1.702 1.702 0 00-.719.813c-.145.333-.218.797-.218 1.39v4.157h-1.282zm13.355-2.454l1.328.172c-.208.782-.599 1.386-1.172 1.813-.563.427-1.286.64-2.172.64-1.114 0-2-.338-2.656-1.015-.646-.688-.969-1.651-.969-2.891 0-1.281.328-2.271.984-2.969.667-.708 1.527-1.062 2.579-1.062 1.01 0 1.838.344 2.484 1.031.646.688.969 1.662.969 2.922 0 .073-.005.188-.016.344h-5.656c.042.833.276 1.474.703 1.922.427.437.958.656 1.594.656.468 0 .87-.12 1.203-.359.333-.25.599-.651.797-1.204zm-4.235-2.078h4.25c-.062-.635-.224-1.114-.484-1.437a2 2 0 00-1.609-.75c-.584 0-1.079.198-1.485.594-.406.395-.63.927-.672 1.593zm11.239 4.532v-7.594h1.156v1.14c.302-.531.578-.88.828-1.046a1.38 1.38 0 01.813-.266c.437 0 .88.135 1.328.406l-.437 1.203a1.842 1.842 0 00-.954-.281c-.281 0-.536.083-.765.25a1.362 1.362 0 00-.469.703 4.925 4.925 0 00-.219 1.5v3.985h-1.281zm9.849-.938c-.479.406-.937.693-1.375.859-.437.167-.911.25-1.421.25-.834 0-1.474-.203-1.922-.609-.448-.406-.672-.927-.672-1.562 0-.375.083-.714.25-1.016.166-.313.385-.563.656-.75.281-.188.594-.328.938-.422.25-.062.63-.125 1.14-.187 1.042-.125 1.807-.276 2.297-.454.01-.177.016-.286.016-.328 0-.531-.125-.901-.375-1.109-.323-.292-.808-.438-1.453-.438-.615 0-1.068.11-1.36.329-.281.208-.489.578-.625 1.109l-1.265-.172c.114-.531.302-.963.562-1.297.26-.333.641-.588 1.141-.765.5-.177 1.073-.266 1.718-.266.657 0 1.188.078 1.594.234.406.146.703.334.891.563.187.229.323.521.406.875.042.219.063.614.063 1.187v1.719c0 1.198.026 1.958.078 2.281.052.313.161.615.328.907h-1.344a2.842 2.842 0 01-.266-.938zm-.109-2.875c-.469.188-1.167.349-2.094.484-.531.073-.906.162-1.125.266-.218.094-.39.234-.515.422a1.066 1.066 0 00-.172.594c0 .343.13.63.39.859.261.229.641.344 1.141.344.49 0 .927-.104 1.313-.313.395-.218.682-.515.859-.89.135-.292.203-.724.203-1.297v-.469zm3.307 3.813v-7.594h1.157v1.078c.562-.833 1.369-1.25 2.422-1.25.458 0 .88.083 1.265.25.386.156.672.37.86.641.187.27.322.588.406.953.041.239.062.656.062 1.25v4.672h-1.281v-4.625c0-.521-.052-.912-.156-1.172a1.267 1.267 0 00-.547-.625 1.64 1.64 0 00-.891-.235c-.541 0-1.015.177-1.422.532-.395.343-.593 1-.593 1.968v4.157h-1.282zm8.152 0v-10.485h1.296v5.969l3.047-3.078h1.672l-2.906 2.812 3.187 4.782h-1.578l-2.515-3.891-.907.875v3.016h-1.296zm7.328-9.016v-1.469h1.297v1.469h-1.297zm0 9.016v-7.594h1.297v7.594h-1.297zm3.256 0v-7.594h1.156v1.078c.563-.833 1.37-1.25 2.422-1.25.458 0 .88.083 1.266.25.385.156.671.37.859.641.187.27.323.588.406.953.042.239.063.656.063 1.25v4.672h-1.282v-4.625c0-.521-.052-.912-.156-1.172a1.262 1.262 0 00-.547-.625 1.64 1.64 0 00-.89-.235c-.542 0-1.016.177-1.422.532-.396.343-.594 1-.594 1.968v4.157h-1.281zm7.917.625l1.25.187c.052.386.197.667.437.844.313.239.75.359 1.313.359.593 0 1.052-.12 1.375-.359.322-.24.541-.573.656-1 .073-.261.104-.813.094-1.656-.563.666-1.266 1-2.11 1-1.041 0-1.849-.375-2.422-1.125-.573-.761-.859-1.667-.859-2.719 0-.729.13-1.396.391-2 .27-.615.651-1.089 1.14-1.422.5-.333 1.089-.5 1.766-.5.896 0 1.635.359 2.219 1.078v-.906h1.187v6.562c0 1.188-.12 2.026-.359 2.516-.24.49-.625.875-1.157 1.156-.52.292-1.161.438-1.921.438-.907 0-1.641-.203-2.204-.61-.552-.406-.817-1.02-.796-1.843zm1.062-4.563c0 1 .198 1.729.594 2.188.396.458.89.687 1.484.687s1.089-.229 1.485-.687c.406-.459.609-1.172.609-2.141 0-.927-.208-1.625-.625-2.094-.406-.479-.901-.719-1.484-.719-.573 0-1.063.235-1.469.704-.396.458-.594 1.145-.594 2.062zm6.807 1.672l1.266-.203c.073.51.271.901.594 1.172.333.271.791.406 1.375.406.594 0 1.031-.12 1.312-.359.292-.24.438-.521.438-.844a.785.785 0 00-.375-.688c-.177-.114-.615-.26-1.313-.437-.948-.24-1.604-.443-1.968-.61a1.904 1.904 0 01-1.11-1.75c0-.343.073-.656.219-.937a2.16 2.16 0 01.641-.734c.197-.146.468-.266.812-.36a3.972 3.972 0 011.125-.156c.594 0 1.115.089 1.563.266.447.166.781.395 1 .687.218.292.364.682.437 1.172l-1.25.172c-.062-.386-.229-.688-.5-.906-.271-.23-.656-.344-1.156-.344-.594 0-1.021.099-1.281.297-.25.198-.375.427-.375.687 0 .167.052.318.156.453.104.136.271.25.5.344.125.052.505.162 1.14.328.907.24 1.537.438 1.891.594.365.156.651.385.859.687.209.292.313.657.313 1.094 0 .427-.125.834-.375 1.219-.25.375-.615.667-1.094.875-.469.208-1 .312-1.594.312-.989 0-1.744-.203-2.265-.609-.511-.417-.839-1.026-.985-1.828z"/><path fill="none" d="M86.835 146.393H229.89v37.165H86.835v-37.165z"/><path fill="#000" d="M95.097 169.473v-2.516H90.55v-1.172l4.782-6.796h1.062v6.796H97.8v1.172h-1.406v2.516h-1.297zm0-3.688v-4.734l-3.281 4.734h3.281zm4.745 3.688v-1.469h1.469v1.469h-1.469zm7.972 0v-10.484h4.641c.937 0 1.651.093 2.14.281.49.187.881.521 1.172 1 .292.469.438.995.438 1.578 0 .739-.245 1.364-.735 1.875-.479.51-1.224.838-2.234.984.375.167.656.339.844.516.406.375.791.838 1.156 1.391l1.813 2.859h-1.735l-1.39-2.188a21.73 21.73 0 00-1-1.437c-.261-.333-.495-.568-.704-.703a2.016 2.016 0 00-.64-.281c-.156-.032-.412-.047-.766-.047h-1.609v4.656h-1.391zm1.391-5.859h2.984c.625 0 1.115-.063 1.469-.188.364-.135.641-.349.828-.641.188-.291.281-.604.281-.937 0-.5-.182-.906-.547-1.219-.354-.323-.921-.484-1.703-.484h-3.312v3.469zm13.959 4.921c-.479.407-.937.693-1.375.86-.437.166-.911.25-1.422.25-.833 0-1.474-.203-1.922-.61-.448-.406-.672-.927-.672-1.562 0-.375.084-.714.25-1.016.167-.312.386-.562.657-.75.281-.187.593-.328.937-.422.25-.062.63-.125 1.141-.187 1.041-.125 1.807-.276 2.297-.453.01-.177.015-.287.015-.328 0-.532-.125-.901-.375-1.11-.323-.291-.807-.437-1.453-.437-.614 0-1.068.109-1.359.328-.281.208-.49.578-.625 1.109l-1.266-.172c.115-.531.302-.963.563-1.296.26-.334.64-.589 1.14-.766.5-.177 1.073-.266 1.719-.266.656 0 1.188.078 1.594.235.406.145.703.333.89.562.188.229.323.521.407.875.041.219.062.615.062 1.188v1.718c0 1.198.026 1.959.078 2.282.052.312.162.614.328.906h-1.343a2.812 2.812 0 01-.266-.938zm-.109-2.875c-.469.188-1.167.349-2.094.485-.531.073-.906.161-1.125.265a1.075 1.075 0 00-.688 1.016c0 .344.131.63.391.859.26.23.641.344 1.141.344.489 0 .927-.104 1.312-.312.396-.219.682-.516.86-.891.135-.292.203-.724.203-1.297v-.469zm3.307 3.813v-7.594h1.156v1.078c.563-.833 1.37-1.25 2.422-1.25.459 0 .88.084 1.266.25.385.157.672.37.859.641.188.271.323.588.406.953.042.24.063.656.063 1.25v4.672h-1.281v-4.625c0-.521-.052-.912-.157-1.172a1.27 1.27 0 00-.546-.625 1.649 1.649 0 00-.891-.234c-.542 0-1.016.177-1.422.531-.396.344-.594 1-.594 1.969v4.156h-1.281zm8.151 0v-10.484h1.297v5.968l3.047-3.078h1.672l-2.906 2.813 3.187 4.781h-1.578l-2.516-3.891-.906.875v3.016h-1.297zm12.531-2.453l1.329.172c-.209.781-.599 1.385-1.172 1.812-.563.427-1.287.641-2.172.641-1.115 0-2-.339-2.656-1.016-.646-.687-.969-1.651-.969-2.89 0-1.282.328-2.271.984-2.969.667-.709 1.526-1.063 2.578-1.063 1.011 0 1.839.344 2.485 1.032.645.687.968 1.661.968 2.921 0 .073-.005.188-.015.344h-5.656c.041.833.276 1.474.703 1.922.427.438.958.656 1.593.656.469 0 .87-.12 1.204-.359.333-.25.598-.651.796-1.203zm-4.234-2.078h4.25c-.062-.636-.224-1.115-.484-1.438a2 2 0 00-1.61-.75c-.583 0-1.078.198-1.484.594-.406.396-.63.927-.672 1.594zm12.104 4.531v-.953c-.479.75-1.187 1.125-2.125 1.125a3.002 3.002 0 01-1.672-.5c-.5-.334-.89-.797-1.171-1.391-.282-.604-.422-1.297-.422-2.078 0-.76.125-1.448.375-2.062.26-.615.64-1.084 1.14-1.407a3.052 3.052 0 011.703-.5c.459 0 .865.099 1.219.297.354.188.646.432.875.735v-3.75h1.281v10.484h-1.203zm-4.062-3.797c0 .979.203 1.708.609 2.188.417.479.901.718 1.453.718.563 0 1.042-.229 1.438-.687.396-.459.594-1.162.594-2.11 0-1.041-.204-1.802-.61-2.281-.396-.489-.89-.734-1.484-.734-.563 0-1.037.234-1.422.703-.386.469-.578 1.203-.578 2.203zm16.317 1.016l1.265.156c-.135.875-.489 1.562-1.062 2.062-.563.49-1.261.735-2.094.735-1.042 0-1.88-.339-2.516-1.016-.625-.687-.937-1.661-.937-2.922 0-.823.135-1.541.406-2.156.271-.615.682-1.073 1.234-1.375a3.681 3.681 0 011.813-.469c.833 0 1.51.209 2.031.625.521.417.86 1.005 1.016 1.766l-1.266.203c-.114-.51-.323-.896-.625-1.156a1.615 1.615 0 00-1.094-.391c-.656 0-1.187.235-1.593.703-.407.469-.61 1.203-.61 2.203 0 1.021.193 1.766.578 2.235.396.458.912.687 1.547.687.5 0 .922-.151 1.266-.453.344-.312.557-.792.641-1.437zm1.89-1.016c0-1.406.391-2.448 1.172-3.125.656-.562 1.453-.844 2.391-.844 1.052 0 1.906.344 2.562 1.032.667.677 1 1.619 1 2.828 0 .979-.146 1.75-.437 2.312a3.135 3.135 0 01-1.282 1.297 3.726 3.726 0 01-1.843.469c-1.063 0-1.922-.339-2.578-1.016-.657-.687-.985-1.672-.985-2.953zm1.328 0c0 .969.209 1.698.625 2.188.427.479.964.718 1.61.718.646 0 1.177-.239 1.593-.718.428-.49.641-1.235.641-2.235 0-.937-.213-1.646-.641-2.125-.427-.489-.958-.734-1.593-.734-.646 0-1.183.239-1.61.719-.416.479-.625 1.208-.625 2.187zm7.308 3.797v-7.594h1.156v1.078c.562-.833 1.37-1.25 2.422-1.25.458 0 .88.084 1.265.25.386.157.672.37.86.641.187.271.323.588.406.953.042.24.063.656.063 1.25v4.672h-1.282v-4.625c0-.521-.052-.912-.156-1.172a1.266 1.266 0 00-.547-.625 1.648 1.648 0 00-.89-.234c-.542 0-1.016.177-1.422.531-.396.344-.594 1-.594 1.969v4.156h-1.281zm10.963-1.156l.188 1.14c-.365.073-.693.11-.985.11-.458 0-.817-.073-1.078-.219a1.228 1.228 0 01-.547-.578c-.104-.24-.156-.745-.156-1.516v-4.375h-.953v-1h.953v-1.89l1.281-.766v2.656h1.297v1h-1.297v4.438c0 .364.021.604.063.718a.626.626 0 00.219.25c.104.052.255.079.453.079.135 0 .323-.016.562-.047zm6.463-1.297l1.328.172c-.208.781-.599 1.385-1.172 1.812-.562.427-1.286.641-2.172.641-1.114 0-2-.339-2.656-1.016-.646-.687-.969-1.651-.969-2.89 0-1.282.328-2.271.985-2.969.666-.709 1.526-1.063 2.578-1.063 1.01 0 1.838.344 2.484 1.032.646.687.969 1.661.969 2.921 0 .073-.005.188-.016.344h-5.656c.042.833.276 1.474.703 1.922.427.438.958.656 1.594.656.469 0 .87-.12 1.203-.359.333-.25.599-.651.797-1.203zm-4.234-2.078h4.25c-.063-.636-.224-1.115-.485-1.438a2 2 0 00-1.609-.75c-.584 0-1.078.198-1.485.594-.406.396-.63.927-.671 1.594zm7.182 4.531v-7.594h1.156v1.078c.563-.833 1.37-1.25 2.422-1.25.458 0 .88.084 1.266.25.385.157.672.37.859.641.188.271.323.588.406.953.042.24.063.656.063 1.25v4.672h-1.281v-4.625c0-.521-.053-.912-.157-1.172a1.266 1.266 0 00-.547-.625 1.645 1.645 0 00-.89-.234c-.542 0-1.016.177-1.422.531-.396.344-.594 1-.594 1.969v4.156h-1.281zm10.963-1.156l.188 1.14c-.365.073-.693.11-.984.11-.459 0-.818-.073-1.079-.219a1.22 1.22 0 01-.546-.578c-.105-.24-.157-.745-.157-1.516v-4.375h-.953v-1h.953v-1.89l1.282-.766v2.656h1.296v1h-1.296v4.438c0 .364.02.604.062.718a.626.626 0 00.219.25c.104.052.255.079.453.079.135 0 .323-.016.562-.047z"/><path fill="none" d="M320.4 174.062v89.355h218.867"/><path stroke="#000" stroke-linejoin="round" stroke-linecap="butt" d="M320.4 174.062v89.355h212.867"/><path fill="#000" stroke="#000" stroke-linecap="butt" d="M533.267 265.068l4.538-1.651-4.538-1.652v3.303z" fill-rule="evenodd"/><path fill="none" d="M540.259 273.448H309.355v-99.37h-1.002"/><path stroke="#000" stroke-linejoin="round" stroke-linecap="butt" d="M540.259 273.448H309.355v-93.454"/><path fill="#000" stroke="#000" stroke-linecap="butt" d="M310.984 179.718l-2.387-4.199-.87 4.751 3.257-.552z" fill-rule="evenodd"/><path fill="none" d="M214.232 46.787H408.5v42.015H214.232V46.787z"/><path fill="#666" d="M250.545 73.707V68.05l-5.157-7.703h2.157l2.64 4.031c.479.75.927 1.506 1.344 2.266a53.2 53.2 0 011.469-2.359l2.578-3.938h2.062l-5.328 7.703v5.657h-1.765zm6.151-4.844c0-1.792.495-3.115 1.485-3.969.833-.719 1.849-1.078 3.047-1.078 1.333 0 2.422.437 3.265 1.312.844.865 1.266 2.068 1.266 3.61 0 1.239-.188 2.219-.563 2.937a3.986 3.986 0 01-1.64 1.657 4.704 4.704 0 01-2.328.593c-1.354 0-2.448-.432-3.282-1.297-.833-.875-1.25-2.13-1.25-3.765zm1.688 0c0 1.239.266 2.172.797 2.797.541.614 1.224.922 2.047.922.812 0 1.489-.308 2.031-.922.542-.625.812-1.573.812-2.844 0-1.198-.27-2.104-.812-2.719-.542-.614-1.219-.922-2.031-.922-.823 0-1.506.308-2.047.922-.531.604-.797 1.526-.797 2.766zm15.626 4.844v-1.422c-.75 1.093-1.771 1.64-3.063 1.64a3.964 3.964 0 01-1.609-.328c-.49-.219-.854-.495-1.094-.828-.24-.333-.406-.739-.5-1.219-.073-.312-.109-.823-.109-1.531v-5.984h1.64v5.359c0 .854.037 1.432.11 1.734.104.428.323.766.656 1.016s.745.375 1.234.375c.49 0 .948-.125 1.375-.375.438-.26.745-.604.922-1.031.177-.438.266-1.068.266-1.891v-5.187h1.64v9.672h-1.468zm4.032 0v-9.672h1.468v1.468c.375-.687.719-1.14 1.032-1.359a1.852 1.852 0 011.062-.328c.552 0 1.115.177 1.688.531l-.563 1.516c-.406-.24-.807-.36-1.203-.36-.365 0-.688.11-.969.329a1.822 1.822 0 00-.609.89 6.242 6.242 0 00-.281 1.922v5.063h-1.625zm9.116 0l5.125-13.36h1.906l5.469 13.36h-2.016l-1.547-4.047h-5.594l-1.468 4.047h-1.875zm3.859-5.485h4.531l-1.406-3.703a41.45 41.45 0 01-.937-2.766 19.066 19.066 0 01-.719 2.547l-1.469 3.922zm10.053 5.485v-13.36h5.047c.885 0 1.562.042 2.031.125.646.115 1.193.328 1.641.641.448.302.807.729 1.078 1.281.271.552.406 1.162.406 1.828 0 1.136-.364 2.099-1.094 2.891-.718.781-2.026 1.172-3.922 1.172h-3.421v5.422h-1.766zm1.766-7h3.453c1.146 0 1.958-.214 2.437-.641.479-.427.719-1.026.719-1.797 0-.562-.141-1.042-.422-1.437a1.959 1.959 0 00-1.125-.782c-.292-.083-.838-.125-1.641-.125h-3.421v4.782zm10.974 7v-13.36h1.766v13.36h-1.766zm9.476-4.297l1.657-.141c.083.667.265 1.214.547 1.641.291.427.739.776 1.343 1.047.615.26 1.302.39 2.063.39.666 0 1.26-.099 1.781-.297.521-.198.906-.468 1.156-.812.25-.354.375-.74.375-1.156 0-.417-.125-.782-.375-1.094-.239-.313-.635-.578-1.187-.797-.365-.135-1.162-.349-2.391-.641-1.219-.302-2.073-.583-2.562-.843-.646-.334-1.125-.745-1.438-1.235a3.094 3.094 0 01-.469-1.672c0-.666.193-1.291.579-1.875.385-.593.942-1.041 1.671-1.343.74-.302 1.558-.454 2.454-.454.989 0 1.859.162 2.609.485.76.312 1.344.781 1.75 1.406.406.615.625 1.313.656 2.094l-1.687.125c-.094-.844-.407-1.479-.938-1.906-.521-.438-1.292-.657-2.312-.657-1.073 0-1.855.198-2.344.594-.49.396-.734.87-.734 1.422 0 .479.177.87.531 1.172.333.312 1.219.635 2.656.969 1.438.323 2.422.604 2.953.843.781.355 1.354.808 1.719 1.36.375.552.562 1.187.562 1.906 0 .708-.203 1.38-.609 2.016-.406.625-.99 1.114-1.75 1.468-.76.344-1.62.516-2.578.516-1.208 0-2.224-.177-3.047-.531a4.32 4.32 0 01-1.922-1.594c-.458-.708-.698-1.51-.719-2.406zm19.46 1.187l1.687.203c-.271.99-.766 1.761-1.484 2.313-.719.542-1.641.812-2.766.812-1.417 0-2.542-.432-3.375-1.297-.823-.875-1.234-2.098-1.234-3.671 0-1.636.416-2.901 1.25-3.797.843-.896 1.932-1.344 3.265-1.344 1.292 0 2.344.443 3.157 1.328.823.875 1.234 2.109 1.234 3.703v.438h-7.219c.063 1.062.365 1.88.906 2.453.542.562 1.214.844 2.016.844.604 0 1.12-.157 1.547-.469.427-.323.766-.828 1.016-1.516zm-5.391-2.656h5.406c-.073-.813-.281-1.422-.625-1.828-.521-.636-1.198-.953-2.031-.953-.75 0-1.385.255-1.906.765-.511.5-.792 1.172-.844 2.016zm9.126 5.766v-9.672h1.468v1.468c.375-.687.719-1.14 1.032-1.359a1.852 1.852 0 011.062-.328c.552 0 1.115.177 1.688.531l-.563 1.516c-.406-.24-.807-.36-1.203-.36-.365 0-.687.11-.969.329a1.822 1.822 0 00-.609.89 6.242 6.242 0 00-.281 1.922v5.063h-1.625zm8.915 0l-3.687-9.672h1.734l2.078 5.797c.219.625.428 1.27.625 1.937.136-.51.339-1.12.61-1.828l2.14-5.906h1.688l-3.656 9.672h-1.532zm13.266-3.11l1.688.203c-.271.99-.766 1.761-1.485 2.313-.719.542-1.64.812-2.765.812-1.417 0-2.542-.432-3.375-1.297-.823-.875-1.235-2.098-1.235-3.671 0-1.636.417-2.901 1.25-3.797.844-.896 1.933-1.344 3.266-1.344 1.292 0 2.344.443 3.156 1.328.823.875 1.234 2.109 1.234 3.703v.438h-7.218c.062 1.062.364 1.88.906 2.453.542.562 1.214.844 2.016.844.604 0 1.119-.157 1.546-.469.428-.323.766-.828 1.016-1.516zm-5.391-2.656h5.407c-.073-.813-.282-1.422-.625-1.828-.521-.636-1.198-.953-2.032-.953-.75 0-1.385.255-1.906.765-.51.5-.791 1.172-.844 2.016zm9.126 5.766v-9.672h1.469v1.468c.375-.687.719-1.14 1.031-1.359a1.853 1.853 0 011.063-.328c.552 0 1.114.177 1.687.531l-.562 1.516c-.407-.24-.808-.36-1.203-.36-.365 0-.688.11-.969.329a1.824 1.824 0 00-.61.89 6.272 6.272 0 00-.281 1.922v5.063h-1.625z"/><path fill="none" d="M521.172.33H700.92v64.63H521.172V.33z"/><path fill="#666" d="M558.004 27.25v-5.656l-5.157-7.703h2.157l2.64 4.031c.479.75.927 1.505 1.344 2.265a53.2 53.2 0 011.469-2.359l2.578-3.937h2.062l-5.328 7.703v5.656h-1.765zm6.152-4.844c0-1.792.494-3.114 1.484-3.969.833-.718 1.849-1.078 3.047-1.078 1.333 0 2.422.438 3.265 1.313.844.864 1.266 2.067 1.266 3.609 0 1.24-.187 2.219-.562 2.938a3.992 3.992 0 01-1.641 1.656 4.688 4.688 0 01-2.328.594c-1.354 0-2.448-.433-3.281-1.297-.834-.875-1.25-2.13-1.25-3.766zm1.687 0c0 1.24.266 2.172.797 2.797.542.615 1.224.922 2.047.922.812 0 1.489-.307 2.031-.922.542-.625.813-1.573.813-2.844 0-1.198-.271-2.104-.813-2.718-.542-.615-1.219-.922-2.031-.922-.823 0-1.505.307-2.047.922-.531.604-.797 1.526-.797 2.765zm15.626 4.844v-1.422c-.75 1.094-1.771 1.641-3.063 1.641-.573 0-1.109-.11-1.609-.328-.49-.219-.854-.495-1.094-.829-.239-.333-.406-.739-.5-1.218-.073-.313-.109-.823-.109-1.532v-5.984h1.64v5.359c0 .855.037 1.433.11 1.735.104.427.323.765.656 1.015.333.25.745.375 1.234.375.49 0 .948-.125 1.375-.375.438-.26.745-.604.922-1.031.177-.437.266-1.068.266-1.89v-5.188h1.64v9.672h-1.468zm4.032 0v-9.672h1.468v1.469c.375-.688.719-1.141 1.032-1.36a1.86 1.86 0 011.062-.328c.552 0 1.115.177 1.688.532l-.563 1.515c-.406-.239-.807-.359-1.203-.359-.365 0-.687.109-.969.328a1.83 1.83 0 00-.609.891 6.23 6.23 0 00-.281 1.921v5.063h-1.625zm11.646 0V13.891h5.922c1.187 0 2.088.119 2.703.359.625.239 1.119.667 1.484 1.281.375.604.563 1.276.563 2.016 0 .937-.308 1.734-.922 2.39-.615.646-1.563 1.058-2.844 1.235.469.229.828.453 1.078.672.51.468.995 1.057 1.453 1.765l2.328 3.641h-2.218l-1.766-2.781c-.521-.802-.948-1.412-1.281-1.828-.334-.428-.636-.724-.907-.891a2.351 2.351 0 00-.796-.359c-.198-.053-.526-.079-.985-.079h-2.047v5.938h-1.765zm1.765-7.453h3.797c.813 0 1.443-.084 1.891-.25.458-.177.807-.448 1.047-.813.239-.364.359-.76.359-1.187 0-.636-.229-1.156-.687-1.563-.459-.406-1.188-.609-2.188-.609h-4.219v4.422zm18.098 4.344l1.688.203c-.271.989-.766 1.76-1.485 2.312-.718.542-1.64.813-2.765.813-1.417 0-2.542-.433-3.375-1.297-.823-.875-1.235-2.099-1.235-3.672 0-1.636.417-2.901 1.25-3.797.844-.896 1.933-1.344 3.266-1.344 1.292 0 2.344.443 3.156 1.328.823.875 1.235 2.11 1.235 3.704v.437h-7.219c.062 1.063.364 1.88.906 2.453.542.563 1.214.844 2.016.844.604 0 1.12-.156 1.547-.469.427-.323.765-.828 1.015-1.515zm-5.39-2.657h5.406c-.073-.812-.281-1.422-.625-1.828-.521-.635-1.198-.953-2.031-.953-.75 0-1.386.255-1.907.766-.51.5-.791 1.172-.843 2.015zm12.719 4.297l.234 1.453a6.2 6.2 0 01-1.234.141c-.594 0-1.057-.094-1.391-.281a1.612 1.612 0 01-.687-.735c-.135-.312-.203-.958-.203-1.937v-5.578h-1.203v-1.266h1.203v-2.391l1.625-.984v3.375h1.656v1.266h-1.656v5.672c0 .458.026.755.078.89a.77.77 0 00.281.328c.136.073.328.11.578.11.177 0 .417-.021.719-.063zm1.59 1.469v-9.672h1.468v1.469c.375-.688.719-1.141 1.032-1.36a1.86 1.86 0 011.062-.328c.552 0 1.115.177 1.688.532l-.563 1.515c-.406-.239-.807-.359-1.203-.359-.365 0-.687.109-.969.328a1.83 1.83 0 00-.609.891 6.23 6.23 0 00-.281 1.921v5.063h-1.625zm6.228-11.469v-1.89h1.641v1.89h-1.641zm0 11.469v-9.672h1.641v9.672h-1.641zm10.77-3.109l1.687.203c-.271.989-.765 1.76-1.484 2.312-.719.542-1.641.813-2.766.813-1.416 0-2.541-.433-3.375-1.297-.823-.875-1.234-2.099-1.234-3.672 0-1.636.417-2.901 1.25-3.797.844-.896 1.932-1.344 3.266-1.344 1.291 0 2.343.443 3.156 1.328.823.875 1.234 2.11 1.234 3.704v.437h-7.219c.063 1.063.365 1.88.907 2.453.541.563 1.213.844 2.015.844.604 0 1.12-.156 1.547-.469.427-.323.766-.828 1.016-1.515zm-5.391-2.657h5.406c-.073-.812-.281-1.422-.625-1.828-.52-.635-1.198-.953-2.031-.953-.75 0-1.385.255-1.906.766-.511.5-.792 1.172-.844 2.015zm11.829 5.766l-3.687-9.672h1.734l2.078 5.797c.219.625.427 1.271.625 1.937.135-.51.339-1.119.609-1.828l2.141-5.906h1.688l-3.657 9.672h-1.531zm12.953-1.188c-.614.511-1.203.875-1.765 1.094a5.064 5.064 0 01-1.797.313c-1.063 0-1.881-.261-2.453-.782-.573-.52-.86-1.182-.86-1.984 0-.479.11-.911.328-1.297.219-.396.5-.708.844-.937a4.11 4.11 0 011.188-.547c.312-.084.796-.167 1.453-.25 1.323-.156 2.297-.344 2.922-.563.01-.229.015-.37.015-.422 0-.666-.156-1.14-.469-1.421-.416-.365-1.041-.547-1.875-.547-.77 0-1.338.135-1.703.406-.364.271-.635.745-.812 1.422l-1.61-.219c.146-.677.386-1.224.719-1.641.333-.427.818-.755 1.453-.984.636-.229 1.365-.344 2.188-.344.833 0 1.505.099 2.015.297.521.188.901.432 1.141.735.25.291.422.661.516 1.109.052.281.078.786.078 1.516v2.187c0 1.521.036 2.484.109 2.891.073.395.208.781.406 1.156h-1.703a3.233 3.233 0 01-.328-1.188zm-.14-3.671c-.594.25-1.485.458-2.672.625-.677.093-1.157.203-1.438.328-.281.125-.5.302-.656.531a1.42 1.42 0 00-.219.781c0 .438.167.802.5 1.094.333.292.818.437 1.453.437.625 0 1.183-.135 1.672-.406.5-.281.865-.661 1.094-1.14.177-.375.266-.922.266-1.641v-.609zm4.156 4.859V13.891h1.641V27.25h-1.641zM580.79 45.353l1.656-.141c.084.667.266 1.214.547 1.641.292.427.74.776 1.344 1.047.615.26 1.302.391 2.062.391.667 0 1.261-.099 1.782-.297.521-.198.906-.469 1.156-.813.25-.354.375-.739.375-1.156a1.7 1.7 0 00-.375-1.094c-.24-.312-.635-.578-1.188-.797-.364-.135-1.161-.349-2.39-.64-1.219-.302-2.073-.584-2.563-.844-.645-.333-1.125-.745-1.437-1.234a3.088 3.088 0 01-.469-1.672c0-.667.193-1.292.578-1.875.386-.594.943-1.042 1.672-1.344.74-.302 1.557-.453 2.453-.453.99 0 1.86.161 2.61.484.76.313 1.343.781 1.75 1.406.406.615.625 1.313.656 2.094l-1.688.125c-.093-.844-.406-1.479-.937-1.906-.521-.438-1.292-.656-2.313-.656-1.073 0-1.854.198-2.343.593-.49.396-.735.87-.735 1.422 0 .479.177.87.531 1.172.334.313 1.219.636 2.657.969 1.437.323 2.422.604 2.953.844.781.354 1.354.807 1.719 1.359.375.552.562 1.188.562 1.906 0 .709-.203 1.38-.609 2.016-.407.625-.99 1.114-1.75 1.469-.761.343-1.62.515-2.578.515-1.209 0-2.224-.177-3.047-.531a4.309 4.309 0 01-1.922-1.594c-.458-.708-.698-1.51-.719-2.406zm12.756 8.016l-.187-1.532c.364.094.677.141.937.141.365 0 .656-.062.875-.187.219-.115.401-.282.547-.5.104-.167.271-.573.5-1.219.031-.094.078-.229.141-.406l-3.672-9.688h1.765l2.016 5.594c.26.719.495 1.469.703 2.25.188-.75.412-1.485.672-2.203l2.078-5.641h1.641l-3.688 9.828c-.396 1.073-.703 1.807-.922 2.203-.291.542-.625.938-1 1.188s-.823.375-1.343.375c-.323 0-.677-.068-1.063-.203zm8.75-6.61l1.625-.25c.083.646.333 1.146.75 1.5.417.344 1 .516 1.75.516s1.307-.151 1.672-.453c.365-.313.547-.677.547-1.094 0-.365-.162-.656-.484-.875-.219-.146-.777-.328-1.672-.547-1.209-.312-2.047-.578-2.516-.797-.458-.218-.807-.521-1.047-.906a2.49 2.49 0 01-.359-1.312c0-.428.099-.823.297-1.188.198-.375.468-.682.812-.922.25-.187.594-.344 1.031-.469a4.903 4.903 0 011.422-.203c.761 0 1.427.11 2 .328.573.219.995.516 1.266.891.281.375.474.875.578 1.5l-1.609.219c-.073-.5-.287-.891-.641-1.172-.344-.281-.833-.422-1.469-.422-.76 0-1.302.125-1.625.375-.312.25-.468.542-.468.875 0 .208.062.401.187.578.135.177.349.323.641.438.156.062.635.203 1.437.422 1.167.302 1.979.552 2.438.75.458.197.817.484 1.078.859.26.375.39.844.39 1.406 0 .552-.161 1.068-.484 1.547-.312.479-.771.854-1.375 1.125-.604.26-1.286.391-2.047.391-1.25 0-2.208-.261-2.875-.782-.656-.52-1.073-1.296-1.25-2.328zm13.563 1.422l.234 1.453c-.458.094-.87.141-1.234.141-.594 0-1.058-.094-1.391-.281a1.607 1.607 0 01-.687-.735c-.136-.312-.204-.958-.204-1.937v-5.578h-1.203v-1.266h1.203v-2.391l1.625-.984v3.375h1.657v1.266h-1.657v5.672c0 .458.026.755.079.89a.77.77 0 00.281.328c.135.073.328.11.578.11.177 0 .417-.021.719-.063zm8.23-1.64l1.687.203c-.27.989-.765 1.76-1.484 2.312-.719.542-1.641.813-2.766.813-1.416 0-2.541-.433-3.375-1.297-.823-.875-1.234-2.099-1.234-3.672 0-1.636.417-2.901 1.25-3.797.844-.896 1.932-1.344 3.266-1.344 1.291 0 2.343.443 3.156 1.328.823.875 1.234 2.11 1.234 3.704v.437h-7.219c.063 1.063.365 1.88.907 2.453.541.563 1.213.844 2.015.844.605 0 1.12-.156 1.547-.469.427-.323.766-.828 1.016-1.515zm-5.391-2.657h5.406c-.072-.812-.281-1.422-.625-1.828-.52-.635-1.197-.953-2.031-.953-.75 0-1.385.255-1.906.766-.51.5-.792 1.172-.844 2.015zm9.142 5.766v-9.672h1.468v1.359a3.323 3.323 0 011.203-1.14 3.403 3.403 0 011.719-.438c.719 0 1.307.151 1.766.453.458.292.781.704.969 1.235.77-1.125 1.765-1.688 2.984-1.688.969 0 1.708.266 2.219.797.52.531.781 1.349.781 2.453v6.641h-1.641v-6.094c0-.656-.052-1.125-.156-1.406a1.355 1.355 0 00-.578-.703 1.807 1.807 0 00-.984-.266c-.678 0-1.24.229-1.688.688-.448.448-.672 1.166-.672 2.156v5.625h-1.64v-6.281c0-.73-.136-1.276-.407-1.641-.271-.365-.708-.547-1.312-.547-.459 0-.886.12-1.281.36-.396.239-.683.593-.86 1.062-.167.469-.25 1.146-.25 2.031v5.016h-1.64z"/><path fill="none" d="M521.172 178.595H700.92v64.63H521.172v-64.63z"/><path fill="#666" d="M572.042 205.515v-13.359h5.047c.885 0 1.562.041 2.031.125.646.114 1.193.328 1.641.64.448.302.807.729 1.078 1.282a4.09 4.09 0 01.406 1.828c0 1.135-.364 2.099-1.094 2.89-.718.782-2.026 1.172-3.921 1.172h-3.422v5.422h-1.766zm1.766-7h3.453c1.146 0 1.958-.214 2.437-.641.479-.427.719-1.026.719-1.796 0-.563-.141-1.042-.422-1.438a1.957 1.957 0 00-1.125-.781c-.292-.084-.838-.125-1.64-.125h-3.422v4.781zm10.459 7v-9.672h1.469v1.469c.375-.688.718-1.141 1.031-1.359a1.853 1.853 0 011.062-.329c.552 0 1.115.177 1.688.532l-.563 1.515c-.406-.239-.807-.359-1.203-.359-.364 0-.687.109-.968.328a1.825 1.825 0 00-.61.891 6.267 6.267 0 00-.281 1.922v5.062h-1.625zm5.619-4.844c0-1.791.495-3.114 1.484-3.968.833-.719 1.849-1.079 3.047-1.079 1.333 0 2.422.438 3.266 1.313.843.864 1.265 2.068 1.265 3.609 0 1.24-.187 2.219-.562 2.938a3.992 3.992 0 01-1.641 1.656 4.688 4.688 0 01-2.328.594c-1.354 0-2.448-.433-3.281-1.297-.834-.875-1.25-2.13-1.25-3.766zm1.687 0c0 1.24.266 2.172.797 2.797.542.615 1.224.922 2.047.922.813 0 1.49-.307 2.031-.922.542-.625.813-1.573.813-2.844 0-1.198-.271-2.104-.813-2.718-.541-.615-1.218-.922-2.031-.922-.823 0-1.505.307-2.047.922-.531.604-.797 1.526-.797 2.765zm9.298 4.844v-9.672h1.469v1.36c.302-.48.703-.86 1.203-1.141a3.397 3.397 0 011.719-.438c.718 0 1.307.151 1.765.454.458.291.781.703.969 1.234.771-1.125 1.766-1.688 2.984-1.688.969 0 1.709.266 2.219.797.521.532.781 1.349.781 2.453v6.641h-1.64v-6.094c0-.656-.052-1.125-.157-1.406a1.35 1.35 0 00-.578-.703 1.807 1.807 0 00-.984-.266c-.677 0-1.24.229-1.688.688-.448.448-.671 1.166-.671 2.156v5.625h-1.641v-6.281c0-.729-.136-1.276-.406-1.641-.271-.364-.709-.547-1.313-.547-.458 0-.885.12-1.281.36-.396.239-.682.593-.859 1.062-.167.469-.25 1.146-.25 2.031v5.016h-1.641zm14.931-4.844c0-1.791.495-3.114 1.485-3.968.833-.719 1.849-1.079 3.047-1.079 1.333 0 2.421.438 3.265 1.313.844.864 1.266 2.068 1.266 3.609 0 1.24-.188 2.219-.563 2.938a3.995 3.995 0 01-1.64 1.656 4.694 4.694 0 01-2.328.594c-1.355 0-2.448-.433-3.282-1.297-.833-.875-1.25-2.13-1.25-3.766zm1.688 0c0 1.24.265 2.172.797 2.797.541.615 1.224.922 2.047.922.812 0 1.489-.307 2.031-.922.541-.625.812-1.573.812-2.844 0-1.198-.271-2.104-.812-2.718-.542-.615-1.219-.922-2.031-.922-.823 0-1.506.307-2.047.922-.532.604-.797 1.526-.797 2.765zm12.876 3.375l.234 1.453c-.458.094-.87.141-1.234.141-.594 0-1.058-.094-1.391-.281a1.614 1.614 0 01-.688-.735c-.135-.312-.203-.958-.203-1.937v-5.578h-1.203v-1.266h1.203v-2.39l1.625-.985v3.375h1.657v1.266h-1.657v5.672c0 .458.026.755.078.89a.78.78 0 00.282.328c.135.073.328.11.578.11.177 0 .416-.021.719-.063zm8.23-1.64l1.687.203c-.271.989-.765 1.76-1.484 2.312-.719.542-1.641.813-2.766.813-1.416 0-2.541-.433-3.375-1.297-.823-.875-1.234-2.099-1.234-3.672 0-1.635.416-2.901 1.25-3.797.844-.896 1.932-1.344 3.265-1.344 1.292 0 2.344.443 3.157 1.329.823.875 1.234 2.109 1.234 3.703v.437h-7.219c.063 1.063.365 1.88.907 2.453.541.563 1.213.844 2.015.844.604 0 1.12-.156 1.547-.469.427-.323.766-.828 1.016-1.515zm-5.391-2.657h5.406c-.073-.812-.281-1.421-.625-1.828-.521-.635-1.198-.953-2.031-.953-.75 0-1.385.255-1.906.766-.511.5-.792 1.172-.844 2.015zm15.407 5.766v-1.219c-.604.959-1.505 1.438-2.703 1.438a3.774 3.774 0 01-2.125-.641c-.646-.427-1.146-1.021-1.5-1.781-.354-.761-.531-1.636-.531-2.625 0-.969.161-1.844.484-2.625.323-.792.802-1.396 1.438-1.813a3.921 3.921 0 012.171-.625c.584 0 1.099.125 1.547.375.459.24.828.558 1.11.954v-4.797h1.64v13.359h-1.531zm-5.172-4.828c0 1.239.261 2.167.781 2.781.521.615 1.136.922 1.844.922.719 0 1.328-.292 1.828-.875.5-.594.75-1.49.75-2.687 0-1.323-.255-2.292-.765-2.907-.511-.625-1.141-.937-1.891-.937-.719 0-1.323.297-1.812.89-.49.594-.735 1.532-.735 2.813zM561.68 227.915v-13.359h4.61c1.031 0 1.823.067 2.375.203.76.166 1.411.484 1.953.953.708.594 1.234 1.354 1.578 2.281.354.927.531 1.985.531 3.172 0 1.01-.12 1.911-.359 2.703-.24.781-.547 1.427-.922 1.938-.365.51-.766.916-1.203 1.218-.438.292-.969.516-1.594.672-.625.146-1.338.219-2.141.219h-4.828zm1.766-1.578h2.859c.875 0 1.563-.078 2.063-.234.5-.167.901-.402 1.203-.704.417-.416.74-.979.969-1.687.239-.708.359-1.568.359-2.578 0-1.396-.229-2.469-.687-3.219-.459-.75-1.016-1.25-1.672-1.5-.469-.187-1.229-.281-2.282-.281h-2.812v10.203zm18.129-1.531l1.688.203c-.271.989-.766 1.76-1.485 2.312-.718.542-1.64.813-2.765.813-1.417 0-2.542-.433-3.375-1.297-.823-.875-1.235-2.099-1.235-3.672 0-1.635.417-2.901 1.25-3.797.844-.896 1.933-1.344 3.266-1.344 1.292 0 2.344.443 3.156 1.329.823.875 1.235 2.109 1.235 3.703v.437h-7.219c.062 1.063.364 1.88.906 2.453.542.563 1.214.844 2.016.844.604 0 1.119-.156 1.547-.469.427-.323.765-.828 1.015-1.515zm-5.39-2.657h5.406c-.073-.812-.281-1.421-.625-1.828-.521-.635-1.198-.953-2.031-.953-.75 0-1.386.255-1.907.766-.51.5-.791 1.172-.843 2.015zm9.094 5.766v-13.359h1.641v13.359h-1.641zm4.192-11.469v-1.89h1.64v1.89h-1.64zm0 11.469v-9.672h1.64v9.672h-1.64zm6.832 0l-3.688-9.672h1.735l2.078 5.797c.219.625.427 1.271.625 1.938.135-.511.339-1.12.609-1.829l2.141-5.906h1.687l-3.656 9.672h-1.531zm13.266-3.109l1.687.203c-.271.989-.766 1.76-1.484 2.312-.719.542-1.641.813-2.766.813-1.417 0-2.542-.433-3.375-1.297-.823-.875-1.234-2.099-1.234-3.672 0-1.635.416-2.901 1.25-3.797.843-.896 1.932-1.344 3.265-1.344 1.292 0 2.344.443 3.157 1.329.823.875 1.234 2.109 1.234 3.703v.437h-7.219c.063 1.063.365 1.88.906 2.453.542.563 1.214.844 2.016.844.604 0 1.12-.156 1.547-.469.427-.323.766-.828 1.016-1.515zm-5.391-2.657h5.406c-.073-.812-.281-1.421-.625-1.828-.521-.635-1.198-.953-2.031-.953-.75 0-1.385.255-1.906.766-.511.5-.792 1.172-.844 2.015zm9.126 5.766v-9.672h1.468v1.469c.375-.688.719-1.141 1.032-1.359a1.853 1.853 0 011.062-.329c.552 0 1.115.177 1.688.532l-.563 1.515c-.406-.239-.807-.359-1.203-.359-.365 0-.687.109-.969.328a1.83 1.83 0 00-.609.891 6.237 6.237 0 00-.281 1.922v5.062h-1.625zm6.15 3.719l-.188-1.531c.365.093.677.14.938.14.364 0 .656-.062.875-.187.219-.115.401-.282.547-.5.104-.167.271-.573.5-1.219.031-.094.078-.229.14-.406l-3.672-9.688h1.766l2.016 5.594c.26.719.495 1.469.703 2.25.187-.75.411-1.484.672-2.203l2.078-5.641h1.64l-3.687 9.828c-.396 1.073-.703 1.808-.922 2.203-.292.542-.625.938-1 1.188s-.823.375-1.344.375c-.323 0-.677-.068-1.062-.203zm12.294-3.719l5.125-13.359h1.906l5.469 13.359h-2.016l-1.547-4.047h-5.593l-1.469 4.047h-1.875zm3.859-5.484h4.531l-1.406-3.703a42.038 42.038 0 01-.937-2.766 19.001 19.001 0 01-.719 2.547l-1.469 3.922zm10.053 5.484v-13.359h5.047c.885 0 1.563.041 2.031.125.646.114 1.193.328 1.641.64.448.302.807.729 1.078 1.282a4.09 4.09 0 01.406 1.828c0 1.135-.364 2.099-1.093 2.89-.719.782-2.027 1.172-3.922 1.172h-3.422v5.422h-1.766zm1.766-7h3.453c1.146 0 1.958-.214 2.437-.641.48-.427.719-1.026.719-1.796 0-.563-.14-1.042-.422-1.438a1.957 1.957 0 00-1.125-.781c-.291-.084-.838-.125-1.64-.125h-3.422v4.781zm10.975 7v-13.359h1.765v13.359h-1.765z"/></g></svg>