<svg viewBox="137.907 102.097 680.462 146.243" fill="none" stroke-linecap="square" stroke-miterlimit="10" xmlns="http://www.w3.org/2000/svg"><clipPath id="a"><path d="M0 0h1024v768H0V0z"/></clipPath><g clip-path="url(#a)"><path fill="none" d="M0 0h1024v768H0z"/><path fill="none" d="M138.73 110.583h83.968v42.015H138.73z"/><path fill="#666" d="M155.15 137.503v-5.657l-5.156-7.703h2.156l2.64 4.032q.72 1.125 1.345 2.265.609-1.047 1.468-2.36l2.578-3.937h2.063l-5.328 7.703v5.657h-1.766zm6.152-4.844q0-2.688 1.484-3.969 1.25-1.078 3.047-1.078 2 0 3.266 1.313 1.266 1.296 1.266 3.609 0 1.86-.563 2.937-.562 1.063-1.64 1.657-1.063.593-2.329.593-2.03 0-3.28-1.296-1.25-1.313-1.25-3.766zm1.688 0q0 1.86.796 2.797.813.922 2.047.922 1.22 0 2.032-.922.812-.938.812-2.844 0-1.797-.812-2.719-.813-.922-2.032-.922-1.234 0-2.047.922-.796.907-.796 2.766zm15.625 4.844v-1.422q-1.125 1.64-3.062 1.64-.86 0-1.61-.328-.734-.328-1.093-.828-.36-.5-.5-1.219-.11-.468-.11-1.53v-5.985h1.64v5.36q0 1.28.11 1.734.157.64.657 1.015.5.375 1.234.375t1.375-.375q.656-.39.922-1.031.265-.656.265-1.89v-5.188h1.641v9.672h-1.469zm4.032 0v-9.672h1.469v1.469q.563-1.032 1.031-1.36.485-.328 1.063-.328.828 0 1.687.531l-.562 1.516q-.61-.36-1.203-.36-.547 0-.97.329-.421.328-.608.89-.282.875-.282 1.922v5.063h-1.625zm20.38-13.36h1.766v7.719q0 2.016-.453 3.203-.453 1.188-1.64 1.938-1.188.734-3.125.734-1.875 0-3.079-.64-1.187-.657-1.703-1.876-.5-1.234-.5-3.359v-7.719h1.766v7.719q0 1.734.312 2.563.329.812 1.11 1.265.797.453 1.937.453 1.953 0 2.782-.89.828-.891.828-3.391v-7.719zm5.005 13.36v-13.36h1.765v13.36h-1.765z"/><path fill="none" d="M342.276 110.583H553.11v42.015H342.276z"/><path fill="#666" d="M403.983 137.503v-5.657l-5.156-7.703h2.156l2.64 4.032q.72 1.125 1.344 2.265.61-1.047 1.47-2.36l2.577-3.937h2.063l-5.328 7.703v5.657h-1.766zm6.152-4.844q0-2.688 1.484-3.969 1.25-1.078 3.047-1.078 2 0 3.266 1.313 1.265 1.296 1.265 3.609 0 1.86-.562 2.937-.563 1.063-1.64 1.657-1.063.593-2.329.593-2.031 0-3.281-1.296-1.25-1.313-1.25-3.766zm1.687 0q0 1.86.797 2.797.813.922 2.047.922 1.219 0 2.031-.922.813-.938.813-2.844 0-1.797-.813-2.719-.812-.922-2.03-.922-1.235 0-2.048.922-.797.907-.797 2.766zm15.626 4.844v-1.422q-1.125 1.64-3.062 1.64-.86 0-1.61-.328-.734-.328-1.093-.828-.36-.5-.5-1.219-.11-.468-.11-1.53v-5.985h1.64v5.36q0 1.28.11 1.734.156.64.656 1.015.5.375 1.235.375.734 0 1.375-.375.656-.39.922-1.031.265-.656.265-1.89v-5.188h1.64v9.672h-1.468zm4.032 0v-9.672h1.469v1.469q.562-1.032 1.031-1.36.485-.328 1.063-.328.828 0 1.687.531l-.562 1.516q-.61-.36-1.203-.36-.547 0-.97.329-.421.328-.609.89-.28.875-.28 1.922v5.063h-1.626zm11.021-4.297l1.656-.14q.125 1 .547 1.64.438.64 1.344 1.047.922.39 2.063.39 1 0 1.78-.297.782-.296 1.157-.812.375-.531.375-1.156 0-.625-.375-1.094-.36-.469-1.187-.797-.547-.203-2.391-.64-1.828-.454-2.563-.844-.968-.5-1.437-1.235-.469-.75-.469-1.672 0-1 .578-1.875.578-.89 1.672-1.343 1.11-.453 2.453-.453 1.485 0 2.61.484 1.14.469 1.75 1.406.609.922.656 2.094l-1.688.125q-.14-1.266-.937-1.906-.781-.657-2.313-.657-1.609 0-2.343.594-.735.594-.735 1.422 0 .719.532 1.172.5.469 2.656.969 2.156.484 2.953.843 1.172.532 1.719 1.36.562.828.562 1.906 0 1.063-.61 2.016-.609.937-1.75 1.468-1.14.516-2.577.516-1.813 0-3.047-.531-1.219-.531-1.922-1.594-.688-1.062-.719-2.406zm19.46 1.187l1.687.203q-.406 1.485-1.485 2.313-1.078.812-2.765.812-2.125 0-3.375-1.296-1.235-1.313-1.235-3.672 0-2.453 1.25-3.797 1.266-1.344 3.266-1.344 1.938 0 3.156 1.328 1.235 1.313 1.235 3.703v.438h-7.22q.095 1.594.907 2.453.813.844 2.016.844.906 0 1.547-.47.64-.483 1.015-1.515zm-5.391-2.656h5.406q-.11-1.219-.625-1.828-.781-.953-2.031-.953-1.125 0-1.907.765-.765.75-.843 2.016zm9.125 5.766v-9.672h1.47v1.469q.562-1.032 1.03-1.36.485-.328 1.063-.328.828 0 1.687.531l-.562 1.516q-.61-.36-1.203-.36-.547 0-.969.329-.422.328-.61.89-.28.875-.28 1.922v5.063h-1.626zm8.916 0l-3.687-9.672h1.734l2.078 5.797q.328.937.625 1.937.203-.765.61-1.828l2.14-5.906h1.688l-3.657 9.672h-1.53zm13.266-3.11l1.687.203q-.406 1.485-1.484 2.313-1.078.812-2.766.812-2.125 0-3.375-1.296-1.234-1.313-1.234-3.672 0-2.453 1.25-3.797 1.266-1.344 3.266-1.344 1.937 0 3.156 1.328 1.234 1.313 1.234 3.703v.438h-7.219q.094 1.594.907 2.453.812.844 2.015.844.907 0 1.547-.47.64-.483 1.016-1.515zm-5.39-2.656h5.405q-.109-1.219-.625-1.828-.78-.953-2.03-.953-1.126 0-1.907.765-.766.75-.844 2.016zm9.125 5.766v-9.672h1.469v1.469q.562-1.032 1.031-1.36.484-.328 1.062-.328.829 0 1.688.531l-.563 1.516q-.609-.36-1.203-.36-.547 0-.968.329-.422.328-.61.89-.281.875-.281 1.922v5.063h-1.625z"/><path fill="#cfe2f3" d="M148.399 200.974c0-17.847 14.468-32.315 32.315-32.315 17.847 0 32.315 14.468 32.315 32.315 0 17.847-14.468 32.315-32.315 32.315-17.847 0-32.315-14.468-32.315-32.315z" fill-rule="evenodd"/><path fill="#a5b4c2" d="M166.995 191.31a3.366 3.366 0 116.732 0 3.366 3.366 0 01-6.732 0m20.706 0a3.366 3.366 0 116.732 0 3.366 3.366 0 01-6.732 0" fill-rule="evenodd"/><path fill="none" d="M163.199 215.067q17.515 12.028 34.989 0M148.399 200.974c0-17.847 14.468-32.315 32.315-32.315 17.847 0 32.315 14.468 32.315 32.315 0 17.847-14.468 32.315-32.315 32.315-17.847 0-32.315-14.468-32.315-32.315z"/><path stroke="#000" stroke-linejoin="round" stroke-linecap="butt" d="M166.995 191.31a3.366 3.366 0 116.732 0 3.366 3.366 0 01-6.732 0m20.706 0a3.366 3.366 0 116.732 0 3.366 3.366 0 01-6.732 0M163.199 215.067q17.515 12.028 34.989 0"/><path stroke="#000" stroke-linejoin="round" stroke-linecap="butt" d="M148.399 200.974h0c0-17.847 14.468-32.315 32.315-32.315 17.847 0 32.315 14.468 32.315 32.315 0 17.847-14.468 32.315-32.315 32.315-17.847 0-32.315-14.468-32.315-32.315z"/><path fill="#cfe2f3" d="M357.875 168.659h179.748v64.63H357.875z" fill-rule="evenodd"/><path stroke="#000" stroke-linejoin="round" stroke-linecap="butt" d="M357.875 168.659h179.748v64.63H357.875z"/><path fill="#000" d="M372.107 196.894v-13.36h5.047q1.328 0 2.031.125.969.172 1.64.641.673.453 1.079 1.281.406.828.406 1.828 0 1.704-1.094 2.891-1.078 1.172-3.922 1.172h-3.421v5.422h-1.766zm1.766-7h3.453q1.718 0 2.437-.64.719-.641.719-1.798 0-.843-.422-1.437-.422-.594-1.125-.781-.437-.125-1.64-.125h-3.422v4.78zm10.459 7v-9.672h1.469v1.469q.562-1.032 1.03-1.36.485-.328 1.063-.328.828 0 1.688.531l-.563 1.516q-.61-.36-1.203-.36-.547 0-.969.329-.421.328-.609.89-.281.875-.281 1.922v5.063h-1.625zm5.619-4.844q0-2.688 1.484-3.969 1.25-1.078 3.047-1.078 2 0 3.266 1.313 1.265 1.297 1.265 3.609 0 1.86-.562 2.938-.563 1.062-1.64 1.656-1.063.594-2.33.594-2.03 0-3.28-1.297-1.25-1.313-1.25-3.766zm1.687 0q0 1.86.797 2.797.813.922 2.047.922 1.219 0 2.031-.922.813-.938.813-2.844 0-1.797-.813-2.719-.812-.921-2.031-.921-1.234 0-2.047.921-.797.907-.797 2.766zm8.204 4.844l3.531-5.031-3.265-4.641h2.047l1.484 2.266q.422.64.672 1.078.406-.594.734-1.063l1.64-2.281h1.954l-3.344 4.547 3.594 5.125h-2.016l-1.984-3-.516-.813-2.547 3.813h-1.984zm10.344 3.719l-.188-1.532q.547.14.938.14.547 0 .875-.187.328-.171.547-.5.156-.25.5-1.218.047-.141.14-.407l-3.672-9.687h1.766l2.016 5.594q.39 1.078.703 2.25.281-1.125.672-2.203l2.078-5.641h1.64l-3.687 9.828q-.594 1.61-.922 2.203-.437.813-1 1.188-.562.375-1.344.375-.484 0-1.062-.203zm14.98-3.72v-8.405h-1.453v-1.266h1.453v-1.031q0-.97.172-1.453.234-.641.828-1.032.594-.39 1.672-.39.687 0 1.531.156l-.25 1.437q-.5-.093-.953-.093-.75 0-1.063.328-.312.312-.312 1.187v.89h1.89v1.267h-1.89v8.406h-1.625zm4.183-4.843q0-2.688 1.485-3.969 1.25-1.078 3.046-1.078 2 0 3.266 1.313 1.266 1.297 1.266 3.609 0 1.86-.563 2.938-.562 1.062-1.64 1.656-1.063.594-2.329.594-2.03 0-3.28-1.297-1.25-1.313-1.25-3.766zm1.688 0q0 1.86.797 2.797.812.922 2.046.922 1.22 0 2.032-.922.812-.938.812-2.844 0-1.797-.812-2.719-.813-.921-2.032-.921-1.234 0-2.046.921-.797.907-.797 2.766zm9.282 4.844v-9.672h1.468v1.469q.563-1.032 1.032-1.36.484-.328 1.062-.328.828 0 1.688.531l-.563 1.516q-.61-.36-1.203-.36-.547 0-.969.329-.422.328-.609.89-.281.875-.281 1.922v5.063h-1.625zm13.943 0l-3.532-13.36h1.813l2.031 8.766q.328 1.375.563 2.719.5-2.14.593-2.469l2.547-9.016h2.125l1.922 6.766q.719 2.516 1.031 4.719.266-1.266.672-2.89l2.094-8.595h1.781l-3.672 13.36h-1.703l-2.812-10.172q-.36-1.281-.422-1.563-.203.907-.39 1.563l-2.829 10.172h-1.812zm21.365-3.11l1.687.204q-.406 1.484-1.484 2.312-1.078.813-2.766.813-2.125 0-3.375-1.297-1.234-1.313-1.234-3.672 0-2.453 1.25-3.797 1.265-1.344 3.265-1.344 1.938 0 3.157 1.328 1.234 1.313 1.234 3.703v.438h-7.219q.094 1.594.907 2.453.812.844 2.015.844.906 0 1.547-.469.64-.484 1.016-1.516zm-5.39-2.656h5.405q-.109-1.219-.625-1.828-.78-.953-2.03-.953-1.126 0-1.907.766-.766.75-.844 2.015zm10.64 5.766h-1.515v-13.36h1.64v4.766q1.047-1.297 2.657-1.297.89 0 1.687.36.797.359 1.313 1.015.515.64.797 1.563.296.922.296 1.968 0 2.485-1.234 3.844-1.219 1.36-2.953 1.36-1.703 0-2.688-1.438v1.219zm-.015-4.906q0 1.734.484 2.515.766 1.266 2.094 1.266 1.078 0 1.86-.938.78-.937.78-2.781 0-1.89-.75-2.797-.75-.906-1.828-.906-1.062 0-1.859.937-.781.938-.781 2.704zm20.387 3.718q-.922.766-1.766 1.094-.828.313-1.797.313-1.593 0-2.453-.782-.859-.781-.859-1.984 0-.719.328-1.297.328-.594.844-.938.531-.359 1.187-.546.47-.125 1.453-.25 1.985-.235 2.922-.563.016-.344.016-.422 0-1-.469-1.422-.625-.546-1.875-.546-1.156 0-1.703.406-.547.406-.812 1.422l-1.61-.22q.219-1.015.719-1.64.5-.64 1.453-.984.953-.344 2.188-.344 1.25 0 2.015.297.781.281 1.14.734.376.438.516 1.11.079.422.079 1.515v2.188q0 2.281.109 2.89.11.594.406 1.157h-1.703q-.266-.516-.328-1.188zm-.14-3.672q-.891.375-2.673.625-1.015.141-1.437.329-.422.187-.656.53-.219.345-.219.782 0 .656.5 1.094.5.437 1.453.437.938 0 1.672-.406.75-.422 1.094-1.14.265-.563.265-1.641v-.61zm4.203 4.86v-9.672h1.469v1.375q1.062-1.594 3.078-1.594.875 0 1.61.313.734.312 1.093.828.375.5.516 1.203.094.453.094 1.594v5.953h-1.641v-5.89q0-1-.203-1.485-.188-.5-.672-.797-.484-.297-1.14-.297-1.048 0-1.813.672-.75.656-.75 2.516v5.28h-1.64zm16.642 0v-1.219q-.907 1.438-2.704 1.438-1.156 0-2.125-.641-.968-.64-1.5-1.781-.53-1.141-.53-2.625 0-1.453.484-2.625.484-1.188 1.437-1.813.969-.625 2.172-.625.875 0 1.547.375.687.36 1.11.953v-4.797h1.64v13.36h-1.531zm-5.172-4.828q0 1.859.78 2.78.782.923 1.845.923 1.078 0 1.828-.875.75-.89.75-2.688 0-1.984-.766-2.906-.765-.938-1.89-.938-1.079 0-1.813.891-.734.89-.734 2.813zM415.91 218.894v-13.36h1.78v11.782h6.563v1.578h-8.344zm9.64-4.844q0-2.688 1.485-3.969 1.25-1.078 3.047-1.078 2 0 3.265 1.313 1.266 1.297 1.266 3.609 0 1.86-.562 2.938-.563 1.062-1.641 1.656-1.063.594-2.328.594-2.031 0-3.281-1.297-1.25-1.313-1.25-3.766zm1.688 0q0 1.86.797 2.797.812.922 2.047.922 1.219 0 2.031-.922.813-.938.813-2.844 0-1.797-.813-2.719-.812-.921-2.031-.921-1.235 0-2.047.921-.797.907-.797 2.766zm8.985 5.64l1.594.235q.11.75.562 1.078.61.453 1.672.453 1.14 0 1.75-.453.625-.453.844-1.265.125-.5.11-2.11-1.063 1.266-2.673 1.266-2 0-3.093-1.438-1.094-1.437-1.094-3.453 0-1.39.5-2.562.516-1.172 1.453-1.797.953-.64 2.25-.64 1.703 0 2.813 1.374v-1.156h1.515v8.36q0 2.265-.469 3.202-.453.938-1.453 1.485-.984.547-2.453.547-1.719 0-2.797-.782-1.062-.765-1.03-2.343zm1.36-5.812q0 1.906.75 2.781.765.875 1.906.875 1.125 0 1.89-.859.766-.875.766-2.734 0-1.782-.797-2.672-.781-.906-1.89-.906-1.094 0-1.86.89-.766.875-.766 2.625zm9.016 5.813l1.594.234q.109.75.562 1.078.61.453 1.672.453 1.14 0 1.75-.453.625-.453.844-1.265.125-.5.11-2.11-1.063 1.266-2.673 1.266-2 0-3.094-1.438-1.093-1.437-1.093-3.453 0-1.39.5-2.562.515-1.172 1.453-1.797.953-.64 2.25-.64 1.703 0 2.812 1.374v-1.156h1.516v8.36q0 2.265-.469 3.202-.453.938-1.453 1.485-.984.547-2.453.547-1.719 0-2.797-.782-1.062-.765-1.031-2.343zm1.36-5.813q0 1.906.75 2.781.765.875 1.905.875 1.125 0 1.891-.859.766-.875.766-2.734 0-1.782-.797-2.672-.781-.906-1.89-.906-1.095 0-1.86.89-.766.875-.766 2.625zm9.328-6.453v-1.89h1.64v1.89h-1.64zm0 11.469v-9.672h1.64v9.672h-1.64zm4.145 0v-9.672h1.469v1.375q1.062-1.594 3.078-1.594.875 0 1.61.313.733.312 1.093.828.375.5.515 1.203.094.453.094 1.594v5.953h-1.64v-5.89q0-1-.204-1.485-.187-.5-.671-.797-.485-.297-1.141-.297-1.047 0-1.813.672-.75.656-.75 2.516v5.28h-1.64zm10.063.797l1.594.234q.11.75.562 1.078.61.453 1.672.453 1.14 0 1.75-.453.625-.453.844-1.265.125-.5.11-2.11-1.063 1.266-2.673 1.266-2 0-3.093-1.438-1.094-1.437-1.094-3.453 0-1.39.5-2.562.516-1.172 1.453-1.797.953-.64 2.25-.64 1.703 0 2.813 1.374v-1.156h1.515v8.36q0 2.265-.469 3.202-.453.938-1.453 1.485-.984.547-2.453.547-1.719 0-2.797-.782-1.062-.765-1.03-2.343zm1.36-5.813q0 1.906.75 2.781.765.875 1.906.875 1.125 0 1.89-.859.766-.875.766-2.734 0-1.782-.797-2.672-.781-.906-1.89-.906-1.094 0-1.86.89-.766.875-.766 2.625z"/><path fill="#cfe2f3" d="M689.32 168.659h116.441v64.63h-116.44z" fill-rule="evenodd"/><path stroke="#000" stroke-linejoin="round" stroke-linecap="butt" d="M689.32 168.659h116.441v64.63h-116.44z"/><path fill="none" d="M228.895 195.955h116.472"/><path stroke="#000" stroke-linejoin="round" stroke-linecap="butt" d="M228.895 195.955h110.472"/><path fill="#000" stroke="#000" stroke-linecap="butt" d="M339.367 197.607l4.539-1.652-4.539-1.651z" fill-rule="evenodd"/><path fill="none" d="M223.752 142.814h143.055v54.929H223.752z"/><path fill="#000" d="M238.205 165.894h-1.281v-8.203q-.469.437-1.219.89-.75.438-1.36.656v-1.25q1.079-.5 1.891-1.218.813-.735 1.141-1.407h.828v10.532zm4.026 0v-1.47h1.469v1.47h-1.469zm8.175 0v-10.485h1.391v10.485h-1.39zm3.682 0V158.3h1.156v1.062q.344-.562.938-.89.609-.344 1.359-.344.844 0 1.375.344.547.344.766.984.906-1.328 2.359-1.328 1.125 0 1.734.625.61.625.61 1.922v5.219h-1.282v-4.782q0-.78-.125-1.109-.125-.344-.453-.547-.328-.219-.781-.219-.797 0-1.328.532-.531.53-.531 1.703v4.422h-1.282v-4.938q0-.86-.312-1.281-.313-.438-1.031-.438-.547 0-1.016.297-.453.282-.672.828-.203.547-.203 1.594v3.938h-1.281zm12.209 2.906v-10.5h1.171v.984q.422-.578.938-.86.516-.296 1.266-.296.968 0 1.718.5t1.125 1.422q.375.906.375 1.984 0 1.172-.422 2.11-.406.922-1.218 1.422-.797.5-1.672.5-.64 0-1.156-.266-.516-.281-.844-.688v3.688h-1.281zm1.156-6.656q0 1.453.594 2.156.609.703 1.453.703.859 0 1.468-.719.61-.734.61-2.25 0-1.453-.61-2.172-.593-.734-1.421-.734-.813 0-1.454.781-.64.766-.64 2.235zm6.979 3.75V158.3h1.156v1.14q.453-.796.828-1.046.375-.266.813-.266.656 0 1.328.406l-.437 1.203q-.47-.28-.954-.28-.421 0-.765.25-.328.25-.469.702-.219.688-.219 1.5v3.985h-1.281zm10.1-2.453l1.328.171q-.313 1.172-1.172 1.813-.844.64-2.172.64-1.672 0-2.656-1.015-.97-1.031-.97-2.89 0-1.923.985-2.97 1-1.062 2.578-1.062 1.516 0 2.485 1.031.968 1.032.968 2.922 0 .11-.015.344h-5.656q.062 1.25.703 1.922.64.656 1.593.656.704 0 1.204-.36.5-.374.796-1.202zm-4.235-2.079h4.25q-.094-.953-.484-1.437-.625-.75-1.61-.75-.875 0-1.484.594-.61.593-.672 1.593zm6.667 2.266l1.265-.203q.11.766.594 1.172.5.406 1.375.406.89 0 1.313-.36.437-.359.437-.843 0-.438-.375-.688-.265-.171-1.312-.437-1.422-.36-1.97-.61-.546-.265-.827-.734-.281-.469-.281-1.015 0-.516.218-.938.235-.437.64-.734.298-.22.813-.36.532-.156 1.125-.156.891 0 1.563.266.672.25 1 .687.328.438.437 1.172l-1.25.172q-.093-.578-.5-.906-.406-.344-1.156-.344-.89 0-1.281.297-.375.297-.375.687 0 .25.156.453.156.204.5.344.188.078 1.14.328 1.36.36 1.891.594.547.234.86.688.312.437.312 1.093 0 .64-.375 1.219-.375.563-1.093.875-.704.313-1.594.313-1.485 0-2.266-.61-.765-.625-.984-1.828zm7.328 0l1.266-.203q.109.766.593 1.172.5.406 1.375.406.89 0 1.313-.36.437-.359.437-.843 0-.438-.375-.688-.265-.171-1.312-.437-1.422-.36-1.969-.61-.547-.265-.828-.734-.281-.469-.281-1.015 0-.516.218-.938.235-.437.641-.734.297-.22.813-.36.53-.156 1.125-.156.89 0 1.562.266.672.25 1 .687.328.438.438 1.172l-1.25.172q-.094-.578-.5-.906-.407-.344-1.157-.344-.89 0-1.281.297-.375.297-.375.687 0 .25.156.453.157.204.5.344.188.078 1.14.328 1.36.36 1.892.594.546.234.859.688.312.437.312 1.093 0 .64-.375 1.219-.375.563-1.093.875-.703.313-1.594.313-1.484 0-2.266-.61-.765-.625-.984-1.828zm7.844-6.75v-1.469h1.297v1.469h-1.297zm0 9.016V158.3h1.297v7.594h-1.297zm2.771-3.797q0-2.11 1.172-3.125.985-.844 2.39-.844 1.579 0 2.563 1.031 1 1.016 1 2.828 0 1.47-.437 2.313-.438.828-1.281 1.297-.844.469-1.844.469-1.594 0-2.578-1.016-.985-1.031-.985-2.953zm1.329 0q0 1.453.625 2.187.64.719 1.609.719t1.594-.719q.64-.734.64-2.234 0-1.406-.64-2.125-.641-.734-1.594-.734-.969 0-1.61.718-.624.719-.624 2.188zm7.307 3.797V158.3h1.156v1.078q.844-1.25 2.422-1.25.688 0 1.266.25.578.234.859.64.281.407.406.954.063.36.063 1.25v4.672h-1.281v-4.625q0-.782-.157-1.172-.156-.39-.547-.625-.375-.235-.89-.235-.813 0-1.422.532-.594.515-.594 1.968v4.157h-1.281zm7.635-2.266l1.266-.203q.11.766.594 1.172.5.406 1.375.406.89 0 1.312-.36.438-.359.438-.843 0-.438-.375-.688-.266-.171-1.313-.437-1.422-.36-1.968-.61-.547-.265-.829-.734-.28-.469-.28-1.015 0-.516.218-.938.234-.437.64-.734.297-.22.813-.36.531-.156 1.125-.156.89 0 1.563.266.671.25 1 .687.328.438.437 1.172l-1.25.172q-.094-.578-.5-.906-.406-.344-1.156-.344-.89 0-1.281.297-.375.297-.375.687 0 .25.156.453.156.204.5.344.187.078 1.14.328 1.36.36 1.891.594.547.234.86.688.312.437.312 1.093 0 .64-.375 1.219-.375.563-1.094.875-.703.313-1.594.313-1.484 0-2.265-.61-.766-.625-.985-1.828zM238.674 182.556q-.719.61-1.375.86t-1.422.25q-1.25 0-1.922-.61-.672-.61-.672-1.562 0-.563.25-1.016.25-.469.656-.75.422-.281.938-.422.375-.094 1.14-.187 1.563-.188 2.297-.453.016-.266.016-.329 0-.796-.375-1.109-.484-.437-1.453-.437-.922 0-1.36.328-.421.312-.624 1.109l-1.266-.172q.172-.797.562-1.297.391-.5 1.141-.765.75-.266 1.719-.266.984 0 1.594.234.609.22.89.563.281.344.406.875.063.328.063 1.187v1.72q0 1.796.078 2.28.078.47.328.907h-1.344q-.203-.407-.265-.938zm-.11-2.875q-.703.281-2.093.485-.797.109-1.125.265-.328.14-.516.422-.172.266-.172.594 0 .515.39.86.391.343 1.141.343.735 0 1.313-.313.594-.328.86-.89.202-.438.202-1.297v-.469zm3.308 3.813V175.9h1.156v1.078q.844-1.25 2.422-1.25.687 0 1.266.25.578.234.859.64.281.407.406.954.063.36.063 1.25v4.672h-1.282v-4.625q0-.782-.156-1.172-.156-.39-.547-.625-.375-.235-.89-.235-.813 0-1.422.532-.594.515-.594 1.968v4.157h-1.281zm13.073 0v-.953q-.719 1.125-2.125 1.125-.906 0-1.672-.5-.75-.5-1.172-1.391-.422-.906-.422-2.078 0-1.14.375-2.063.39-.922 1.14-1.406.766-.5 1.704-.5.687 0 1.219.297.53.281.875.734v-3.75h1.28v10.485h-1.202zm-4.063-3.797q0 1.469.61 2.187.625.719 1.453.719.844 0 1.437-.687.594-.688.594-2.11 0-1.562-.61-2.281-.593-.734-1.484-.734-.843 0-1.422.703-.578.703-.578 2.203zm9.57 3.797l4.016-10.485h1.5l4.297 10.485h-1.578l-1.235-3.172h-4.375l-1.156 3.172h-1.469zm3.016-4.313h3.563l-1.094-2.906q-.5-1.313-.75-2.172-.203 1.016-.563 2l-1.156 3.078zm12.697 1.531l1.266.157q-.203 1.312-1.062 2.062-.844.735-2.094.735-1.563 0-2.516-1.016-.937-1.031-.937-2.922 0-1.234.406-2.156.406-.922 1.234-1.375.844-.469 1.813-.469 1.25 0 2.031.625.781.625 1.016 1.766l-1.266.203q-.172-.766-.625-1.156-.453-.391-1.094-.391-.984 0-1.593.703-.61.703-.61 2.203 0 1.531.578 2.235.594.687 1.547.687.75 0 1.266-.453.515-.469.64-1.438zm5.188 1.625l.187 1.141q-.546.11-.984.11-.687 0-1.078-.22-.39-.218-.547-.577-.156-.36-.156-1.516V176.9h-.953v-1h.953v-1.89l1.281-.766v2.656h1.297v1h-1.297v4.437q0 .547.063.72.078.155.218.25.157.077.453.077.204 0 .563-.047zm1.26-7.859v-1.469h1.296v1.469h-1.297zm0 9.016V175.9h1.296v7.594h-1.297zm2.771-3.797q0-2.11 1.172-3.125.984-.844 2.39-.844 1.579 0 2.563 1.031 1 1.016 1 2.828 0 1.47-.437 2.313-.438.828-1.282 1.297-.843.469-1.843.469-1.594 0-2.578-1.016-.985-1.031-.985-2.953zm1.328 0q0 1.453.625 2.187.641.719 1.61.719.968 0 1.593-.719.641-.734.641-2.234 0-1.406-.64-2.125-.641-.734-1.594-.734-.969 0-1.61.718-.625.719-.625 2.188zm7.308 3.797V175.9h1.156v1.078q.844-1.25 2.422-1.25.687 0 1.265.25.579.234.86.64.281.407.406.954.063.36.063 1.25v4.672h-1.282v-4.625q0-.782-.156-1.172-.156-.39-.547-.625-.375-.235-.89-.235-.813 0-1.422.532-.594.515-.594 1.968v4.157h-1.281zm7.635-2.266l1.266-.203q.11.766.594 1.172.5.406 1.375.406.89 0 1.312-.36.438-.359.438-.843 0-.438-.375-.688-.266-.171-1.313-.437-1.422-.36-1.969-.61-.547-.265-.828-.734-.281-.469-.281-1.015 0-.516.219-.938.234-.437.64-.734.297-.22.813-.36.531-.156 1.125-.156.89 0 1.562.266.672.25 1 .687.328.438.438 1.172l-1.25.172q-.094-.578-.5-.906-.406-.344-1.156-.344-.891 0-1.282.297-.375.297-.375.687 0 .25.157.453.156.204.5.344.187.078 1.14.328 1.36.36 1.89.594.548.234.86.688.313.437.313 1.093 0 .64-.375 1.219-.375.563-1.094.875-.703.313-1.594.313-1.484 0-2.265-.61-.766-.625-.985-1.828z"/><path fill="none" d="M549.33 142.814H672.7v54.929H549.33z"/><path fill="#000" d="M565.706 164.66v1.234h-6.938q-.015-.47.156-.891.266-.719.844-1.406.594-.688 1.688-1.578 1.718-1.407 2.312-2.22.61-.827.61-1.562 0-.765-.563-1.28-.547-.532-1.422-.532-.922 0-1.484.562-.563.563-.563 1.547l-1.328-.14q.14-1.485 1.016-2.25.89-.782 2.39-.782 1.516 0 2.391.844.875.828.875 2.063 0 .64-.266 1.25-.25.593-.843 1.265-.594.672-1.985 1.86-1.156.968-1.484 1.312-.328.344-.547.703h5.14zm2.104 1.234v-1.47h1.469v1.47h-1.469zm8.175 0v-10.485h1.39v10.485h-1.39zm3.682 0V158.3h1.156v1.062q.344-.562.937-.89.61-.344 1.36-.344.843 0 1.375.344.547.344.765.984.907-1.328 2.36-1.328 1.125 0 1.734.625.61.625.61 1.922v5.219h-1.282v-4.782q0-.78-.125-1.109-.125-.344-.453-.547-.328-.219-.781-.219-.797 0-1.328.532-.532.53-.532 1.703v4.422h-1.28v-4.938q0-.86-.313-1.281-.313-.438-1.032-.438-.546 0-1.015.297-.453.282-.672.828-.203.547-.203 1.594v3.938h-1.281zm12.208 2.906v-10.5h1.172v.984q.422-.578.938-.86.515-.296 1.265-.296.97 0 1.72.5t1.124 1.422q.375.906.375 1.984 0 1.172-.422 2.11-.406.922-1.219 1.422-.796.5-1.671.5-.641 0-1.157-.266-.515-.281-.843-.688v3.688h-1.282zm1.157-6.656q0 1.453.593 2.156.61.703 1.453.703.86 0 1.47-.719.609-.734.609-2.25 0-1.453-.61-2.172-.594-.734-1.422-.734-.812 0-1.453.781-.64.766-.64 2.235zm6.979 3.75V158.3h1.156v1.14q.453-.796.828-1.046.375-.266.813-.266.656 0 1.328.406l-.438 1.203q-.468-.28-.953-.28-.422 0-.765.25-.329.25-.47.702-.218.688-.218 1.5v3.985h-1.281zm10.1-2.453l1.327.171q-.312 1.172-1.172 1.813-.843.64-2.171.64-1.672 0-2.657-1.015-.968-1.031-.968-2.89 0-1.923.984-2.97 1-1.062 2.578-1.062 1.516 0 2.484 1.031.97 1.032.97 2.922 0 .11-.016.344h-5.657q.063 1.25.703 1.922.641.656 1.594.656.703 0 1.203-.36.5-.374.797-1.202zm-4.235-2.079h4.25q-.094-.953-.485-1.437-.625-.75-1.609-.75-.875 0-1.484.594-.61.593-.672 1.593zm6.667 2.266l1.265-.203q.11.766.594 1.172.5.406 1.375.406.89 0 1.312-.36.438-.359.438-.843 0-.438-.375-.688-.266-.171-1.313-.437-1.421-.36-1.968-.61-.547-.265-.828-.734-.282-.469-.282-1.015 0-.516.219-.938.234-.437.64-.734.298-.22.813-.36.531-.156 1.125-.156.89 0 1.563.266.672.25 1 .687.328.438.437 1.172l-1.25.172q-.094-.578-.5-.906-.406-.344-1.156-.344-.89 0-1.281.297-.375.297-.375.687 0 .25.156.453.156.204.5.344.187.078 1.14.328 1.36.36 1.891.594.547.234.86.688.312.437.312 1.093 0 .64-.375 1.219-.375.563-1.094.875-.703.313-1.593.313-1.485 0-2.266-.61-.766-.625-.984-1.828zm7.328 0l1.265-.203q.11.766.594 1.172.5.406 1.375.406.89 0 1.313-.36.437-.359.437-.843 0-.438-.375-.688-.266-.171-1.312-.437-1.422-.36-1.97-.61-.546-.265-.827-.734-.282-.469-.282-1.015 0-.516.22-.938.234-.437.64-.734.297-.22.812-.36.532-.156 1.125-.156.89 0 1.563.266.672.25 1 .687.328.438.437 1.172l-1.25.172q-.093-.578-.5-.906-.406-.344-1.156-.344-.89 0-1.281.297-.375.297-.375.687 0 .25.156.453.156.204.5.344.188.078 1.14.328 1.36.36 1.891.594.547.234.86.688.312.437.312 1.093 0 .64-.375 1.219-.375.563-1.094.875-.703.313-1.593.313-1.485 0-2.266-.61-.766-.625-.984-1.828zm7.843-6.75v-1.469h1.297v1.469h-1.297zm0 9.016V158.3h1.297v7.594h-1.297zm2.772-3.797q0-2.11 1.172-3.125.984-.844 2.39-.844 1.579 0 2.563 1.031 1 1.016 1 2.828 0 1.47-.437 2.313-.438.828-1.282 1.297-.843.469-1.843.469-1.594 0-2.578-1.016-.985-1.031-.985-2.953zm1.328 0q0 1.453.625 2.187.641.719 1.61.719.968 0 1.593-.719.641-.734.641-2.234 0-1.406-.64-2.125-.641-.734-1.594-.734-.969 0-1.61.718-.625.719-.625 2.188zm7.308 3.797V158.3h1.156v1.078q.844-1.25 2.422-1.25.687 0 1.265.25.579.234.86.64.281.407.406.954.063.36.063 1.25v4.672h-1.282v-4.625q0-.782-.156-1.172-.156-.39-.547-.625-.375-.235-.89-.235-.813 0-1.422.532-.594.515-.594 1.968v4.157h-1.281zm7.635-2.266l1.266-.203q.11.766.594 1.172.5.406 1.375.406.89 0 1.312-.36.438-.359.438-.843 0-.438-.375-.688-.266-.171-1.313-.437-1.422-.36-1.969-.61-.547-.265-.828-.734-.281-.469-.281-1.015 0-.516.219-.938.234-.437.64-.734.297-.22.813-.36.531-.156 1.125-.156.89 0 1.562.266.672.25 1 .687.328.438.438 1.172l-1.25.172q-.094-.578-.5-.906-.406-.344-1.156-.344-.891 0-1.282.297-.375.297-.375.687 0 .25.157.453.156.204.5.344.187.078 1.14.328 1.36.36 1.89.594.548.234.86.688.313.437.313 1.093 0 .64-.375 1.219-.375.563-1.094.875-.703.313-1.594.313-1.484 0-2.265-.61-.766-.625-.985-1.828zM564.253 182.556q-.72.61-1.375.86-.657.25-1.422.25-1.25 0-1.922-.61-.672-.61-.672-1.562 0-.563.25-1.016.25-.469.656-.75.422-.281.938-.422.375-.094 1.14-.187 1.563-.188 2.297-.453.016-.266.016-.329 0-.796-.375-1.109-.485-.437-1.453-.437-.922 0-1.36.328-.422.312-.625 1.109l-1.265-.172q.172-.797.562-1.297.39-.5 1.14-.765.75-.266 1.72-.266.984 0 1.593.234.61.22.891.563.281.344.406.875.063.328.063 1.187v1.72q0 1.796.078 2.28.078.47.328.907h-1.344q-.203-.407-.265-.938zm-.11-2.875q-.703.281-2.094.485-.796.109-1.125.265-.328.14-.515.422-.172.266-.172.594 0 .515.39.86.391.343 1.141.343.735 0 1.313-.313.593-.328.86-.89.202-.438.202-1.297v-.469zm3.308 3.813V175.9h1.156v1.078q.844-1.25 2.422-1.25.687 0 1.265.25.578.234.86.64.281.407.406.954.062.36.062 1.25v4.672h-1.28v-4.625q0-.782-.157-1.172-.156-.39-.547-.625-.375-.235-.89-.235-.813 0-1.422.532-.594.515-.594 1.968v4.157h-1.281zm13.073 0v-.953q-.72 1.125-2.125 1.125-.907 0-1.672-.5-.75-.5-1.172-1.391-.422-.906-.422-2.078 0-1.14.375-2.063.39-.922 1.14-1.406.766-.5 1.704-.5.687 0 1.218.297.532.281.875.734v-3.75h1.282v10.485h-1.203zm-4.063-3.797q0 1.469.61 2.187.624.719 1.453.719.843 0 1.437-.687.594-.688.594-2.11 0-1.562-.61-2.281-.593-.734-1.484-.734-.844 0-1.422.703t-.578 2.203zm9.57 3.797l4.016-10.485h1.5l4.297 10.485h-1.578l-1.235-3.172h-4.375l-1.156 3.172h-1.469zm3.016-4.313h3.562l-1.093-2.906q-.5-1.313-.75-2.172-.204 1.016-.563 2l-1.156 3.078zm12.697 1.531l1.266.157q-.203 1.312-1.063 2.062-.843.735-2.093.735-1.563 0-2.516-1.016-.938-1.031-.938-2.922 0-1.234.407-2.156.406-.922 1.234-1.375.844-.469 1.813-.469 1.25 0 2.03.625.782.625 1.016 1.766l-1.265.203q-.172-.766-.625-1.156-.453-.391-1.094-.391-.984 0-1.594.703-.609.703-.609 2.203 0 1.531.578 2.235.594.687 1.547.687.75 0 1.266-.453.515-.469.64-1.438zm5.188 1.625l.187 1.141q-.547.11-.984.11-.688 0-1.078-.22-.39-.218-.547-.577-.156-.36-.156-1.516V176.9h-.954v-1h.954v-1.89l1.28-.766v2.656h1.298v1h-1.297v4.437q0 .547.062.72.078.155.22.25.155.077.452.077.203 0 .563-.047zm1.26-7.859v-1.469h1.296v1.469h-1.297zm0 9.016V175.9h1.296v7.594h-1.297zm2.771-3.797q0-2.11 1.172-3.125.984-.844 2.39-.844 1.579 0 2.563 1.031 1 1.016 1 2.828 0 1.47-.438 2.313-.437.828-1.28 1.297-.845.469-1.845.469-1.593 0-2.578-1.016-.984-1.031-.984-2.953zm1.328 0q0 1.453.625 2.187.64.719 1.61.719.968 0 1.593-.719.64-.734.64-2.234 0-1.406-.64-2.125-.64-.734-1.594-.734-.968 0-1.609.718-.625.719-.625 2.188zm7.307 3.797V175.9h1.157v1.078q.843-1.25 2.422-1.25.687 0 1.265.25.578.234.86.64.28.407.406.954.062.36.062 1.25v4.672h-1.28v-4.625q0-.782-.157-1.172-.156-.39-.547-.625-.375-.235-.89-.235-.813 0-1.423.532-.593.515-.593 1.968v4.157h-1.282zm7.636-2.266l1.266-.203q.109.766.593 1.172.5.406 1.375.406.891 0 1.313-.36.437-.359.437-.843 0-.438-.375-.688-.265-.171-1.312-.437-1.422-.36-1.969-.61-.547-.265-.828-.734-.281-.469-.281-1.015 0-.516.218-.938.235-.437.641-.734.297-.22.813-.36.53-.156 1.125-.156.89 0 1.562.266.672.25 1 .687.328.438.438 1.172l-1.25.172q-.094-.578-.5-.906-.407-.344-1.157-.344-.89 0-1.28.297-.376.297-.376.687 0 .25.156.453.157.204.5.344.188.078 1.141.328 1.36.36 1.89.594.547.234.86.688.312.437.312 1.093 0 .64-.375 1.219-.375.563-1.093.875-.703.313-1.594.313-1.484 0-2.266-.61-.765-.625-.984-1.828z"/><path fill="none" d="M557.33 196.43h112.284"/><path stroke="#000" stroke-linejoin="round" stroke-linecap="butt" d="M557.33 196.43h106.284"/><path fill="#000" stroke="#000" stroke-linecap="butt" d="M663.614 198.08l4.538-1.65-4.538-1.653z" fill-rule="evenodd"/><path fill="none" d="M672.688 99.276h154.834v64.63H672.688z"/><path fill="#666" d="M711.1 126.196v-13.36h5.048q1.328 0 2.031.125.969.172 1.64.64.673.454 1.079 1.282.406.828.406 1.828 0 1.703-1.094 2.89-1.078 1.173-3.922 1.173h-3.421v5.422H711.1zm1.767-7h3.453q1.718 0 2.437-.641.719-.64.719-1.797 0-.844-.422-1.437-.422-.594-1.125-.782-.437-.125-1.64-.125h-3.422v4.782zm10.459 7v-9.672h1.468v1.468q.563-1.03 1.032-1.359.484-.328 1.062-.328.828 0 1.688.531l-.563 1.516q-.61-.36-1.203-.36-.547 0-.969.329-.422.328-.61.89-.28.875-.28 1.922v5.063h-1.625zm5.619-4.844q0-2.688 1.484-3.969 1.25-1.078 3.047-1.078 2 0 3.266 1.312 1.265 1.297 1.265 3.61 0 1.86-.562 2.937-.563 1.063-1.641 1.657-1.062.593-2.328.593-2.031 0-3.281-1.297-1.25-1.312-1.25-3.765zm1.687 0q0 1.86.797 2.797.813.922 2.047.922 1.219 0 2.031-.922.813-.938.813-2.844 0-1.797-.813-2.719-.812-.922-2.031-.922-1.234 0-2.047.922-.797.906-.797 2.766zm9.298 4.844v-9.672h1.468v1.36q.454-.72 1.204-1.142.765-.437 1.718-.437 1.078 0 1.766.453.687.438.969 1.234 1.156-1.687 2.984-1.687 1.453 0 2.219.797.781.797.781 2.453v6.64h-1.64v-6.093q0-.985-.157-1.406-.156-.438-.578-.704-.422-.265-.984-.265-1.016 0-1.688.687-.672.672-.672 2.157v5.625h-1.64v-6.282q0-1.093-.407-1.64-.406-.547-1.312-.547-.688 0-1.281.36-.594.359-.86 1.062-.25.703-.25 2.031v5.016h-1.64zm14.931-4.844q0-2.688 1.485-3.969 1.25-1.078 3.046-1.078 2 0 3.266 1.312 1.266 1.297 1.266 3.61 0 1.86-.563 2.937-.562 1.063-1.64 1.657-1.063.593-2.329.593-2.03 0-3.28-1.297-1.25-1.312-1.25-3.765zm1.688 0q0 1.86.797 2.797.812.922 2.046.922 1.22 0 2.032-.922.812-.938.812-2.844 0-1.797-.812-2.719-.813-.922-2.032-.922-1.234 0-2.046.922-.797.906-.797 2.766zm12.875 3.375l.235 1.453q-.688.14-1.235.14-.89 0-1.39-.28-.485-.282-.688-.735-.203-.469-.203-1.938v-5.578h-1.203v-1.265h1.203v-2.39l1.625-.985v3.375h1.656v1.265h-1.656v5.672q0 .688.078.89.094.204.282.329.203.11.578.11.265 0 .718-.063zm8.23-1.64l1.688.202q-.406 1.485-1.484 2.313-1.078.812-2.766.812-2.125 0-3.375-1.297-1.234-1.312-1.234-3.671 0-2.454 1.25-3.797 1.265-1.344 3.265-1.344 1.938 0 3.157 1.328 1.234 1.313 1.234 3.703v.438h-7.219q.094 1.593.906 2.453.813.844 2.016.844.906 0 1.547-.47.64-.484 1.016-1.515zm-5.39-2.657h5.406q-.11-1.219-.625-1.828-.781-.953-2.031-.953-1.125 0-1.906.765-.766.75-.844 2.016zm15.407 5.766v-1.22q-.906 1.438-2.703 1.438-1.156 0-2.125-.64-.969-.64-1.5-1.782-.531-1.14-.531-2.625 0-1.453.484-2.625.484-1.187 1.437-1.812.97-.625 2.172-.625.875 0 1.547.375.688.36 1.11.953v-4.797h1.64v13.36h-1.531zm-5.172-4.829q0 1.86.781 2.782.782.922 1.844.922 1.078 0 1.828-.875.75-.891.75-2.688 0-1.984-.765-2.906-.766-.938-1.891-.938-1.078 0-1.813.891-.734.89-.734 2.812zM699.663 148.596v-13.36h2.656l3.156 9.453q.438 1.328.641 1.985.234-.735.703-2.14l3.203-9.298h2.375v13.36h-1.703v-11.172l-3.875 11.172h-1.594l-3.859-11.375v11.375h-1.703zm22.01-3.11l1.687.203q-.406 1.485-1.484 2.313-1.079.812-2.766.812-2.125 0-3.375-1.297-1.234-1.312-1.234-3.671 0-2.454 1.25-3.797 1.265-1.344 3.265-1.344 1.938 0 3.156 1.328 1.235 1.313 1.235 3.703v.438h-7.219q.094 1.593.906 2.453.813.844 2.016.844.906 0 1.547-.47.64-.484 1.015-1.515zm-5.391-2.656h5.406q-.11-1.219-.625-1.828-.781-.953-2.031-.953-1.125 0-1.906.765-.766.75-.844 2.016zm12.72 4.297l.234 1.453q-.688.14-1.235.14-.89 0-1.39-.28-.485-.282-.688-.735-.203-.469-.203-1.938v-5.578h-1.203v-1.265h1.203v-2.39l1.625-.985v3.375h1.656v1.265h-1.656v5.672q0 .688.078.89.094.204.281.329.204.11.579.11.265 0 .718-.063zm1.589 1.469v-9.672h1.469v1.468q.562-1.03 1.03-1.359.485-.328 1.063-.328.828 0 1.688.531l-.563 1.516q-.61-.36-1.203-.36-.547 0-.969.329-.421.328-.609.89-.281.875-.281 1.922v5.063h-1.625zm6.228-11.47v-1.89h1.64v1.89h-1.64zm0 11.47v-9.672h1.64v9.672h-1.64zm10.457-3.547l1.61.218q-.266 1.657-1.36 2.61-1.078.937-2.671.937-1.985 0-3.188-1.297-1.203-1.296-1.203-3.718 0-1.578.516-2.75.515-1.172 1.578-1.75 1.062-.594 2.312-.594 1.578 0 2.578.797 1 .797 1.282 2.265l-1.594.235q-.235-.969-.813-1.453-.578-.5-1.39-.5-1.235 0-2.016.89-.781.891-.781 2.813 0 1.953.75 2.844.75.875 1.953.875.969 0 1.61-.594.656-.594.827-1.828zm2.36.656l1.625-.25q.125.969.75 1.5.625.516 1.75.516t1.672-.454q.547-.468.547-1.093 0-.547-.485-.875-.328-.219-1.672-.547-1.812-.469-2.515-.797-.688-.328-1.047-.906-.36-.594-.36-1.313 0-.64.297-1.187.297-.563.813-.922.375-.281 1.031-.469.672-.203 1.422-.203 1.14 0 2 .328.86.328 1.266.89.421.563.578 1.5l-1.61.22q-.11-.75-.64-1.172-.516-.422-1.47-.422-1.14 0-1.624.375-.469.375-.469.875 0 .312.188.578.203.265.64.437.235.094 1.438.422 1.75.453 2.437.75.688.297 1.078.86.391.562.391 1.406 0 .828-.484 1.547-.47.718-1.375 1.125-.907.39-2.047.39-1.875 0-2.875-.78-.985-.782-1.25-2.329zm12.872 2.89l5.125-13.359h1.906l5.469 13.36h-2.016l-1.547-4.047h-5.593l-1.47 4.047h-1.874zm3.86-5.484h4.53l-1.406-3.703q-.625-1.687-.937-2.766-.266 1.282-.719 2.547l-1.469 3.922zm10.052 5.485v-13.36h5.047q1.328 0 2.031.125.97.172 1.641.64.672.454 1.078 1.282.406.828.406 1.828 0 1.703-1.093 2.89-1.079 1.173-3.922 1.173h-3.422v5.422h-1.766zm1.766-7h3.453q1.719 0 2.437-.641.72-.64.72-1.797 0-.844-.423-1.437-.422-.594-1.125-.782-.437-.125-1.64-.125h-3.422v4.782zm10.975 7v-13.36h1.765v13.36h-1.765zm4.027-2.891l1.625-.25q.125.969.75 1.5.625.516 1.75.516t1.672-.454q.546-.468.546-1.093 0-.547-.484-.875-.328-.219-1.672-.547-1.812-.469-2.515-.797-.688-.328-1.047-.906-.36-.594-.36-1.313 0-.64.297-1.187.297-.563.813-.922.375-.281 1.031-.469.672-.203 1.422-.203 1.14 0 2 .328.86.328 1.265.89.422.563.579 1.5l-1.61.22q-.11-.75-.64-1.172-.516-.422-1.47-.422-1.14 0-1.624.375-.469.375-.469.875 0 .312.188.578.203.265.64.437.235.094 1.438.422 1.75.453 2.437.75.688.297 1.078.86.391.562.391 1.406 0 .828-.484 1.547-.47.718-1.375 1.125-.907.39-2.047.39-1.875 0-2.875-.78-.985-.782-1.25-2.329z"/></g></svg>